STARTFONT 2.1
COMMENT
COMMENT Converted from OpenType font "NotoSansMono-Regular.ttf" by "otf2bdf 3.0".
COMMENT
FONT -FreeType-Noto Sans Mono-Medium-R-Normal--60-600-72-72-P-283-ISO10646-1
SIZE 60 72 72
FONTBOUNDINGBOX 145 96 -37 -23
STARTPROPERTIES 19
FOUNDRY "FreeType"
FAMILY_NAME "Noto Sans Mono"
WEIGHT_NAME "Medium"
SLANT "R"
SETWIDTH_NAME "Normal"
ADD_STYLE_NAME ""
PIXEL_SIZE 60
POINT_SIZE 600
RESOLUTION_X 72
RESOLUTION_Y 72
SPACING "P"
AVERAGE_WIDTH 283
CHARSET_REGISTRY "ISO10646"
CHARSET_ENCODING "1"
FONT_ASCENT 64
FONT_DESCENT 17
COPYRIGHT "Copyright 2015 Google LLC. All Rights Reserved."
_OTF_FONTFILE "NotoSansMono-Regular.ttf"
_OTF_PSNAME "NotoSansMono-Regular"
ENDPROPERTIES
CHARS 3363
STARTCHAR 0000
ENCODING 0
SWIDTH 0 0
DWIDTH 0 0
BBX 0 0 0 0
BITMAP
ENDCHAR
STARTCHAR 000D
ENCODING 13
SWIDTH 600 0
DWIDTH 36 0
BBX 0 0 0 0
BITMAP
ENDCHAR
STARTCHAR 0020
ENCODING 32
SWIDTH 600 0
DWIDTH 36 0
BBX 0 0 0 0
BITMAP
ENDCHAR
STARTCHAR 0021
ENCODING 33
SWIDTH 600 0
DWIDTH 36 0
BBX 8 44 14 -1
BITMAP
7E
7E
7E
7E
7E
7E
7E
7E
7E
7E
7E
7E
7E
7E
7E
7E
7E
7E
7E
7E
7E
7E
7E
7E
3E
3E
3C
3C
3C
3C
3C
00
00
00
00
10
7E
7E
FF
FF
FF
7E
7E
10
ENDCHAR
STARTCHAR 0022
ENCODING 34
SWIDTH 600 0
DWIDTH 36 0
BBX 16 16 10 27
BITMAP
F81F
F81F
F81F
F81F
F81F
F81F
F81F
F81F
F81F
F81F
F81F
F00F
700E
700E
700E
700E
ENDCHAR
STARTCHAR 0023
ENCODING 35
SWIDTH 600 0
DWIDTH 36 0
BBX 34 43 1 0
BITMAP
0007807800
0007807800
000780F800
000F80F000
000F80F000
000F00F000
000F00F000
000F01F000
000F01E000
001F01E000
001E01E000
001E01E000
001E01E000
3FFFFFFFC0
3FFFFFFFC0
3FFFFFFFC0
3FFFFFFFC0
003C03C000
003C07C000
003C078000
007C078000
0078078000
00780F8000
00780F8000
00F80F0000
00F00F0000
FFFFFFFF00
FFFFFFFF00
FFFFFFFF00
FFFFFFFF00
01F01E0000
01E01E0000
01E01E0000
01E03E0000
01E03C0000
03E03C0000
03C03C0000
03C03C0000
03C07C0000
03C0780000
03C0780000
07C0780000
0780780000
ENDCHAR
STARTCHAR 0024
ENCODING 36
SWIDTH 600 0
DWIDTH 36 0
BBX 26 49 5 -3
BITMAP
001E0000
001E0000
001E0000
001E0000
003F8000
03FFF800
0FFFFF00
1FFFFF80
3FFFFF00
7FDEFF00
7E1E0E00
FC1E0000
F81E0000
F81E0000
F81E0000
F81E0000
F81E0000
F81E0000
FC1E0000
7E1E0000
7FDE0000
3FFE0000
1FFF0000
07FFE000
01FFF800
007FFE00
001FFF00
001FFF80
001E3F80
001E0FC0
001E0FC0
001E07C0
001E07C0
001E07C0
001E07C0
001E0FC0
001E0FC0
E01E1F80
FC1EFF00
FFFFFF00
FFFFFC00
FFFFF800
1FFFC000
001E0000
001E0000
001E0000
001E0000
001E0000
001E0000
ENDCHAR
STARTCHAR 0025
ENCODING 37
SWIDTH 600 0
DWIDTH 36 0
BBX 36 45 0 -1
BITMAP
0080000000
0FF8003E00
1FFC003C00
3FFE007C00
7FFF007800
7C1F00F800
780F80F000
F80F81F000
F80F81E000
F80783E000
F00783C000
F00787C000
F007878000
F80F8F8000
F80F8F0000
780F1F0000
7C0F1E0000
3E3E3E0000
1FFE3C0000
0FFC7C0000
03F0780000
0000F80000
0000F00000
0001F00000
0001E0FC00
0003E3FF00
0003C7FF80
0007CFFFC0
00078F87E0
000F8F03E0
000F1F01F0
001F1F01F0
001E1E01F0
003E1E01F0
003C1E01F0
007C1E01F0
00781E01F0
00F81E01F0
00F01F01E0
01F00F01E0
01E00F83E0
03E007FFC0
03C003FF80
07C001FF00
0000001000
ENDCHAR
STARTCHAR 0026
ENCODING 38
SWIDTH 600 0
DWIDTH 36 0
BBX 33 45 2 -1
BITMAP
0008000000
00FFC00000
01FFE00000
03FFF00000
07FFF80000
07E1F80000
0FC0FC0000
0F807C0000
0F807C0000
0F807C0000
0F807C0000
0F807C0000
0F80F80000
07C0F80000
07C1F80000
07C3F00000
03E7E00000
03FFC00000
01FF800000
00FF000000
00FE000000
01FE000000
03FF000000
07FF003E00
0FDF803E00
1F8FC07C00
3F07E07C00
3F03F07C00
7E03F0F800
7C01F8F800
7C00FDF800
FC007FF000
FC007FF000
FC003FE000
FC001FE000
FC000FC000
7C001FE000
7E003FF000
7F007FF000
3F81FFF800
3FFFFCFC00
1FFFF8FE00
0FFFE07F00
03FF803F80
0030000000
ENDCHAR
STARTCHAR 0027
ENCODING 39
SWIDTH 600 0
DWIDTH 36 0
BBX 6 16 15 27
BITMAP
FC
FC
FC
FC
F8
78
78
78
78
78
78
78
78
78
78
78
ENDCHAR
STARTCHAR 0028
ENCODING 40
SWIDTH 600 0
DWIDTH 36 0
BBX 14 52 12 -9
BITMAP
00FC
00F8
01F0
03F0
03E0
07C0
0FC0
0F80
0F80
1F80
1F00
3F00
3E00
3E00
7E00
7E00
7C00
7C00
7C00
FC00
FC00
FC00
FC00
F800
F800
F800
F800
F800
F800
F800
FC00
FC00
FC00
7C00
7C00
7C00
7C00
7E00
3E00
3E00
3F00
3F00
1F00
1F80
0F80
0FC0
07C0
07E0
03E0
03F0
01F0
00FC
ENDCHAR
STARTCHAR 0029
ENCODING 41
SWIDTH 600 0
DWIDTH 36 0
BBX 14 52 10 -10
BITMAP
FC00
3E00
3E00
1F00
1F80
0F80
0FC0
07C0
07E0
03E0
03F0
03F0
01F0
01F0
01F8
00F8
00F8
00F8
00F8
00FC
00FC
00FC
007C
007C
007C
007C
007C
007C
007C
00FC
00FC
00FC
00F8
00F8
00F8
00F8
01F8
01F0
01F0
01F0
03F0
03E0
07E0
07C0
07C0
0F80
0F80
1F00
1F00
3E00
7C00
FC00
ENDCHAR
STARTCHAR 002A
ENCODING 42
SWIDTH 600 0
DWIDTH 36 0
BBX 26 25 5 20
BITMAP
001E0000
001E0000
001E0000
001E0000
001E0000
001E0000
001E0000
001E0000
601E0180
7E1E1F80
7FFFFF80
7FFFFFC0
FFFFFFC0
01FFF000
003F8000
007F8000
00FFC000
01F3E000
03E1F000
03E1F000
07C0F800
0FC0FC00
07807C00
03807000
00802000
ENDCHAR
STARTCHAR 002B
ENCODING 43
SWIDTH 600 0
DWIDTH 36 0
BBX 26 28 5 7
BITMAP
001E0000
001E0000
001E0000
001E0000
001E0000
001E0000
001E0000
001E0000
001E0000
001E0000
001E0000
001E0000
FFFFFFC0
FFFFFFC0
FFFFFFC0
FFFFFFC0
001E0000
001E0000
001E0000
001E0000
001E0000
001E0000
001E0000
001E0000
001E0000
001E0000
001E0000
001E0000
ENDCHAR
STARTCHAR 002C
ENCODING 44
SWIDTH 600 0
DWIDTH 36 0
BBX 10 16 13 -8
BITMAP
1FC0
1FC0
3F80
3F80
3F80
3F00
3F00
3F00
7E00
7E00
7C00
7C00
FC00
F800
F800
F000
ENDCHAR
STARTCHAR 002D
ENCODING 45
SWIDTH 600 0
DWIDTH 36 0
BBX 18 4 9 14
BITMAP
FFFFC0
FFFFC0
FFFFC0
FFFFC0
ENDCHAR
STARTCHAR 002E
ENCODING 46
SWIDTH 600 0
DWIDTH 36 0
BBX 8 9 14 -1
BITMAP
10
7E
7E
FF
FF
FF
7E
7E
10
ENDCHAR
STARTCHAR 002F
ENCODING 47
SWIDTH 600 0
DWIDTH 36 0
BBX 22 43 7 0
BITMAP
0000FC
0000F8
0000F8
0001F0
0001F0
0001F0
0003E0
0003E0
0007E0
0007C0
0007C0
000F80
000F80
001F80
001F00
001F00
003F00
003E00
003E00
007C00
007C00
00FC00
00F800
00F800
01F000
01F000
03F000
03E000
03E000
07E000
07C000
07C000
0F8000
0F8000
1F8000
1F0000
1F0000
3E0000
3E0000
3E0000
7C0000
7C0000
FC0000
ENDCHAR
STARTCHAR 0030
ENCODING 48
SWIDTH 600 0
DWIDTH 36 0
BBX 28 45 4 -1
BITMAP
00040000
00FFF000
03FFF800
07FFFE00
0FFFFF00
1FE07F00
1F801F80
3F000FC0
3E001FC0
7E001FC0
7C003FE0
7C007FE0
7C007FE0
F800FDF0
F800F9F0
F801F9F0
F803F1F0
F803E1F0
F807E1F0
F807C1F0
F80FC1F0
F80F80F0
F81F00F0
F83F00F0
F83E01F0
F87E01F0
F87C01F0
F8F801F0
F9F801F0
F9F001F0
FBF001F0
FBE001F0
7FE003E0
7FC003E0
7F8003E0
3F8007E0
3F0007C0
3F000FC0
1F801F80
0FE07F80
0FFFFF00
07FFFE00
01FFFC00
00FFF000
00060000
ENDCHAR
STARTCHAR 0031
ENCODING 49
SWIDTH 600 0
DWIDTH 36 0
BBX 25 43 6 0
BITMAP
001F0000
007F0000
01FF0000
07FF0000
1FFF0000
3FFF0000
FFDF0000
FF1F0000
7C1F0000
301F0000
001F0000
001F0000
001F0000
001F0000
001F0000
001F0000
001F0000
001F0000
001F0000
001F0000
001F0000
001F0000
001F0000
001F0000
001F0000
001F0000
001F0000
001F0000
001F0000
001F0000
001F0000
001F0000
001F0000
001F0000
001F0000
001F0000
001F0000
001F0000
001F0000
3FFFFF80
3FFFFF80
3FFFFF80
3FFFFF80
ENDCHAR
STARTCHAR 0032
ENCODING 50
SWIDTH 600 0
DWIDTH 36 0
BBX 29 44 4 0
BITMAP
00040000
01FFF000
07FFFC00
1FFFFE00
3FFFFF00
7FC07F80
3E001F80
3C000FC0
10000FC0
000007C0
000007C0
000007C0
000007C0
000007C0
000007C0
000007C0
00000FC0
00000FC0
00000F80
00001F80
00003F80
00003F00
00007E00
0000FE00
0001FC00
0003F800
0007F000
000FE000
000FE000
001FC000
003F8000
007F0000
00FE0000
01FC0000
03F80000
07F00000
0FE00000
1FC00000
3F800000
7F000000
FFFFFFF8
FFFFFFF8
FFFFFFF8
FFFFFFF8
ENDCHAR
STARTCHAR 0033
ENCODING 51
SWIDTH 600 0
DWIDTH 36 0
BBX 28 45 4 -1
BITMAP
00040000
01FFF000
0FFFFC00
3FFFFE00
7FFFFF00
7F807F80
3E001F80
18000FC0
00000FC0
00000FC0
000007C0
000007C0
000007C0
00000FC0
00000FC0
00000F80
00001F80
00003F00
00007E00
0007FC00
01FFF000
01FF8000
01FFF800
01FFFE00
0000FF80
00001F80
00000FC0
000007E0
000007E0
000003E0
000003E0
000003E0
000003F0
000003E0
000003E0
000007E0
000007E0
80000FC0
E0001FC0
FE007F80
FFFFFF00
FFFFFE00
7FFFF800
0FFFE000
00380000
ENDCHAR
STARTCHAR 0034
ENCODING 52
SWIDTH 600 0
DWIDTH 36 0
BBX 30 43 3 0
BITMAP
00007F00
00007F00
0000FF00
0000FF00
0001FF00
0003FF00
0003DF00
0007DF00
000FDF00
000F9F00
001F1F00
001F1F00
003E1F00
007E1F00
007C1F00
00F81F00
00F81F00
01F01F00
03F01F00
03E01F00
07C01F00
07C01F00
0F801F00
1F801F00
1F001F00
3E001F00
3E001F00
7C001F00
FC001F00
FFFFFFFC
FFFFFFFC
FFFFFFFC
FFFFFFFC
00001F00
00001F00
00001F00
00001F00
00001F00
00001F00
00001F00
00001F00
00001F00
00001F00
ENDCHAR
STARTCHAR 0035
ENCODING 53
SWIDTH 600 0
DWIDTH 36 0
BBX 26 44 5 -1
BITMAP
3FFFFF00
3FFFFF00
3FFFFF00
3FFFFF00
3E000000
3E000000
3E000000
3E000000
3E000000
3C000000
7C000000
7C000000
7C000000
7C000000
7C000000
7C000000
7C000000
7FFFC000
7FFFF000
7FFFFC00
7FFFFE00
3C03FF00
00007F00
00003F80
00001F80
00000FC0
00000FC0
00000FC0
00000FC0
000007C0
000007C0
000007C0
00000FC0
00000FC0
00000F80
00001F80
80003F80
C0007F00
F801FE00
FFFFFC00
FFFFF800
FFFFF000
1FFF8000
00600000
ENDCHAR
STARTCHAR 0036
ENCODING 54
SWIDTH 600 0
DWIDTH 36 0
BBX 28 45 4 -1
BITMAP
00001000
000FFF80
003FFF80
00FFFF80
01FFFF80
03FE0080
07F00000
0FE00000
1F800000
1F800000
3F000000
3E000000
7E000000
7C000000
7C000000
7C000000
FC000000
F83FF800
F87FFE00
F9FFFF00
FBFFFF80
FBE03FC0
FF800FE0
FF0007E0
FE0003F0
FC0003F0
F80001F0
F80001F0
F80001F0
F80001F0
F80001F0
F80001F0
F80001F0
FC0001F0
7C0001F0
7E0003F0
3E0003E0
3F0007E0
1F800FC0
1FE03FC0
0FFFFF80
07FFFF00
01FFFC00
007FF000
00020000
ENDCHAR
STARTCHAR 0037
ENCODING 55
SWIDTH 600 0
DWIDTH 36 0
BBX 28 43 4 0
BITMAP
FFFFFFF0
FFFFFFF0
FFFFFFF0
FFFFFFF0
000001F0
000003F0
000003E0
000003E0
000007E0
000007C0
00000FC0
00000F80
00001F80
00001F00
00001F00
00003F00
00003E00
00007E00
00007C00
0000FC00
0000FC00
0000F800
0001F800
0001F000
0003F000
0003E000
0007E000
0007E000
0007C000
000FC000
000F8000
001F8000
001F8000
003F0000
003F0000
003E0000
007E0000
007C0000
00FC0000
00FC0000
01F80000
01F80000
03F00000
ENDCHAR
STARTCHAR 0038
ENCODING 56
SWIDTH 600 0
DWIDTH 36 0
BBX 28 45 4 -1
BITMAP
00020000
00FFF000
03FFFC00
07FFFE00
0FFFFF00
1FC07F80
3F801FC0
3F000FC0
3E0007C0
7E0007C0
7E0007C0
7E0007C0
3E0007C0
3E0007C0
3F000FC0
3F000F80
1FC03F80
0FE07F00
07F9FE00
03FFFC00
01FFF000
007FE000
01FFF800
07FFFC00
0FE1FE00
1FC07F80
3F801F80
3E000FC0
7E0007E0
7C0003E0
FC0003F0
F80001F0
F80001F0
F80001F0
F80003F0
FC0003F0
FC0003E0
7E0007E0
7F000FC0
3FC03FC0
1FFFFF80
0FFFFF00
07FFFC00
01FFF000
00060000
ENDCHAR
STARTCHAR 0039
ENCODING 57
SWIDTH 600 0
DWIDTH 36 0
BBX 28 45 4 -1
BITMAP
00040000
00FFE000
03FFF800
0FFFFE00
1FFFFF00
3FC07F80
3F001F80
7E000FC0
7C0007C0
FC0007E0
F80003E0
F80003E0
F80001F0
F80001F0
F80001F0
F80001F0
F80001F0
F80001F0
F80003F0
FC0003F0
7C0007F0
7E000FF0
3F003FF0
3FF3FDF0
1FFFF9F0
0FFFF1F0
03FFE1F0
00FF01F0
000003F0
000003E0
000003E0
000003E0
000007E0
000007C0
00000FC0
00001F80
00001F80
00007F00
0000FE00
0807FE00
0FFFF800
0FFFF000
0FFFC000
0FFF0000
00C00000
ENDCHAR
STARTCHAR 003A
ENCODING 58
SWIDTH 600 0
DWIDTH 36 0
BBX 8 34 14 -1
BITMAP
08
7E
7E
FF
FF
FF
7E
7E
08
00
00
00
00
00
00
00
00
00
00
00
00
00
00
00
00
10
7E
7E
FF
FF
FF
7E
7E
10
ENDCHAR
STARTCHAR 003B
ENCODING 59
SWIDTH 600 0
DWIDTH 36 0
BBX 10 42 13 -9
BITMAP
0200
0F80
1FC0
1FC0
1FC0
1FC0
1FC0
0F80
0200
0000
0000
0000
0000
0000
0000
0000
0000
0000
0000
0000
0000
0000
0000
0000
0000
0000
1FC0
1FC0
3F80
3F80
3F80
3F00
3F00
3F00
7E00
7E00
7C00
7C00
FC00
F800
F800
F000
ENDCHAR
STARTCHAR 003C
ENCODING 60
SWIDTH 600 0
DWIDTH 36 0
BBX 26 29 5 7
BITMAP
000000C0
000003C0
00000FC0
00003FC0
00007F80
0001FE00
0007F800
001FF000
003FC000
00FF0000
03FC0000
0FF00000
3FE00000
7F800000
FE000000
FE000000
FF800000
3FE00000
0FF80000
03FF0000
00FFC000
003FF000
000FFC00
0003FF00
0000FFC0
00003FC0
00000FC0
000003C0
000000C0
ENDCHAR
STARTCHAR 003D
ENCODING 61
SWIDTH 600 0
DWIDTH 36 0
BBX 28 16 4 13
BITMAP
FFFFFFF0
FFFFFFF0
FFFFFFF0
FFFFFFF0
00000000
00000000
00000000
00000000
00000000
00000000
00000000
00000000
FFFFFFF0
FFFFFFF0
FFFFFFF0
FFFFFFF0
ENDCHAR
STARTCHAR 003E
ENCODING 62
SWIDTH 600 0
DWIDTH 36 0
BBX 26 29 5 7
BITMAP
C0000000
F0000000
FC000000
FF000000
7F800000
1FE00000
07F80000
03FE0000
00FF0000
003FC000
000FF000
0003FC00
0001FF00
00007F80
00001FC0
00001FC0
00007FC0
0001FF00
0007FC00
003FF000
00FFC000
03FF0000
0FFC0000
3FF00000
FFC00000
FF000000
FC000000
F0000000
C0000000
ENDCHAR
STARTCHAR 003F
ENCODING 63
SWIDTH 600 0
DWIDTH 36 0
BBX 26 45 5 -1
BITMAP
00080000
07FFE000
3FFFF800
FFFFFC00
7FFFFE00
7F007F00
38003F80
20001F80
00000F80
00000F80
00000FC0
00000FC0
00000FC0
00000F80
00000F80
00000F80
00001F80
00003F00
00007F00
0000FE00
0001FC00
0007F800
000FF000
001FC000
003F8000
003F0000
007E0000
007C0000
007C0000
007C0000
007C0000
00780000
00000000
00000000
00000000
00000000
00100000
007C0000
00FE0000
00FE0000
00FE0000
00FE0000
00FE0000
007C0000
00100000
ENDCHAR
STARTCHAR 0040
ENCODING 64
SWIDTH 600 0
DWIDTH 36 0
BBX 34 49 1 -6
BITMAP
0003FC0000
001FFF8000
007FFFC000
00FFFFF000
01FF9FF800
03F801F800
07E000FC00
0FC0007E00
0F80003E00
1F00001F00
1E00000F00
3E00000F80
3C01FC0780
3C07FF8780
7C0FFFC780
781FFFC7C0
783FDFC3C0
783E07C3C0
F87C07C3C0
F07C0783C0
F0780783C0
F0F80783C0
F0F80783C0
F0F80783C0
F0F80783C0
F0F80F83C0
F0F80F83C0
F0F80F83C0
F0F80F83C0
F0F80F8780
F0F81F8780
F87C1F8780
F87E3DCF80
783FF9FF00
783FF9FF00
7C1FF0FE00
7C0FE07C00
3C00000000
3E00000000
1F00000000
1F80000000
0FC0000000
07E0000000
07F8003800
03FFC7F800
01FFFFF800
007FFFF800
001FFFC000
0003FE0000
ENDCHAR
STARTCHAR 0041
ENCODING 65
SWIDTH 600 0
DWIDTH 36 0
BBX 34 43 1 0
BITMAP
0003F00000
0003F00000
0007F80000
0007F80000
0007F80000
000FFC0000
000FFC0000
000FFC0000
001F3E0000
001F3E0000
001F3E0000
003E3F0000
003E1F0000
003E1F0000
007E1F8000
007C0F8000
007C0F8000
00FC0F8000
00F807C000
00F807C000
01F807C000
01F003E000
01F003E000
03F003E000
03E001F000
03FFFFF000
03FFFFF000
07FFFFF800
07FFFFF800
07C000F800
0F80007C00
0F80007C00
0F80007C00
1F80007E00
1F00003E00
1F00003E00
3F00003F00
3E00001F00
3E00001F00
7E00001F80
7C00000F80
7C00000F80
FC00000FC0
ENDCHAR
STARTCHAR 0042
ENCODING 66
SWIDTH 600 0
DWIDTH 36 0
BBX 27 43 6 0
BITMAP
FFFF8000
FFFFF000
FFFFFC00
FFFFFE00
F80FFF00
F8007F80
F8001F80
F8001F80
F8000F80
F8000F80
F8000FC0
F8000F80
F8000F80
F8000F80
F8001F80
F8001F00
F8003F00
F800FE00
FFFFFC00
FFFFF000
FFFFE000
FFFFFC00
F807FE00
F8003F00
F8001F80
F8000FC0
F8000FC0
F80007C0
F80007E0
F80007E0
F80007E0
F80007E0
F80007E0
F80007C0
F8000FC0
F8000FC0
F8001F80
F8003F80
F803FF00
FFFFFE00
FFFFFC00
FFFFF000
FFFF8000
ENDCHAR
STARTCHAR 0043
ENCODING 67
SWIDTH 600 0
DWIDTH 36 0
BBX 29 45 4 -1
BITMAP
00002000
000FFFC0
007FFFF0
00FFFFF8
01FFFFF0
07FC01F0
07F00020
0FE00000
1FC00000
1F800000
3F000000
3F000000
7E000000
7E000000
7C000000
7C000000
FC000000
FC000000
FC000000
FC000000
FC000000
F8000000
F8000000
F8000000
FC000000
FC000000
FC000000
FC000000
FC000000
7C000000
7C000000
7E000000
7E000000
3E000000
3F000000
3F000000
1F800000
0FC00000
0FF00020
07FC01E0
03FFFFE0
01FFFFE0
007FFFE0
001FFFC0
00006000
ENDCHAR
STARTCHAR 0044
ENCODING 68
SWIDTH 600 0
DWIDTH 36 0
BBX 29 43 4 0
BITMAP
FFFE0000
FFFFE000
FFFFF800
FFFFFC00
FC1FFE00
FC00FF00
FC003F80
FC001FC0
FC000FC0
FC0007E0
FC0003E0
FC0003F0
FC0003F0
FC0001F0
FC0001F8
FC0001F8
FC0001F8
FC0000F8
FC0000F8
FC0000F8
FC0000F8
FC0000F8
FC0000F8
FC0000F8
FC0000F8
FC0001F8
FC0001F8
FC0001F8
FC0001F8
FC0001F0
FC0003F0
FC0003F0
FC0007E0
FC0007E0
FC000FC0
FC001FC0
FC007F80
FC01FF00
FC3FFE00
FFFFFC00
FFFFF000
FFFFC000
FFFE0000
ENDCHAR
STARTCHAR 0045
ENCODING 69
SWIDTH 600 0
DWIDTH 36 0
BBX 25 43 6 0
BITMAP
FFFFFF80
FFFFFF80
FFFFFF80
FFFFFF80
F8000000
F8000000
F8000000
F8000000
F8000000
F8000000
F8000000
F8000000
F8000000
F8000000
F8000000
F8000000
F8000000
F8000000
FFFFFF00
FFFFFF00
FFFFFF00
FFFFFF00
F8000000
F8000000
F8000000
F8000000
F8000000
F8000000
F8000000
F8000000
F8000000
F8000000
F8000000
F8000000
F8000000
F8000000
F8000000
F8000000
F8000000
FFFFFF80
FFFFFF80
FFFFFF80
FFFFFF80
ENDCHAR
STARTCHAR 0046
ENCODING 70
SWIDTH 600 0
DWIDTH 36 0
BBX 25 43 6 0
BITMAP
FFFFFF80
FFFFFF80
FFFFFF80
FFFFFF80
F8000000
F8000000
F8000000
F8000000
F8000000
F8000000
F8000000
F8000000
F8000000
F8000000
F8000000
F8000000
F8000000
F8000000
F8000000
F8000000
FFFFFF00
FFFFFF00
FFFFFF00
FFFFFF00
F8000000
F8000000
F8000000
F8000000
F8000000
F8000000
F8000000
F8000000
F8000000
F8000000
F8000000
F8000000
F8000000
F8000000
F8000000
F8000000
F8000000
F8000000
F8000000
ENDCHAR
STARTCHAR 0047
ENCODING 71
SWIDTH 600 0
DWIDTH 36 0
BBX 29 45 3 -1
BITMAP
00002000
001FFF80
007FFFF0
01FFFFF0
03FFFFF0
07FC01E0
0FF00060
0FC00000
1F800000
3F800000
3F000000
3E000000
7E000000
7E000000
7C000000
FC000000
FC000000
FC000000
F8000000
F8000000
F8000000
F8000000
F800FFF8
F800FFF8
F800FFF8
F800FFF8
F80000F8
F80000F8
FC0000F8
FC0000F8
FC0000F8
7C0000F8
7E0000F8
7E0000F8
3F0000F8
3F0000F8
3F8000F8
1FC000F8
0FE000F8
07F803F8
03FFFFF8
01FFFFF8
00FFFFF8
001FFFC0
0000C000
ENDCHAR
STARTCHAR 0048
ENCODING 72
SWIDTH 600 0
DWIDTH 36 0
BBX 28 43 4 0
BITMAP
FC0003F0
FC0003F0
FC0003F0
FC0003F0
FC0003F0
FC0003F0
FC0003F0
FC0003F0
FC0003F0
FC0003F0
FC0003F0
FC0003F0
FC0003F0
FC0003F0
FC0003F0
FC0003F0
FC0003F0
FC0003F0
FFFFFFF0
FFFFFFF0
FFFFFFF0
FFFFFFF0
FC0003F0
FC0003F0
FC0003F0
FC0003F0
FC0003F0
FC0003F0
FC0003F0
FC0003F0
FC0003F0
FC0003F0
FC0003F0
FC0003F0
FC0003F0
FC0003F0
FC0003F0
FC0003F0
FC0003F0
FC0003F0
FC0003F0
FC0003F0
FC0003F0
ENDCHAR
STARTCHAR 0049
ENCODING 73
SWIDTH 600 0
DWIDTH 36 0
BBX 22 43 7 0
BITMAP
FFFFFC
FFFFFC
FFFFFC
FFFFFC
3FFFE0
00FC00
00FC00
00FC00
00FC00
00FC00
00FC00
00FC00
00FC00
00FC00
00FC00
00FC00
00FC00
00FC00
00FC00
00FC00
00FC00
00FC00
00FC00
00FC00
00FC00
00FC00
00FC00
00FC00
00FC00
00FC00
00FC00
00FC00
00FC00
00FC00
00FC00
00FC00
00FC00
00FC00
00FC00
FFFFFC
FFFFFC
FFFFFC
FFFFFC
ENDCHAR
STARTCHAR 004A
ENCODING 74
SWIDTH 600 0
DWIDTH 36 0
BBX 22 44 6 -1
BITMAP
0000FC
0000FC
0000FC
0000FC
0000FC
0000FC
0000FC
0000FC
0000FC
0000FC
0000FC
0000FC
0000FC
0000FC
0000FC
0000FC
0000FC
0000FC
0000FC
0000FC
0000FC
0000FC
0000FC
0000FC
0000FC
0000FC
0000FC
0000FC
0000FC
0000FC
0000FC
0000FC
0000FC
0000FC
0000F8
0001F8
0001F8
8003F0
F00FF0
FFFFE0
FFFFC0
FFFF80
3FFE00
00C000
ENDCHAR
STARTCHAR 004B
ENCODING 75
SWIDTH 600 0
DWIDTH 36 0
BBX 29 43 4 0
BITMAP
FC0003F0
FC0007E0
FC000FE0
FC000FC0
FC001F80
FC003F00
FC007F00
FC007E00
FC00FC00
FC01FC00
FC01F800
FC03F000
FC07E000
FC0FE000
FC0FC000
FC1F8000
FC3F8000
FC7F0000
FC7E0000
FCFC0000
FDFE0000
FDFE0000
FFFF0000
FFDF8000
FF9F8000
FF8FC000
FF0FC000
FE07E000
FC03F000
FC03F000
FC01F800
FC00FC00
FC00FC00
FC007E00
FC007F00
FC003F00
FC001F80
FC001F80
FC000FC0
FC0007E0
FC0007E0
FC0003F0
FC0003F8
ENDCHAR
STARTCHAR 004C
ENCODING 76
SWIDTH 600 0
DWIDTH 36 0
BBX 24 43 7 0
BITMAP
F80000
F80000
F80000
F80000
F80000
F80000
F80000
F80000
F80000
F80000
F80000
F80000
F80000
F80000
F80000
F80000
F80000
F80000
F80000
F80000
F80000
F80000
F80000
F80000
F80000
F80000
F80000
F80000
F80000
F80000
F80000
F80000
F80000
F80000
F80000
F80000
F80000
F80000
F80000
FFFFFF
FFFFFF
FFFFFF
FFFFFF
ENDCHAR
STARTCHAR 004D
ENCODING 77
SWIDTH 600 0
DWIDTH 36 0
BBX 30 43 3 0
BITMAP
FF0003FC
FF0003FC
FF0007FC
FF8007FC
FF8007FC
FF8007FC
F7C00FBC
FFC00FFC
FFC00FFC
FBC00F7C
FBE01F7C
FBE01F7C
F9E01E7C
F9F03E7C
F9F03E7C
F9F03C7C
F8F03C7C
F8F87C7C
F8F87C7C
F878787C
F87CF87C
F87CF87C
F83CF07C
F83CF07C
F83FF07C
F83FE07C
F81FE07C
F81FE07C
F81FE07C
F80FC07C
F80FC07C
F80FC07C
F800007C
F800007C
F800007C
F800007C
F800007C
F800007C
F800007C
F800007C
F800007C
F800007C
F800007C
ENDCHAR
STARTCHAR 004E
ENCODING 78
SWIDTH 600 0
DWIDTH 36 0
BBX 28 43 4 0
BITMAP
FF0001F0
FF0001F0
FF0001F0
FF8001F0
FF8001F0
FFC001F0
FFC001F0
FBE001F0
FBE001F0
FBE001F0
F9F001F0
F9F001F0
F8F801F0
F8F801F0
F87C01F0
F87C01F0
F83E01F0
F83E01F0
F83E01F0
F81F01F0
F81F01F0
F80F81F0
F80F81F0
F807C1F0
F807C1F0
F803C1F0
F803E1F0
F803E1F0
F801F1F0
F801F1F0
F800F9F0
F800F9F0
F80079F0
F8007DF0
F8007DF0
F8003FF0
F8003FF0
F8001FF0
F8001FF0
F8000FF0
F8000FF0
F80007F0
F80007F0
ENDCHAR
STARTCHAR 004F
ENCODING 79
SWIDTH 600 0
DWIDTH 36 0
BBX 30 45 3 -1
BITMAP
00020000
007FF800
01FFFE00
03FFFF00
07FFFF80
0FF03FC0
1FC00FE0
1F8007E0
3F0003F0
3E0001F0
7E0001F8
7E0001F8
7C0000F8
7C0000F8
FC0000FC
FC0000FC
FC0000FC
F800007C
F800007C
F800007C
F800007C
F800007C
F800007C
F800007C
F800007C
F800007C
F800007C
F800007C
FC0000FC
FC0000FC
FC0000FC
7C0000F8
7C0000F8
7E0001F8
7E0001F8
3E0001F0
3F0003F0
1F8007E0
1FC00FE0
0FF03FC0
07FFFF80
03FFFF00
01FFFE00
007FF800
00030000
ENDCHAR
STARTCHAR 0050
ENCODING 80
SWIDTH 600 0
DWIDTH 36 0
BBX 27 43 6 0
BITMAP
FFFF8000
FFFFF000
FFFFFC00
FFFFFE00
F80FFF00
F8007F80
F8001F80
F8000FC0
F8000FC0
F80007C0
F80007E0
F80007E0
F80007E0
F80007E0
F80007E0
F80007C0
F80007C0
F8000FC0
F8000FC0
F8001F80
F8003F80
F801FF00
FFFFFE00
FFFFFC00
FFFFF000
FFFFC000
F8000000
F8000000
F8000000
F8000000
F8000000
F8000000
F8000000
F8000000
F8000000
F8000000
F8000000
F8000000
F8000000
F8000000
F8000000
F8000000
F8000000
ENDCHAR
STARTCHAR 0051
ENCODING 81
SWIDTH 600 0
DWIDTH 36 0
BBX 30 55 3 -11
BITMAP
00020000
007FF800
01FFFE00
03FFFF00
07FFFF80
0FF03FC0
1FC00FE0
1F8007E0
3F0003F0
3E0001F0
7E0001F8
7E0001F8
7C0000F8
7C0000F8
FC0000FC
FC0000FC
FC0000FC
F800007C
F800007C
F800007C
F800007C
F800007C
F800007C
F800007C
F800007C
F800007C
F800007C
F800007C
FC0000FC
FC0000FC
FC0000FC
7C0000F8
7C0000F8
7E0001F8
7E0001F8
3E0001F0
3F0003F0
1F8007E0
1FC00FE0
0FF03FC0
07FFFF80
03FFFF00
01FFFE00
007FFE00
00023F00
00001F00
00001F80
00000FC0
00000FC0
000007E0
000007E0
000003F0
000003F0
000001F8
000001F8
ENDCHAR
STARTCHAR 0052
ENCODING 82
SWIDTH 600 0
DWIDTH 36 0
BBX 28 43 6 0
BITMAP
FFFE0000
FFFFC000
FFFFF000
FFFFFC00
F83FFC00
F800FE00
F8007F00
F8003F00
F8001F00
F8001F80
F8001F80
F8001F80
F8001F80
F8001F80
F8001F80
F8001F00
F8001F00
F8003F00
F8007E00
F800FE00
F803FC00
FFFFF800
FFFFF000
FFFFC000
FFFF8000
F80FC000
F80FC000
F807E000
F803E000
F803F000
F801F800
F801F800
F800FC00
F8007C00
F8007E00
F8003F00
F8003F00
F8001F80
F8001F80
F8000FC0
F80007E0
F80007E0
F80003F0
ENDCHAR
STARTCHAR 0053
ENCODING 83
SWIDTH 600 0
DWIDTH 36 0
BBX 27 45 5 -1
BITMAP
00020000
00FFFC00
03FFFF80
07FFFFC0
0FFFFF80
1FE01F80
3F800300
3F000000
7E000000
7E000000
7E000000
7E000000
7E000000
7E000000
7E000000
7F000000
3F800000
3FC00000
1FF00000
0FFE0000
07FF8000
03FFE000
00FFF800
003FFC00
000FFF00
0003FF80
0000FF80
00003FC0
00000FC0
00000FC0
000007E0
000007E0
000007E0
000007E0
000007E0
000007C0
00000FC0
80000FC0
E0001F80
FE00FF80
FFFFFF00
FFFFFE00
FFFFF800
1FFFE000
00180000
ENDCHAR
STARTCHAR 0054
ENCODING 84
SWIDTH 600 0
DWIDTH 36 0
BBX 30 43 3 0
BITMAP
FFFFFFFC
FFFFFFFC
FFFFFFFC
FFFFFFFC
000FC000
000FC000
000FC000
000FC000
000FC000
000FC000
000FC000
000FC000
000FC000
000FC000
000FC000
000FC000
000FC000
000FC000
000FC000
000FC000
000FC000
000FC000
000FC000
000FC000
000FC000
000FC000
000FC000
000FC000
000FC000
000FC000
000FC000
000FC000
000FC000
000FC000
000FC000
000FC000
000FC000
000FC000
000FC000
000FC000
000FC000
000FC000
000FC000
ENDCHAR
STARTCHAR 0055
ENCODING 85
SWIDTH 600 0
DWIDTH 36 0
BBX 28 44 4 -1
BITMAP
FC0003F0
FC0003F0
FC0003F0
FC0003F0
FC0003F0
FC0003F0
FC0003F0
FC0003F0
FC0003F0
FC0003F0
FC0003F0
FC0003F0
FC0003F0
FC0003F0
FC0003F0
FC0003F0
FC0003F0
FC0003F0
FC0003F0
FC0003F0
FC0003F0
FC0003F0
FC0003F0
FC0003F0
FC0003F0
FC0003F0
FC0003F0
FC0003F0
FC0003F0
FC0003F0
FC0003F0
FC0003F0
7C0003E0
7C0003E0
7E0007E0
7E0007E0
3F000FC0
3F801FC0
1FC03F80
0FFFFF00
07FFFE00
03FFFC00
00FFF000
00060000
ENDCHAR
STARTCHAR 0056
ENCODING 86
SWIDTH 600 0
DWIDTH 36 0
BBX 34 43 1 0
BITMAP
FC00000FC0
7E00001F80
7E00001F80
3E00001F00
3E00003F00
3F00003F00
1F00003E00
1F00003E00
1F80007E00
0F80007E00
0F80007C00
0FC000FC00
07C000FC00
07C000F800
07C000F800
07E001F800
03E001F000
03E001F000
03F003F000
01F003E000
01F003E000
01F803E000
00F807C000
00F807C000
00F807C000
007C0F8000
007C0F8000
007C0F8000
003E0F8000
003E1F0000
003E1F0000
001E1F0000
001F3E0000
001F3E0000
000F3E0000
000FBC0000
000FBC0000
0007FC0000
0007F80000
0007F80000
0007F80000
0003F00000
0003F00000
ENDCHAR
STARTCHAR 0057
ENCODING 87
SWIDTH 600 0
DWIDTH 36 0
BBX 34 43 1 0
BITMAP
FC00000FC0
7C00000F80
7C00000F80
7C00000F80
7C00000F80
7C00000F80
7C00000F80
7C00000F80
7C00000F80
3C00000F80
3C00000F00
3E03F00F00
3E03F01F00
3E03F01F00
3E03F01F00
3E07F81F00
3E07F81F00
3E07F81F00
1E07B81F00
1E0F3C1F00
1E0F3C1E00
1F0F3C1E00
1F0F3C1E00
1F0F1E1E00
1F1E1E3E00
1F1E1E3E00
1F1E1E3E00
0F1E0F3E00
0F3C0F3E00
0F3C0F3E00
0F3C0F3C00
0F3C07BC00
0F3C07BC00
0F7807BC00
0F7807BC00
0F7803BC00
07F803FC00
07F003FC00
07F003FC00
07F001FC00
07F001F800
07E001F800
07E001F800
ENDCHAR
STARTCHAR 0058
ENCODING 88
SWIDTH 600 0
DWIDTH 36 0
BBX 32 43 2 0
BITMAP
7E00007E
3F0000FC
3F0000FC
1F8001F8
0F8001F0
0FC003F0
07C003E0
07E007E0
03E007C0
01F00F80
01F81F80
00F81F00
00FC3F00
007C3E00
003E7C00
003E7C00
001FF800
001FF800
000FF000
0007F000
0007E000
0007E000
0007E000
000FF000
001FF800
001FF800
003E7C00
003E7C00
007C3E00
00FC3F00
00F81F00
01F80F80
03F00FC0
03E007C0
07E007E0
07C003E0
0FC001F0
1F8001F8
1F0000F8
3F0000FC
3E00007C
7E00007E
FC00003F
ENDCHAR
STARTCHAR 0059
ENCODING 89
SWIDTH 600 0
DWIDTH 36 0
BBX 32 43 2 0
BITMAP
FC00003F
7E00007E
7E00007E
3F00007C
3F0000FC
1F8000F8
1F8001F8
0F8001F0
0FC003F0
07C003E0
07E007E0
03E007C0
03F00FC0
01F00F80
01F81F80
00F81F00
00FC1F00
007C3E00
007C3E00
003E7C00
003E7C00
001FF800
001FF800
000FF000
000FF000
0007E000
0007E000
0007E000
0007E000
0007E000
0007E000
0007E000
0007E000
0007E000
0007E000
0007E000
0007E000
0007E000
0007E000
0007E000
0007E000
0007E000
0007E000
ENDCHAR
STARTCHAR 005A
ENCODING 90
SWIDTH 600 0
DWIDTH 36 0
BBX 24 43 6 0
BITMAP
7FFFFF
7FFFFF
7FFFFF
7FFFFF
00001F
00003F
00003E
00007C
0000FC
0000F8
0001F8
0001F0
0003F0
0003E0
0007E0
0007C0
000FC0
000F80
001F00
003F00
003E00
007E00
007C00
00FC00
00F800
01F800
01F000
03F000
03E000
07C000
0FC000
0F8000
1F8000
1F0000
3F0000
3E0000
7E0000
7C0000
FC0000
FFFFFF
FFFFFF
FFFFFF
FFFFFF
ENDCHAR
STARTCHAR 005B
ENCODING 91
SWIDTH 600 0
DWIDTH 36 0
BBX 14 53 14 -10
BITMAP
FFFC
FFFC
FFFC
FFFC
FC00
FC00
FC00
FC00
FC00
FC00
FC00
FC00
FC00
FC00
FC00
FC00
FC00
FC00
FC00
FC00
FC00
FC00
FC00
FC00
FC00
FC00
FC00
FC00
FC00
FC00
FC00
FC00
FC00
FC00
FC00
FC00
FC00
FC00
FC00
FC00
FC00
FC00
FC00
FC00
FC00
FC00
FC00
FC00
FC00
FFFC
FFFC
FFFC
FFFC
ENDCHAR
STARTCHAR 005C
ENCODING 92
SWIDTH 600 0
DWIDTH 36 0
BBX 22 43 7 0
BITMAP
FC0000
7C0000
7C0000
3E0000
3E0000
3E0000
1F0000
1F0000
1F8000
0F8000
0F8000
07C000
07C000
07E000
03E000
03E000
03F000
01F000
01F000
00F800
00F800
00FC00
007C00
007C00
003E00
003E00
003F00
001F00
001F00
001F80
000F80
000F80
0007C0
0007C0
0007E0
0003E0
0003E0
0001F0
0001F0
0001F0
0000F8
0000F8
0000FC
ENDCHAR
STARTCHAR 005D
ENCODING 93
SWIDTH 600 0
DWIDTH 36 0
BBX 14 53 8 -9
BITMAP
FFFC
FFFC
FFFC
FFFC
00FC
00FC
00FC
00FC
00FC
00FC
00FC
00FC
00FC
00FC
00FC
00FC
00FC
00FC
00FC
00FC
00FC
00FC
00FC
00FC
00FC
00FC
00FC
00FC
00FC
00FC
00FC
00FC
00FC
00FC
00FC
00FC
00FC
00FC
00FC
00FC
00FC
00FC
00FC
00FC
00FC
00FC
00FC
00FC
00FC
FFFC
FFFC
FFFC
FFFC
ENDCHAR
STARTCHAR 005E
ENCODING 94
SWIDTH 600 0
DWIDTH 36 0
BBX 30 28 3 16
BITMAP
00070000
000F0000
000F8000
001F8000
001FC000
003FC000
003FE000
003DE000
0078F000
0078F000
00F87800
00F07C00
01F03C00
01E03E00
03E01E00
03C01F00
07C00F00
07800F80
0F800780
0F8007C0
1F0003C0
1F0003E0
1E0001E0
3E0001F0
3C0000F0
7C0000F8
78000078
F800007C
ENDCHAR
STARTCHAR 005F
ENCODING 95
SWIDTH 600 0
DWIDTH 36 0
BBX 36 4 0 -9
BITMAP
FFFFFFFFF0
FFFFFFFFF0
FFFFFFFFF0
FFFFFFFFF0
ENDCHAR
STARTCHAR 0060
ENCODING 96
SWIDTH 600 0
DWIDTH 36 0
BBX 12 10 11 37
BITMAP
FE00
7E00
7F00
3F00
1F80
0FC0
07C0
03E0
01F0
00F0
ENDCHAR
STARTCHAR 0061
ENCODING 97
SWIDTH 600 0
DWIDTH 36 0
BBX 27 34 4 -1
BITMAP
00040000
01FFF000
0FFFFC00
3FFFFF00
1FFFFF80
0F803F80
0C000FC0
000007C0
000007C0
000007C0
000003E0
000003E0
000003E0
007FFFE0
03FFFFE0
0FFFFFE0
1FFFFFE0
3FFE03E0
7F8003E0
7E0003E0
7C0003E0
FC0003E0
F80007E0
F80007E0
F80007E0
F8000FE0
FC001FE0
7E003FE0
7F00FBE0
3FFFFBE0
3FFFF3E0
0FFFC3E0
07FF03E0
00200000
ENDCHAR
STARTCHAR 0062
ENCODING 98
SWIDTH 600 0
DWIDTH 36 0
BBX 28 47 5 -1
BITMAP
F8000000
F8000000
F8000000
F8000000
F8000000
F8000000
F8000000
F8000000
F8000000
F8000000
F8000000
F8000000
F8000000
F8020000
F83FF000
F8FFFC00
F9FFFE00
FBFFFF00
FFC07F80
FF801F80
FF000FC0
FE000FC0
FC0007E0
FC0007E0
FC0003E0
F80003E0
F80003F0
F80003F0
F80003F0
F80003F0
F80003F0
F80003F0
F80003F0
F80003F0
F80003E0
FC0003E0
FC0007E0
FC0007E0
FE000FC0
FF000FC0
FF801F80
FFC07F80
FBFFFF00
F1FFFE00
F0FFFC00
F03FF000
00020000
ENDCHAR
STARTCHAR 0063
ENCODING 99
SWIDTH 600 0
DWIDTH 36 0
BBX 25 34 5 -1
BITMAP
00010000
007FFE00
01FFFF80
07FFFF80
0FFFFF80
1FF00F00
1FC00100
3F800000
3F000000
7E000000
7E000000
7C000000
FC000000
FC000000
FC000000
FC000000
FC000000
FC000000
FC000000
FC000000
FC000000
FC000000
7C000000
7E000000
7E000000
7F000000
3F000000
3FC00080
1FF00780
0FFFFF80
07FFFF80
01FFFF80
007FFE00
00030000
ENDCHAR
STARTCHAR 0064
ENCODING 100
SWIDTH 600 0
DWIDTH 36 0
BBX 28 47 3 -1
BITMAP
000001F0
000001F0
000001F0
000001F0
000001F0
000001F0
000001F0
000001F0
000001F0
000001F0
000001F0
000001F0
000001F0
000201F0
00FFE1F0
03FFF1F0
07FFFDF0
0FFFFDF0
1FE03FF0
3FC01FF0
3F800FF0
3F0007F0
7E0003F0
7E0003F0
7E0003F0
7C0003F0
FC0001F0
FC0001F0
FC0001F0
FC0001F0
FC0001F0
FC0001F0
FC0001F0
FC0001F0
7C0001F0
7C0003F0
7E0003F0
7E0003F0
3F0007F0
3F0007F0
1F800FF0
1FE03FF0
0FFFFDF0
07FFF9F0
03FFF0F0
00FFE0F0
00040000
ENDCHAR
STARTCHAR 0065
ENCODING 101
SWIDTH 600 0
DWIDTH 36 0
BBX 28 34 4 -1
BITMAP
00020000
007FF000
01FFFC00
07FFFF00
0FFFFF80
1FE03FC0
1F800FC0
3F0007E0
7E0003E0
7E0003F0
7C0003F0
FC0001F0
F80001F0
F80001F0
FFFFFFF0
FFFFFFF0
FFFFFFF0
FFFFFFF0
F8000000
F8000000
F8000000
F8000000
FC000000
FC000000
7E000000
7E000000
3F000000
3FC00060
1FF007E0
0FFFFFE0
07FFFFE0
01FFFFC0
007FFF00
00018000
ENDCHAR
STARTCHAR 0066
ENCODING 102
SWIDTH 600 0
DWIDTH 36 0
BBX 30 46 4 0
BITMAP
00003FE0
0001FFFC
0007FFFC
000FFFFC
000FFCF8
001FC000
001F8000
001F0000
001F0000
003F0000
003F0000
003F0000
003F0000
003F0000
1FFFFFF0
FFFFFFF0
FFFFFFF0
FFFFFFF0
003F0000
003F0000
003F0000
003F0000
003F0000
003F0000
003F0000
003F0000
003F0000
003F0000
003F0000
003F0000
003F0000
003F0000
003F0000
003F0000
003F0000
003F0000
003F0000
003F0000
003F0000
003F0000
003F0000
003F0000
003F0000
003F0000
003F0000
003F0000
ENDCHAR
STARTCHAR 0067
ENCODING 103
SWIDTH 600 0
DWIDTH 36 0
BBX 28 47 3 -14
BITMAP
00040000
00FFE0F0
03FFF0F0
07FFF9F0
0FFFFDF0
1FE03FF0
1F800FF0
3F0007F0
3F0003F0
7E0003F0
7E0003F0
7C0001F0
7C0001F0
7C0001F0
FC0001F0
FC0001F0
FC0001F0
FC0001F0
FC0001F0
FC0001F0
FC0001F0
7C0001F0
7C0001F0
7E0001F0
7E0003F0
3F0003F0
3F0007F0
1F800FF0
1FE03FF0
0FFFFFF0
07FFFDF0
03FFF9F0
00FFE1F0
000601F0
000001F0
000001F0
000001F0
000001F0
000003F0
000003E0
200007E0
3C001FC0
3FF1FFC0
3FFFFF80
3FFFFF00
0FFFFC00
00FFE000
ENDCHAR
STARTCHAR 0068
ENCODING 104
SWIDTH 600 0
DWIDTH 36 0
BBX 27 46 5 0
BITMAP
F8000000
F8000000
F8000000
F8000000
F8000000
F8000000
F8000000
F8000000
F8000000
F8000000
F8000000
F8000000
F8000000
F8010000
F83FF800
F87FFC00
F9FFFF00
F9FFFF80
FBE07F80
FF801FC0
FF000FC0
FE000FC0
FE0007C0
FC0007C0
FC0007C0
FC0007E0
F80007E0
F80007E0
F80007E0
F80007E0
F80007E0
F80007E0
F80007E0
F80007E0
F80007E0
F80007E0
F80007E0
F80007E0
F80007E0
F80007E0
F80007E0
F80007E0
F80007E0
F80007E0
F80007E0
F80007E0
ENDCHAR
STARTCHAR 0069
ENCODING 105
SWIDTH 600 0
DWIDTH 36 0
BBX 27 46 5 0
BITMAP
001E0000
003F8000
003F8000
003F8000
003F8000
003F8000
003F8000
001E0000
00000000
00000000
00000000
00000000
00000000
00000000
7FFF8000
7FFF8000
7FFF8000
7FFF8000
003F8000
001F8000
001F8000
001F8000
001F8000
001F8000
001F8000
001F8000
001F8000
001F8000
001F8000
001F8000
001F8000
001F8000
001F8000
001F8000
001F8000
001F8000
001F8000
001F8000
001F8000
001F8000
001F8000
001F8000
FFFFFFE0
FFFFFFE0
FFFFFFE0
FFFFFFE0
ENDCHAR
STARTCHAR 006A
ENCODING 106
SWIDTH 600 0
DWIDTH 36 0
BBX 20 60 4 -14
BITMAP
0001E0
0007F0
0007F0
0007F0
0007F0
0007F0
0007F0
0001E0
000000
000000
000000
000000
000000
000000
0FFFF0
0FFFF0
0FFFF0
0FFFF0
000FF0
0003F0
0003F0
0003F0
0003F0
0003F0
0003F0
0003F0
0003F0
0003F0
0003F0
0003F0
0003F0
0003F0
0003F0
0003F0
0003F0
0003F0
0003F0
0003F0
0003F0
0003F0
0003F0
0003F0
0003F0
0003F0
0003F0
0003F0
0003F0
0003F0
0003F0
0003F0
0003F0
0003F0
0007E0
0007E0
800FE0
FCFFC0
FFFF80
FFFF00
FFFE00
3FF000
ENDCHAR
STARTCHAR 006B
ENCODING 107
SWIDTH 600 0
DWIDTH 36 0
BBX 28 46 6 0
BITMAP
FC000000
FC000000
FC000000
FC000000
FC000000
FC000000
FC000000
FC000000
FC000000
FC000000
FC000000
FC000000
FC000000
FC000000
FC000FE0
FC000FC0
FC001F80
FC003F00
FC007E00
FC00FC00
FC01F800
FC03F000
FC07F000
FC0FE000
FC1FC000
FC3F8000
FC3F0000
FC7E0000
F8FE0000
F9FF0000
FBFF8000
FFDF8000
FF8FC000
FF07E000
FE03F000
FC03F000
FC01F800
FC00FC00
FC00FE00
FC007E00
FC003F00
FC001F80
FC001FC0
FC000FC0
FC0007E0
FC0003F0
ENDCHAR
STARTCHAR 006C
ENCODING 108
SWIDTH 600 0
DWIDTH 36 0
BBX 27 46 5 0
BITMAP
FFFF8000
FFFF8000
FFFF8000
FFFF8000
000F8000
000F8000
000F8000
000F8000
000F8000
000F8000
000F8000
000F8000
000F8000
000F8000
000F8000
000F8000
000F8000
000F8000
000F8000
000F8000
000F8000
000F8000
000F8000
000F8000
000F8000
000F8000
000F8000
000F8000
000F8000
000F8000
000F8000
000F8000
000F8000
000F8000
000F8000
000F8000
000F8000
000F8000
000F8000
000F8000
000F8000
000F8000
FFFFFFE0
FFFFFFE0
FFFFFFE0
FFFFFFE0
ENDCHAR
STARTCHAR 006D
ENCODING 109
SWIDTH 600 0
DWIDTH 36 0
BBX 30 33 3 0
BITMAP
00200100
F1FC0FE0
F3FE3FF0
F7FF3FF8
FFFF7FF8
FE1FF0F8
FC0FE07C
FC0FE07C
FC0FC07C
F80FC07C
F807C07C
F807C07C
F807C07C
F807C07C
F807C07C
F807807C
F807807C
F807807C
F807807C
F807807C
F807807C
F807807C
F807807C
F807807C
F807807C
F807807C
F807807C
F807807C
F807807C
F807807C
F807807C
F807807C
F807807C
ENDCHAR
STARTCHAR 006E
ENCODING 110
SWIDTH 600 0
DWIDTH 36 0
BBX 27 33 5 0
BITMAP
00010000
F03FF800
F0FFFE00
F9FFFF00
FBFFFF80
FBC03F80
FF801FC0
FF000FC0
FE000FC0
FC0007C0
FC0007C0
FC0007C0
FC0007E0
F80007E0
F80007E0
F80007E0
F80007E0
F80007E0
F80007E0
F80007E0
F80007E0
F80007E0
F80007E0
F80007E0
F80007E0
F80007E0
F80007E0
F80007E0
F80007E0
F80007E0
F80007E0
F80007E0
F80007E0
ENDCHAR
STARTCHAR 006F
ENCODING 111
SWIDTH 600 0
DWIDTH 36 0
BBX 30 34 3 -1
BITMAP
00020000
007FF800
01FFFE00
03FFFF00
0FFFFF80
0FE03FC0
1FC00FE0
3F0007F0
3F0003F0
7E0001F8
7E0001F8
7C0000F8
7C0000F8
FC0000F8
FC0000FC
FC0000FC
FC0000FC
FC0000FC
FC0000FC
FC0000FC
7C0000F8
7C0000F8
7C0001F8
7E0001F8
7E0001F8
3F0003F0
3F8007F0
1FC00FE0
0FF01FC0
07FFFF80
03FFFF00
01FFFE00
007FF800
00030000
ENDCHAR
STARTCHAR 0070
ENCODING 112
SWIDTH 600 0
DWIDTH 36 0
BBX 28 47 5 -14
BITMAP
00020000
F03FF000
F0FFFC00
F9FFFE00
FBFFFF00
FFC07F80
FF001F80
FE000FC0
FE0007C0
FC0007E0
FC0007E0
FC0003E0
F80003E0
F80003F0
F80003F0
F80003F0
F80003F0
F80003F0
F80003F0
F80003F0
F80003F0
F80003E0
FC0003E0
FC0007E0
FC0007E0
FE000FC0
FE000FC0
FF001F80
FFC07F80
FBFFFF00
F9FFFE00
F8FFFC00
F83FF000
F8020000
F8000000
F8000000
F8000000
F8000000
F8000000
F8000000
F8000000
F8000000
F8000000
F8000000
F8000000
F8000000
F8000000
ENDCHAR
STARTCHAR 0071
ENCODING 113
SWIDTH 600 0
DWIDTH 36 0
BBX 28 47 3 -14
BITMAP
00040000
00FFC0F0
03FFF0F0
07FFF9F0
0FFFFDF0
1FE03FF0
1F800FF0
3F0007F0
3F0007F0
7E0003F0
7E0003F0
7C0003F0
7C0003F0
FC0001F0
FC0001F0
FC0001F0
FC0001F0
FC0001F0
FC0001F0
FC0001F0
FC0001F0
7C0001F0
7C0003F0
7E0003F0
7E0003F0
3F0007F0
3F0007F0
1F800FF0
1FE03FF0
0FFFFDF0
07FFF9F0
03FFF1F0
00FFC1F0
000401F0
000001F0
000001F0
000001F0
000001F0
000001F0
000001F0
000001F0
000001F0
000001F0
000001F0
000001F0
000001F0
000001F0
ENDCHAR
STARTCHAR 0072
ENCODING 114
SWIDTH 600 0
DWIDTH 36 0
BBX 30 33 4 0
BITMAP
00000100
7FFC1FFC
7FFC3FFC
7FFC7FFC
7FFCFFF8
007CF818
007DE008
007FC000
007F8000
007F8000
007F0000
007F0000
007F0000
007E0000
007E0000
007E0000
007E0000
007E0000
007E0000
007E0000
007E0000
007E0000
007E0000
007E0000
007E0000
007E0000
007E0000
007E0000
007E0000
FFFFFF00
FFFFFF00
FFFFFF00
FFFFFF00
ENDCHAR
STARTCHAR 0073
ENCODING 115
SWIDTH 600 0
DWIDTH 36 0
BBX 24 34 6 -1
BITMAP
000400
03FFF0
0FFFFE
1FFFFE
3FFFFE
3F803C
7E0004
7C0000
7C0000
7C0000
7C0000
7E0000
3F8000
3FE000
1FF800
07FF00
03FFC0
00FFF0
001FF8
0007FC
0001FE
00007E
00003F
00003F
00003F
00003F
00003E
E0007E
FC01FE
FFFFFC
FFFFF8
FFFFF0
1FFFC0
003000
ENDCHAR
STARTCHAR 0074
ENCODING 116
SWIDTH 600 0
DWIDTH 36 0
BBX 28 42 3 -1
BITMAP
003E0000
003E0000
003E0000
003E0000
003E0000
003E0000
007E0000
007E0000
007E0000
1FFFFFE0
FFFFFFE0
FFFFFFE0
FFFFFFE0
007E0000
007E0000
007E0000
007E0000
007E0000
007E0000
007E0000
007E0000
007E0000
007E0000
007E0000
007E0000
007E0000
007E0000
007E0000
007E0000
007E0000
007E0000
007E0000
007E0000
007E0000
007E0000
003F0000
003FC010
001FFFF0
000FFFF0
0007FFF0
0001FFF0
00000C00
ENDCHAR
STARTCHAR 0075
ENCODING 117
SWIDTH 600 0
DWIDTH 36 0
BBX 27 33 4 -1
BITMAP
FC0003E0
FC0003E0
FC0003E0
FC0003E0
FC0003E0
FC0003E0
FC0003E0
FC0003E0
FC0003E0
FC0003E0
FC0003E0
FC0003E0
FC0003E0
FC0003E0
FC0003E0
FC0003E0
FC0003E0
FC0003E0
FC0003E0
FC0003E0
FC0007E0
FC0007E0
7C0007E0
7C0007E0
7E000FE0
7E000FE0
7F001FE0
3F807FE0
3FFFFBE0
1FFFF3E0
0FFFE1E0
03FF81E0
00100000
ENDCHAR
STARTCHAR 0076
ENCODING 118
SWIDTH 600 0
DWIDTH 36 0
BBX 30 32 3 0
BITMAP
F80000FC
FC0000FC
7C0000F8
7C0001F8
7E0001F8
3E0001F0
3F0003F0
3F0003E0
1F0003E0
1F8007E0
0F8007C0
0F8007C0
0FC00FC0
07C00F80
07C00F80
07E01F00
03E01F00
03E01F00
01F03E00
01F03E00
01F03E00
00F87C00
00F87C00
00FCF800
007CF800
007CF800
003FF000
003FF000
003FF000
001FE000
001FE000
001FC000
ENDCHAR
STARTCHAR 0077
ENCODING 119
SWIDTH 600 0
DWIDTH 36 0
BBX 34 32 1 0
BITMAP
F8000007C0
F8000007C0
F8000007C0
7C000007C0
7C00000F80
7C00000F80
7C03F00F80
7C03F00F80
7C07F80F80
7C07F80F80
3E07F81F00
3E0FF81F00
3E0FFC1F00
3E0F3C1F00
3E0F3C1F00
3E1F3E1F00
1E1F3E1E00
1F1E1E3E00
1F3E1E3E00
1F3E1F3E00
1F3C1F3E00
1F3C0F3E00
0F3C0F3C00
0F7C0FBC00
0F780FBC00
0F7807BC00
0F7807BC00
0F7807BC00
07F007F800
07F003F800
07F003F800
07F003F800
ENDCHAR
STARTCHAR 0078
ENCODING 120
SWIDTH 600 0
DWIDTH 36 0
BBX 30 32 3 0
BITMAP
FE0001FC
7E0001F8
3F0003F0
1F8007E0
0FC00FC0
0FC00FC0
07E01F80
03F03F00
01F03E00
01F87E00
00FCFC00
007FF800
007FF000
003FF000
001FE000
000FC000
001FE000
001FE000
003FF000
007FF800
00FCFC00
00F87C00
01F87E00
03F03F00
07E01F80
07E01F80
0FC00FC0
1F8007E0
3F0003F0
3F0003F0
7E0001F8
FC0000FC
ENDCHAR
STARTCHAR 0079
ENCODING 121
SWIDTH 600 0
DWIDTH 36 0
BBX 30 46 3 -14
BITMAP
F800007C
FC0000FC
7C0000F8
7C0000F8
3E0001F8
3E0001F0
3F0003F0
1F0003E0
1F8003E0
0F8007E0
0F8007C0
07C007C0
07C00FC0
07E00F80
03E00F80
03E01F00
01F01F00
01F01F00
00F83E00
00F83E00
00F83C00
007C7C00
007C7C00
003E7800
003EF800
001EF800
001EF000
001FF000
000FE000
000FE000
0007E000
0007C000
0007C000
000FC000
000F8000
000F8000
001F0000
001F0000
003F0000
007E0000
00FE0000
67FC0000
7FF80000
7FF00000
7FE00000
7F800000
ENDCHAR
STARTCHAR 007A
ENCODING 122
SWIDTH 600 0
DWIDTH 36 0
BBX 26 32 5 0
BITMAP
7FFFFF80
7FFFFF80
7FFFFF80
7FFFFF80
00001F80
00003F80
00003F00
00007E00
0000FC00
0001F800
0001F800
0003F000
0007E000
000FC000
001F8000
001F8000
003F0000
007E0000
00FC0000
01F80000
01F80000
03F00000
07E00000
0FC00000
0F800000
1F800000
3F000000
7E000000
FFFFFFC0
FFFFFFC0
FFFFFFC0
FFFFFFC0
ENDCHAR
STARTCHAR 007B
ENCODING 123
SWIDTH 600 0
DWIDTH 36 0
BBX 20 52 8 -9
BITMAP
0001F0
000FF0
001FF0
003FF0
007FE0
00FE00
00FC00
00F800
00F800
00F800
00F800
00F800
00F800
00F800
00F800
00F800
00F800
00F800
00F800
00F800
01F800
01F800
03F000
0FE000
FFC000
FF0000
FE0000
FFC000
7FE000
07F000
01F000
01F800
00F800
00F800
00F800
00F800
00F800
00F800
00F800
00F800
00F800
00F800
00F800
00F800
00F800
00FC00
00FC00
007F00
007FF0
003FF0
000FF0
0003F0
ENDCHAR
STARTCHAR 007C
ENCODING 124
SWIDTH 600 0
DWIDTH 36 0
BBX 4 60 16 -14
BITMAP
F0
F0
F0
F0
F0
F0
F0
F0
F0
F0
F0
F0
F0
F0
F0
F0
F0
F0
F0
F0
F0
F0
F0
F0
F0
F0
F0
F0
F0
F0
F0
F0
F0
F0
F0
F0
F0
F0
F0
F0
F0
F0
F0
F0
F0
F0
F0
F0
F0
F0
F0
F0
F0
F0
F0
F0
F0
F0
F0
F0
ENDCHAR
STARTCHAR 007D
ENCODING 125
SWIDTH 600 0
DWIDTH 36 0
BBX 20 52 8 -10
BITMAP
FC0000
FF0000
FFC000
FFE000
0FE000
03F000
03F000
01F000
01F000
01F000
01F000
01F000
01F000
01F000
01F000
01F000
01F000
01F000
01F000
01F000
01F800
00F800
00FE00
007FE0
003FF0
0007F0
000FF0
003FF0
007F00
00FC00
01F800
01F800
01F000
01F000
01F000
01F000
01F000
01F000
01F000
01F000
01F000
01F000
01F000
01F000
01F000
03F000
07F000
7FE000
FFC000
FF8000
FF0000
F80000
ENDCHAR
STARTCHAR 007E
ENCODING 126
SWIDTH 600 0
DWIDTH 36 0
BBX 27 11 4 17
BITMAP
07C000E0
0FF000E0
1FFC01E0
3FFE01E0
3C3F01E0
781F83C0
780FC3C0
7807FFC0
7003FF80
7000FF00
F0007E00
ENDCHAR
STARTCHAR 00A0
ENCODING 160
SWIDTH 600 0
DWIDTH 36 0
BBX 0 0 0 0
BITMAP
ENDCHAR
STARTCHAR 00A1
ENCODING 161
SWIDTH 600 0
DWIDTH 36 0
BBX 8 44 14 -11
BITMAP
10
7E
7E
FF
FF
FF
7E
7E
10
00
00
00
00
3C
3C
3C
3C
3C
7C
7C
7E
7E
7E
7E
7E
7E
7E
7E
7E
7E
7E
7E
7E
7E
7E
7E
7E
7E
7E
7E
7E
7E
7E
7E
ENDCHAR
STARTCHAR 00A2
ENCODING 162
SWIDTH 600 0
DWIDTH 36 0
BBX 26 45 5 -1
BITMAP
00078000
00078000
00078000
00078000
00078000
00078000
003FFE00
00FFFFC0
03FFFF80
07FFFF80
0FF00F00
1FC00100
1F800000
3F000000
3E000000
7E000000
7E000000
7C000000
7C000000
7C000000
FC000000
FC000000
FC000000
FC000000
FC000000
7C000000
7C000000
7C000000
7E000000
7E000000
3E000000
3F000000
3F800000
1FE00180
0FFE3F80
07FFFF80
03FFFF80
00FFFF80
001FFC00
00078000
00078000
00078000
00078000
00078000
00078000
ENDCHAR
STARTCHAR 00A3
ENCODING 163
SWIDTH 600 0
DWIDTH 36 0
BBX 27 44 5 0
BITMAP
00004000
000FFE00
003FFF80
007FFFC0
00FFFF80
01FC0780
01F80100
01F00000
03F00000
03F00000
03E00000
03E00000
03E00000
03E00000
03E00000
03E00000
03E00000
03E00000
03E00000
03E00000
03E00000
7FFFFC00
7FFFFC00
7FFFFC00
7FFFFC00
03E00000
03E00000
03E00000
03E00000
03E00000
03E00000
03E00000
03E00000
03E00000
03E00000
07C00000
07C00000
0F800000
1F800000
3F000000
FFFFFFE0
FFFFFFE0
FFFFFFE0
FFFFFFE0
ENDCHAR
STARTCHAR 00A4
ENCODING 164
SWIDTH 600 0
DWIDTH 36 0
BBX 28 28 4 8
BITMAP
100000C0
380001C0
FC3FC3F0
7EFFF7E0
3FFFFFC0
1FFFFFC0
1FE07F80
0F801F00
1F000F80
1E000780
1E000780
3C0003C0
3C0003C0
3C0003C0
3C0003C0
3C0003C0
3C0003C0
1E000780
1E000780
0F000F80
0FC03F00
1FF9FF80
3FFFFFC0
7FFFFFE0
FCFFF7F0
781F83E0
300001C0
10000080
ENDCHAR
STARTCHAR 00A5
ENCODING 165
SWIDTH 600 0
DWIDTH 36 0
BBX 32 43 2 0
BITMAP
FC00003F
7C00003E
7E00007E
3E00007C
3F0000F8
1F0000F8
0F8001F0
0FC003F0
07C003E0
07E007E0
03E007C0
03F00FC0
01F00F80
01F81F80
00F81F00
00FC3E00
007C3E00
007E7C00
003E7C00
003FF800
001FF800
000FF000
07FFFFE0
07FFFFE0
07FFFFE0
07FFFFE0
0007E000
0007E000
0007E000
0007E000
0007E000
07FFFFE0
07FFFFE0
07FFFFE0
07FFFFE0
0007E000
0007E000
0007E000
0007E000
0007E000
0007E000
0007E000
0007E000
ENDCHAR
STARTCHAR 00A6
ENCODING 166
SWIDTH 600 0
DWIDTH 36 0
BBX 4 60 16 -14
BITMAP
F0
F0
F0
F0
F0
F0
F0
F0
F0
F0
F0
F0
F0
F0
F0
F0
F0
F0
F0
F0
F0
F0
F0
00
00
00
00
00
00
00
00
00
00
00
00
00
00
F0
F0
F0
F0
F0
F0
F0
F0
F0
F0
F0
F0
F0
F0
F0
F0
F0
F0
F0
F0
F0
F0
F0
ENDCHAR
STARTCHAR 00A7
ENCODING 167
SWIDTH 600 0
DWIDTH 36 0
BBX 22 47 7 -1
BITMAP
01FF80
0FFFF0
1FFFFC
3FFFF8
7FC7F8
7C0038
FC0008
F80000
F80000
FC0000
7C0000
7F0000
3FC000
3FF000
0FFE00
0FFF80
1FFFE0
3E3FF0
7C07F8
7801FC
F800FC
F0007C
F0003C
F0003C
F8003C
7C003C
7E007C
3F8078
1FE0F0
07FFF0
01FFC0
007FE0
000FF0
0003F8
0000FC
00007C
00007C
00007C
00007C
00007C
C000FC
F803FC
FFFFF8
FFFFF0
FFFFE0
3FFF80
00C000
ENDCHAR
STARTCHAR 00A8
ENCODING 168
SWIDTH 600 0
DWIDTH 36 0
BBX 20 7 8 38
BITMAP
7801E0
FC03F0
FC03F0
FC03F0
FC03F0
FC03F0
7801E0
ENDCHAR
STARTCHAR 00A9
ENCODING 169
SWIDTH 600 0
DWIDTH 36 0
BBX 30 31 3 6
BITMAP
001FE000
00FFFC00
03FFFF00
07E01F80
0F8007C0
1E0001E0
3C07E0F0
381FF878
703FF078
70783038
F0F0003C
E0E0001C
E1E0001C
E1E0001C
E1E0001C
E1E0001C
E1E0001C
E1E0001C
E1E0001C
E0E0001C
F0F0003C
70781038
707FF038
783FF078
3C0FE0F0
1E0001E0
1F0003C0
07E01F80
03FFFF00
00FFFC00
003FE000
ENDCHAR
STARTCHAR 00AA
ENCODING 170
SWIDTH 600 0
DWIDTH 36 0
BBX 17 20 9 23
BITMAP
0FF800
7FFE00
3FFF00
380F00
000700
000780
000780
000780
07FF80
3FFF80
7FFF80
780780
F00780
F00780
F00F80
F00F80
F81F80
7FFF80
3FF780
1FC380
ENDCHAR
STARTCHAR 00AB
ENCODING 171
SWIDTH 600 0
DWIDTH 36 0
BBX 26 26 5 3
BITMAP
00200200
00300700
00780F80
00FC0FC0
01F81F00
03F03F00
07E07E00
07C0FC00
0FC0F800
1F81F000
3F03F000
7E07E000
7C0FC000
FC0FC000
7E07E000
3F03E000
1F03F000
0F81F800
0FC0FC00
07E07E00
03F03E00
01F01F00
00F81F80
007C0FC0
00700700
00200200
ENDCHAR
STARTCHAR 00AC
ENCODING 172
SWIDTH 600 0
DWIDTH 36 0
BBX 27 15 4 8
BITMAP
FFFFFFE0
FFFFFFE0
FFFFFFE0
FFFFFFE0
000001E0
000001E0
000001E0
000001E0
000001E0
000001E0
000001E0
000001E0
000001E0
000001E0
000001E0
ENDCHAR
STARTCHAR 00AD
ENCODING 173
SWIDTH 600 0
DWIDTH 36 0
BBX 18 4 9 14
BITMAP
FFFFC0
FFFFC0
FFFFC0
FFFFC0
ENDCHAR
STARTCHAR 00AE
ENCODING 174
SWIDTH 600 0
DWIDTH 36 0
BBX 30 31 3 6
BITMAP
001FE000
00FFFC00
03FFFF00
07E01F80
0F8007C0
1E0001E0
3C3FC0F0
383FF078
703FF878
70387838
F038383C
E038381C
E038381C
E038381C
E038781C
E03FF01C
E03FE01C
E03FE01C
E038E01C
E038F01C
F038703C
70387838
70383C38
78381C78
3C381EF0
1E0001E0
1F0003C0
07E01F80
03FFFF00
00FFFC00
003FE000
ENDCHAR
STARTCHAR 00AF
ENCODING 175
SWIDTH 600 0
DWIDTH 36 0
BBX 18 4 9 37
BITMAP
FFFFC0
FFFFC0
FFFFC0
FFFFC0
ENDCHAR
STARTCHAR 00B0
ENCODING 176
SWIDTH 600 0
DWIDTH 36 0
BBX 18 18 9 25
BITMAP
03F000
0FFC00
1FFE00
3FFF00
7E0F80
780780
F003C0
F003C0
F003C0
F003C0
F003C0
F003C0
780780
7E0F80
3FFF00
1FFE00
0FFC00
03F000
ENDCHAR
STARTCHAR 00B1
ENCODING 177
SWIDTH 600 0
DWIDTH 36 0
BBX 26 36 5 0
BITMAP
001E0000
001E0000
001E0000
001E0000
001E0000
001E0000
001E0000
001E0000
001E0000
001E0000
001E0000
001E0000
001E0000
FFFFFFC0
FFFFFFC0
FFFFFFC0
FFFFFFC0
001E0000
001E0000
001E0000
001E0000
001E0000
001E0000
001E0000
001E0000
001E0000
001E0000
001E0000
00000000
00000000
00000000
00000000
FFFFFFC0
FFFFFFC0
FFFFFFC0
FFFFFFC0
ENDCHAR
STARTCHAR 00B2
ENCODING 178
SWIDTH 600 0
DWIDTH 36 0
BBX 18 26 9 25
BITMAP
03F800
1FFE00
3FFF00
7FFF80
780F80
300780
000780
000780
000780
000780
000F80
000F00
001E00
003E00
007C00
00F800
01F000
03E000
07C000
0F8000
1F0000
3E0000
7FFFC0
FFFFC0
FFFFC0
FFFFC0
ENDCHAR
STARTCHAR 00B3
ENCODING 179
SWIDTH 600 0
DWIDTH 36 0
BBX 18 27 9 24
BITMAP
008000
0FFC00
3FFE00
FFFF00
7C1F00
300F80
000F80
000780
000F80
000F80
001F00
0FFE00
0FFC00
0FFC00
0FFF00
001F80
000F80
0007C0
0007C0
0007C0
0007C0
800780
E00F80
FFFF00
FFFF00
7FFC00
0FF000
ENDCHAR
STARTCHAR 00B4
ENCODING 180
SWIDTH 600 0
DWIDTH 36 0
BBX 12 10 15 37
BITMAP
07F0
07F0
0FE0
0FC0
1F80
3F00
3E00
7C00
F800
F000
ENDCHAR
STARTCHAR 00B5
ENCODING 181
SWIDTH 600 0
DWIDTH 36 0
BBX 27 46 4 -14
BITMAP
FC0003E0
FC0003E0
FC0003E0
FC0003E0
FC0003E0
FC0003E0
FC0003E0
FC0003E0
FC0003E0
FC0003E0
FC0003E0
FC0003E0
FC0003E0
FC0003E0
FC0003E0
FC0003E0
FC0003E0
FC0003E0
FC0003E0
FC0003E0
FC0007E0
FC0007E0
FC0007E0
FC0007E0
FE000FE0
FE000FE0
FF001FE0
FF807FE0
FFFFFBE0
FFFFF3E0
FFFFE1E0
FFFF81E0
FC300000
FC000000
FC000000
FC000000
FC000000
FC000000
FC000000
FC000000
FC000000
FC000000
FC000000
FC000000
FC000000
FC000000
ENDCHAR
STARTCHAR 00B6
ENCODING 182
SWIDTH 600 0
DWIDTH 36 0
BBX 29 53 3 -7
BITMAP
00FFFFF8
03FFFFF8
0FFFFFF8
1FFFF038
3FFFF038
3FFFF038
7FFFF038
7FFFF038
7FFFF038
FFFFF038
FFFFF038
FFFFF038
FFFFF038
FFFFF038
FFFFF038
FFFFF038
FFFFF038
FFFFF038
FFFFF038
FFFFF038
FFFFF038
7FFFF038
7FFFF038
7FFFF038
3FFFF038
3FFFF038
1FFFF038
0FFFF038
03FFF038
0000F038
0000F038
0000F038
0000F038
0000F038
0000F038
0000F038
0000F038
0000F038
0000F038
0000F038
0000F038
0000F038
0000F038
0000F038
0000F038
0000F038
0000F038
0000F038
0000F038
0000F038
0000F038
0000F038
0000F038
ENDCHAR
STARTCHAR 00B7
ENCODING 183
SWIDTH 600 0
DWIDTH 36 0
BBX 8 9 14 16
BITMAP
10
7E
7E
FF
FF
FF
7E
7E
10
ENDCHAR
STARTCHAR 00B8
ENCODING 184
SWIDTH 600 0
DWIDTH 36 0
BBX 12 15 12 -14
BITMAP
0F00
0F00
0E00
1E00
1F80
3FC0
07E0
01F0
01F0
00F0
01F0
03E0
FFE0
FF80
FE00
ENDCHAR
STARTCHAR 00B9
ENCODING 185
SWIDTH 600 0
DWIDTH 36 0
BBX 18 26 9 25
BITMAP
00F000
03F000
0FF000
1FF000
7FF000
FEF000
78F000
70F000
00F000
00F000
00F000
00F000
00F000
00F000
00F000
00F000
00F000
00F000
00F000
00F000
00F000
00F000
3FFFC0
3FFFC0
3FFFC0
3FFFC0
ENDCHAR
STARTCHAR 00BA
ENCODING 186
SWIDTH 600 0
DWIDTH 36 0
BBX 18 20 9 23
BITMAP
03F000
0FFC00
1FFE00
3C0F00
780780
780780
700380
F003C0
F003C0
F003C0
F003C0
F003C0
F003C0
700380
780780
780780
3C0F00
1FFE00
0FFC00
03F000
ENDCHAR
STARTCHAR 00BB
ENCODING 187
SWIDTH 600 0
DWIDTH 36 0
BBX 26 26 5 3
BITMAP
10010000
38038000
FC0FC000
7E07C000
3F03E000
1F03F000
0F81F800
0FC0FC00
07E07C00
03F03E00
01F03F00
00F81F80
00FC0FC0
00FC0F80
01F81F80
03F03F00
03E07E00
07E0FC00
0FC0F800
1F81F800
3F03F000
3E07E000
7C0FC000
FC078000
38038000
10010000
ENDCHAR
STARTCHAR 00BC
ENCODING 188
SWIDTH 600 0
DWIDTH 36 0
BBX 34 42 0 1
BITMAP
03C0001F00
0FC0003E00
3FC0003C00
FFC0007C00
7DC0007800
79C000F800
21C000F000
01C001F000
01C001E000
01C003E000
01C003C000
01C007C000
01C0078000
01C00F8000
01C00F0000
01C01F0000
01C01E0000
01C03E0000
3FFE3C0000
3FFE7C0000
3FFEF80000
0000F80000
0001F01E00
0001E03E00
0003E03E00
0003C07E00
0007C0FE00
000781EE00
000F81EE00
000F03DE00
001F079E00
001E079E00
003E0F1E00
003C1E1E00
007C1E1E00
00783FFFC0
00F83FFFC0
00F03FFFC0
01F0001E00
01E0001E00
03E0001E00
07C0001E00
ENDCHAR
STARTCHAR 00BD
ENCODING 189
SWIDTH 600 0
DWIDTH 36 0
BBX 34 43 0 0
BITMAP
03C0001F00
0FC0003E00
3FC0003C00
FFC0007C00
7DC0007800
79C000F800
21C000F000
01C001F000
01C001E000
01C003E000
01C003C000
01C007C000
01C0078000
01C00F8000
01C00F0000
01C01F0000
01C01E0000
01C03E0000
3FFE3C0000
3FFE7C0000
3FFE780000
0000F8FC00
0000F3FF00
0001F7FF80
0001EFFF80
0003E787C0
0007C203C0
0007C003C0
000F8003C0
000F8003C0
001F000780
001F000F80
003E001F00
003E003E00
007C007C00
007800F800
00F801F000
00F003E000
01F007C000
01E00FFFC0
03E00FFFC0
03C00FFFC0
07C00FFFC0
ENDCHAR
STARTCHAR 00BE
ENCODING 190
SWIDTH 600 0
DWIDTH 36 0
BBX 33 43 1 1
BITMAP
1FC0003E00
7FF0003C00
FFF8007C00
787C007800
203C00F800
003C00F000
003C01F000
007C01E000
00F803E000
1FF003C000
1FF007C000
1FF80F8000
007C0F8000
003C1F0000
003E1F0000
003E3E0000
003E3C0000
803C7C0000
607C780000
7FF8F80000
7FF0F00000
3FC1F00000
0001E00000
0003E03C00
0003C07C00
0007C0FC00
000780FC00
000F81FC00
000F03DC00
001F03DC00
001E07BC00
003E0F3C00
003C0F3C00
007C1E3C00
00783C3C00
00F83C3C00
00F07FFF80
01F07FFF80
01E07FFF80
03E0003C00
03C0003C00
07C0003C00
0F80003C00
ENDCHAR
STARTCHAR 00BF
ENCODING 191
SWIDTH 600 0
DWIDTH 36 0
BBX 25 45 4 -12
BITMAP
00020000
001F8000
001FC000
001FC000
003FC000
001FC000
001FC000
001F8000
00020000
00000000
00000000
00000000
00000000
000F8000
000F8000
000F8000
000F8000
001F0000
001F0000
003F0000
007E0000
01FC0000
03F80000
07F00000
0FE00000
1FC00000
3F000000
7E000000
7E000000
7C000000
FC000000
F8000000
F8000000
F8000000
F8000000
F8000000
FC000000
FC000100
7E000700
7F803F00
3FFFFF80
1FFFFF80
07FFFE00
01FFF000
000C0000
ENDCHAR
STARTCHAR 00C0
ENCODING 192
SWIDTH 600 0
DWIDTH 36 0
BBX 34 58 1 0
BITMAP
007E000000
007F000000
003F800000
001F800000
000FC00000
0007C00000
0003E00000
0001F00000
0000F80000
0000780000
0000000000
0000000000
0000000000
0000000000
0000000000
0003F00000
0003F00000
0007F80000
0007F80000
0007F80000
000FFC0000
000FFC0000
000FFC0000
001F3E0000
001F3E0000
001F3E0000
003E3F0000
003E1F0000
003E1F0000
007E1F8000
007C0F8000
007C0F8000
00FC0F8000
00F807C000
00F807C000
01F807C000
01F003E000
01F003E000
03F003E000
03E001F000
03FFFFF000
03FFFFF000
07FFFFF800
07FFFFF800
07C000F800
0F80007C00
0F80007C00
0F80007C00
1F80007E00
1F00003E00
1F00003E00
3F00003F00
3E00001F00
3E00001F00
7E00001F80
7C00000F80
7C00000F80
FC00000FC0
ENDCHAR
STARTCHAR 00C1
ENCODING 193
SWIDTH 600 0
DWIDTH 36 0
BBX 34 58 1 0
BITMAP
00000FE000
00000FC000
00001FC000
00001F8000
00003F0000
00007E0000
00007C0000
0000F80000
0001F00000
0001E00000
0000000000
0000000000
0000000000
0000000000
0000000000
0003F00000
0003F00000
0007F80000
0007F80000
0007F80000
000FFC0000
000FFC0000
000FFC0000
001F3E0000
001F3E0000
001F3E0000
003E3F0000
003E1F0000
003E1F0000
007E1F8000
007C0F8000
007C0F8000
00FC0F8000
00F807C000
00F807C000
01F807C000
01F003E000
01F003E000
03F003E000
03E001F000
03FFFFF000
03FFFFF000
07FFFFF800
07FFFFF800
07C000F800
0F80007C00
0F80007C00
0F80007C00
1F80007E00
1F00003E00
1F00003E00
3F00003F00
3E00001F00
3E00001F00
7E00001F80
7C00000F80
7C00000F80
FC00000FC0
ENDCHAR
STARTCHAR 00C2
ENCODING 194
SWIDTH 600 0
DWIDTH 36 0
BBX 34 58 1 0
BITMAP
0003F00000
0003F00000
0007F80000
000FFC0000
001FFE0000
003F3E0000
003E1F0000
007C0F8000
00F807C000
01E001E000
0000000000
0000000000
0000000000
0000000000
0000000000
0003F00000
0003F00000
0007F80000
0007F80000
0007F80000
000FFC0000
000FFC0000
000FFC0000
001F3E0000
001F3E0000
001F3E0000
003E3F0000
003E1F0000
003E1F0000
007E1F8000
007C0F8000
007C0F8000
00FC0F8000
00F807C000
00F807C000
01F807C000
01F003E000
01F003E000
03F003E000
03E001F000
03FFFFF000
03FFFFF000
07FFFFF800
07FFFFF800
07C000F800
0F80007C00
0F80007C00
0F80007C00
1F80007E00
1F00003E00
1F00003E00
3F00003F00
3E00001F00
3E00001F00
7E00001F80
7C00000F80
7C00000F80
FC00000FC0
ENDCHAR
STARTCHAR 00C3
ENCODING 195
SWIDTH 600 0
DWIDTH 36 0
BBX 34 56 1 0
BITMAP
003E007000
007F80F000
00FFE0E000
01FFFBE000
01F7FFE000
01C0FFC000
03C07F8000
03801F0000
0000000000
0000000000
0000000000
0000000000
0000000000
0003F00000
0003F00000
0007F80000
0007F80000
0007F80000
000FFC0000
000FFC0000
000FFC0000
001F3E0000
001F3E0000
001F3E0000
003E3F0000
003E1F0000
003E1F0000
007E1F8000
007C0F8000
007C0F8000
00FC0F8000
00F807C000
00F807C000
01F807C000
01F003E000
01F003E000
03F003E000
03E001F000
03FFFFF000
03FFFFF000
07FFFFF800
07FFFFF800
07C000F800
0F80007C00
0F80007C00
0F80007C00
1F80007E00
1F00003E00
1F00003E00
3F00003F00
3E00001F00
3E00001F00
7E00001F80
7C00000F80
7C00000F80
FC00000FC0
ENDCHAR
STARTCHAR 00C4
ENCODING 196
SWIDTH 600 0
DWIDTH 36 0
BBX 34 56 1 0
BITMAP
00F003C000
01F807E000
01F807E000
01F807E000
01F807E000
01F807E000
00F003C000
0000000000
0000000000
0000000000
0000000000
0000000000
0000000000
0003F00000
0003F00000
0007F80000
0007F80000
0007F80000
000FFC0000
000FFC0000
000FFC0000
001F3E0000
001F3E0000
001F3E0000
003E3F0000
003E1F0000
003E1F0000
007E1F8000
007C0F8000
007C0F8000
00FC0F8000
00F807C000
00F807C000
01F807C000
01F003E000
01F003E000
03F003E000
03E001F000
03FFFFF000
03FFFFF000
07FFFFF800
07FFFFF800
07C000F800
0F80007C00
0F80007C00
0F80007C00
1F80007E00
1F00003E00
1F00003E00
3F00003F00
3E00001F00
3E00001F00
7E00001F80
7C00000F80
7C00000F80
FC00000FC0
ENDCHAR
STARTCHAR 00C5
ENCODING 197
SWIDTH 600 0
DWIDTH 36 0
BBX 34 61 1 0
BITMAP
0003F00000
000FF80000
001FFC0000
001E1E0000
001C0E0000
003C0F0000
003C0F0000
003C0F0000
001C0E0000
001E1E0000
000FFC0000
000FF80000
0003F00000
0000000000
0000000000
0000000000
0000000000
0000000000
0003F00000
0003F00000
0007F80000
0007F80000
0007F80000
000FFC0000
000FFC0000
000FFC0000
001F3E0000
001F3E0000
001F3E0000
003E3F0000
003E1F0000
003E1F0000
007E1F8000
007C0F8000
007C0F8000
00FC0F8000
00F807C000
00F807C000
01F807C000
01F003E000
01F003E000
03F003E000
03E001F000
03FFFFF000
03FFFFF000
07FFFFF800
07FFFFF800
07C000F800
0F80007C00
0F80007C00
0F80007C00
1F80007E00
1F00003E00
1F00003E00
3F00003F00
3E00001F00
3E00001F00
7E00001F80
7C00000F80
7C00000F80
FC00000FC0
ENDCHAR
STARTCHAR 00C6
ENCODING 198
SWIDTH 600 0
DWIDTH 36 0
BBX 32 43 1 0
BITMAP
003FFFFF
007FFFFF
007FFFFF
007FFFFF
007CF800
0078F800
00F8F800
00F8F800
00F8F800
00F0F800
01F0F800
01F0F800
01F0F800
01F0F800
01E0F800
03E0F800
03E0F800
03E0F800
03E0FFFC
07C0FFFC
07C0FFFC
07C0FFFC
07C0F800
07C0F800
0F80F800
0FFFF800
0FFFF800
0FFFF800
1FFFF800
1F00F800
1F00F800
1F00F800
1F00F800
3E00F800
3E00F800
3E00F800
3E00F800
7E00F800
7C00F800
7C00FFFF
7C00FFFF
7C00FFFF
FC00FFFF
ENDCHAR
STARTCHAR 00C7
ENCODING 199
SWIDTH 600 0
DWIDTH 36 0
BBX 29 58 4 -14
BITMAP
00002000
000FFFC0
007FFFF0
00FFFFF8
01FFFFF0
07FC01F0
07F00020
0FE00000
1FC00000
1F800000
3F000000
3F000000
7E000000
7E000000
7C000000
7C000000
FC000000
FC000000
FC000000
FC000000
FC000000
F8000000
F8000000
F8000000
FC000000
FC000000
FC000000
FC000000
FC000000
7C000000
7C000000
7E000000
7E000000
3E000000
3F000000
3F000000
1F800000
0FC00000
0FF00020
07FC01E0
03FFFFE0
01FFFFE0
007FFFE0
001FFFC0
0001E000
0003C000
0003C000
0003F000
0007F800
0000FC00
00003E00
00003E00
00003E00
00003E00
00007C00
001FF800
001FF000
001FC000
ENDCHAR
STARTCHAR 00C8
ENCODING 200
SWIDTH 600 0
DWIDTH 36 0
BBX 25 58 6 0
BITMAP
0FE00000
07E00000
07F00000
03F00000
01F80000
00FC0000
007C0000
003E0000
001F0000
000F8000
00000000
00000000
00000000
00000000
00000000
FFFFFF80
FFFFFF80
FFFFFF80
FFFFFF80
F8000000
F8000000
F8000000
F8000000
F8000000
F8000000
F8000000
F8000000
F8000000
F8000000
F8000000
F8000000
F8000000
F8000000
FFFFFF00
FFFFFF00
FFFFFF00
FFFFFF00
F8000000
F8000000
F8000000
F8000000
F8000000
F8000000
F8000000
F8000000
F8000000
F8000000
F8000000
F8000000
F8000000
F8000000
F8000000
F8000000
F8000000
FFFFFF80
FFFFFF80
FFFFFF80
FFFFFF80
ENDCHAR
STARTCHAR 00C9
ENCODING 201
SWIDTH 600 0
DWIDTH 36 0
BBX 25 58 6 0
BITMAP
0000FC00
0001FC00
0003F800
0003F000
0007E000
0007C000
000F8000
001F0000
003E0000
003C0000
00000000
00000000
00000000
00000000
00000000
FFFFFF80
FFFFFF80
FFFFFF80
FFFFFF80
F8000000
F8000000
F8000000
F8000000
F8000000
F8000000
F8000000
F8000000
F8000000
F8000000
F8000000
F8000000
F8000000
F8000000
FFFFFF00
FFFFFF00
FFFFFF00
FFFFFF00
F8000000
F8000000
F8000000
F8000000
F8000000
F8000000
F8000000
F8000000
F8000000
F8000000
F8000000
F8000000
F8000000
F8000000
F8000000
F8000000
F8000000
FFFFFF80
FFFFFF80
FFFFFF80
FFFFFF80
ENDCHAR
STARTCHAR 00CA
ENCODING 202
SWIDTH 600 0
DWIDTH 36 0
BBX 25 58 6 0
BITMAP
003E0000
007F0000
00FF0000
01FF8000
01FFC000
03E7E000
07C3F000
0F80F800
1F007C00
3E003E00
00000000
00000000
00000000
00000000
00000000
FFFFFF80
FFFFFF80
FFFFFF80
FFFFFF80
F8000000
F8000000
F8000000
F8000000
F8000000
F8000000
F8000000
F8000000
F8000000
F8000000
F8000000
F8000000
F8000000
F8000000
FFFFFF00
FFFFFF00
FFFFFF00
FFFFFF00
F8000000
F8000000
F8000000
F8000000
F8000000
F8000000
F8000000
F8000000
F8000000
F8000000
F8000000
F8000000
F8000000
F8000000
F8000000
F8000000
F8000000
FFFFFF80
FFFFFF80
FFFFFF80
FFFFFF80
ENDCHAR
STARTCHAR 00CB
ENCODING 203
SWIDTH 600 0
DWIDTH 36 0
BBX 25 56 6 0
BITMAP
0E007800
1F00FC00
3F80FC00
3F80FE00
3F80FC00
1F00FC00
0E007800
00000000
00000000
00000000
00000000
00000000
00000000
FFFFFF80
FFFFFF80
FFFFFF80
FFFFFF80
F8000000
F8000000
F8000000
F8000000
F8000000
F8000000
F8000000
F8000000
F8000000
F8000000
F8000000
F8000000
F8000000
F8000000
FFFFFF00
FFFFFF00
FFFFFF00
FFFFFF00
F8000000
F8000000
F8000000
F8000000
F8000000
F8000000
F8000000
F8000000
F8000000
F8000000
F8000000
F8000000
F8000000
F8000000
F8000000
F8000000
F8000000
FFFFFF80
FFFFFF80
FFFFFF80
FFFFFF80
ENDCHAR
STARTCHAR 00CC
ENCODING 204
SWIDTH 600 0
DWIDTH 36 0
BBX 22 58 7 0
BITMAP
1F8000
1FC000
0FE000
07E000
03F000
01F000
00F800
007C00
003E00
001E00
000000
000000
000000
000000
000000
FFFFFC
FFFFFC
FFFFFC
FFFFFC
3FFFE0
00FC00
00FC00
00FC00
00FC00
00FC00
00FC00
00FC00
00FC00
00FC00
00FC00
00FC00
00FC00
00FC00
00FC00
00FC00
00FC00
00FC00
00FC00
00FC00
00FC00
00FC00
00FC00
00FC00
00FC00
00FC00
00FC00
00FC00
00FC00
00FC00
00FC00
00FC00
00FC00
00FC00
00FC00
FFFFFC
FFFFFC
FFFFFC
FFFFFC
ENDCHAR
STARTCHAR 00CD
ENCODING 205
SWIDTH 600 0
DWIDTH 36 0
BBX 22 58 7 0
BITMAP
0003F8
0003F0
0007F0
0007E0
000FC0
001F80
001F00
003E00
007C00
007800
000000
000000
000000
000000
000000
FFFFFC
FFFFFC
FFFFFC
FFFFFC
3FFFE0
00FC00
00FC00
00FC00
00FC00
00FC00
00FC00
00FC00
00FC00
00FC00
00FC00
00FC00
00FC00
00FC00
00FC00
00FC00
00FC00
00FC00
00FC00
00FC00
00FC00
00FC00
00FC00
00FC00
00FC00
00FC00
00FC00
00FC00
00FC00
00FC00
00FC00
00FC00
00FC00
00FC00
00FC00
FFFFFC
FFFFFC
FFFFFC
FFFFFC
ENDCHAR
STARTCHAR 00CE
ENCODING 206
SWIDTH 600 0
DWIDTH 36 0
BBX 22 58 7 0
BITMAP
00FC00
00FC00
01FE00
03FF00
07FF80
0FCF80
0F87C0
1F03E0
3E01F0
780078
000000
000000
000000
000000
000000
FFFFFC
FFFFFC
FFFFFC
FFFFFC
3FFFE0
00FC00
00FC00
00FC00
00FC00
00FC00
00FC00
00FC00
00FC00
00FC00
00FC00
00FC00
00FC00
00FC00
00FC00
00FC00
00FC00
00FC00
00FC00
00FC00
00FC00
00FC00
00FC00
00FC00
00FC00
00FC00
00FC00
00FC00
00FC00
00FC00
00FC00
00FC00
00FC00
00FC00
00FC00
FFFFFC
FFFFFC
FFFFFC
FFFFFC
ENDCHAR
STARTCHAR 00CF
ENCODING 207
SWIDTH 600 0
DWIDTH 36 0
BBX 22 56 7 0
BITMAP
3C00F0
7E01F8
7E01F8
7E01F8
7E01F8
7E01F8
3C00F0
000000
000000
000000
000000
000000
000000
FFFFFC
FFFFFC
FFFFFC
FFFFFC
3FFFE0
00FC00
00FC00
00FC00
00FC00
00FC00
00FC00
00FC00
00FC00
00FC00
00FC00
00FC00
00FC00
00FC00
00FC00
00FC00
00FC00
00FC00
00FC00
00FC00
00FC00
00FC00
00FC00
00FC00
00FC00
00FC00
00FC00
00FC00
00FC00
00FC00
00FC00
00FC00
00FC00
00FC00
00FC00
FFFFFC
FFFFFC
FFFFFC
FFFFFC
ENDCHAR
STARTCHAR 00D0
ENCODING 208
SWIDTH 600 0
DWIDTH 36 0
BBX 34 43 0 0
BITMAP
07FFF00000
07FFFE0000
07FFFF8000
07FFFFE000
07C0FFF000
07C00FF800
07C003FC00
07C000FC00
07C0007E00
07C0007F00
07C0003F00
07C0001F00
07C0001F80
07C0001F80
07C0000F80
07C0000F80
07C0000FC0
07C0000FC0
07C0000FC0
07C0000FC0
FFFFC00FC0
FFFFC00FC0
FFFFC00FC0
FFFFC00FC0
07C0000FC0
07C0000FC0
07C0000FC0
07C0000F80
07C0000F80
07C0001F80
07C0001F80
07C0003F00
07C0003F00
07C0007E00
07C000FE00
07C001FC00
07C003FC00
07C00FF800
07C1FFF000
07FFFFC000
07FFFF8000
07FFFE0000
07FFE00000
ENDCHAR
STARTCHAR 00D1
ENCODING 209
SWIDTH 600 0
DWIDTH 36 0
BBX 28 56 4 0
BITMAP
00F80380
03FC0380
07FF0780
07FFDF00
0FBFFF00
0F07FE00
0E03FC00
0E00F800
10000000
00000000
00000000
00000000
00000000
FF0001F0
FF0001F0
FF0001F0
FF8001F0
FF8001F0
FFC001F0
FFC001F0
FBE001F0
FBE001F0
FBE001F0
F9F001F0
F9F001F0
F8F801F0
F8F801F0
F87C01F0
F87C01F0
F83E01F0
F83E01F0
F83E01F0
F81F01F0
F81F01F0
F80F81F0
F80F81F0
F807C1F0
F807C1F0
F803C1F0
F803E1F0
F803E1F0
F801F1F0
F801F1F0
F800F9F0
F800F9F0
F80079F0
F8007DF0
F8007DF0
F8003FF0
F8003FF0
F8001FF0
F8001FF0
F8000FF0
F8000FF0
F80007F0
F80007F0
ENDCHAR
STARTCHAR 00D2
ENCODING 210
SWIDTH 600 0
DWIDTH 36 0
BBX 30 59 3 -1
BITMAP
01F80000
01FC0000
00FE0000
007E0000
003F0000
001F0000
000F8000
0007C000
0003E000
0001E000
00000000
00000000
00000000
00000000
00020000
007FF800
01FFFE00
03FFFF00
07FFFF80
0FF03FC0
1FC00FE0
1F8007E0
3F0003F0
3E0001F0
7E0001F8
7E0001F8
7C0000F8
7C0000F8
FC0000FC
FC0000FC
FC0000FC
F800007C
F800007C
F800007C
F800007C
F800007C
F800007C
F800007C
F800007C
F800007C
F800007C
F800007C
FC0000FC
FC0000FC
FC0000FC
7C0000F8
7C0000F8
7E0001F8
7E0001F8
3E0001F0
3F0003F0
1F8007E0
1FC00FE0
0FF03FC0
07FFFF80
03FFFF00
01FFFE00
007FF800
00030000
ENDCHAR
STARTCHAR 00D3
ENCODING 211
SWIDTH 600 0
DWIDTH 36 0
BBX 30 59 3 -1
BITMAP
00003F80
00003F00
00007F00
00007E00
0000FC00
0001F800
0001F000
0003E000
0007C000
00078000
00000000
00000000
00000000
00000000
00020000
007FF800
01FFFE00
03FFFF00
07FFFF80
0FF03FC0
1FC00FE0
1F8007E0
3F0003F0
3E0001F0
7E0001F8
7E0001F8
7C0000F8
7C0000F8
FC0000FC
FC0000FC
FC0000FC
F800007C
F800007C
F800007C
F800007C
F800007C
F800007C
F800007C
F800007C
F800007C
F800007C
F800007C
FC0000FC
FC0000FC
FC0000FC
7C0000F8
7C0000F8
7E0001F8
7E0001F8
3E0001F0
3F0003F0
1F8007E0
1FC00FE0
0FF03FC0
07FFFF80
03FFFF00
01FFFE00
007FF800
00030000
ENDCHAR
STARTCHAR 00D4
ENCODING 212
SWIDTH 600 0
DWIDTH 36 0
BBX 30 59 3 -1
BITMAP
000FC000
000FC000
001FE000
003FF000
007FF800
00FCF800
00F87C00
01F03E00
03E01F00
07800780
00000000
00000000
00000000
00000000
00020000
007FF800
01FFFE00
03FFFF00
07FFFF80
0FF03FC0
1FC00FE0
1F8007E0
3F0003F0
3E0001F0
7E0001F8
7E0001F8
7C0000F8
7C0000F8
FC0000FC
FC0000FC
FC0000FC
F800007C
F800007C
F800007C
F800007C
F800007C
F800007C
F800007C
F800007C
F800007C
F800007C
F800007C
FC0000FC
FC0000FC
FC0000FC
7C0000F8
7C0000F8
7E0001F8
7E0001F8
3E0001F0
3F0003F0
1F8007E0
1FC00FE0
0FF03FC0
07FFFF80
03FFFF00
01FFFE00
007FF800
00030000
ENDCHAR
STARTCHAR 00D5
ENCODING 213
SWIDTH 600 0
DWIDTH 36 0
BBX 30 57 3 -1
BITMAP
00F801C0
01FE03C0
03FF8380
07FFEF80
07DFFF80
0703FF00
0F01FE00
0E007C00
00000000
00000000
00000000
00000000
00020000
007FF800
01FFFE00
03FFFF00
07FFFF80
0FF03FC0
1FC00FE0
1F8007E0
3F0003F0
3E0001F0
7E0001F8
7E0001F8
7C0000F8
7C0000F8
FC0000FC
FC0000FC
FC0000FC
F800007C
F800007C
F800007C
F800007C
F800007C
F800007C
F800007C
F800007C
F800007C
F800007C
F800007C
FC0000FC
FC0000FC
FC0000FC
7C0000F8
7C0000F8
7E0001F8
7E0001F8
3E0001F0
3F0003F0
1F8007E0
1FC00FE0
0FF03FC0
07FFFF80
03FFFF00
01FFFE00
007FF800
00030000
ENDCHAR
STARTCHAR 00D6
ENCODING 214
SWIDTH 600 0
DWIDTH 36 0
BBX 30 57 3 -1
BITMAP
03C00F00
07E01F80
07E01F80
07E01F80
07E01F80
07E01F80
03C00F00
00000000
00000000
00000000
00000000
00000000
00020000
007FF800
01FFFE00
03FFFF00
07FFFF80
0FF03FC0
1FC00FE0
1F8007E0
3F0003F0
3E0001F0
7E0001F8
7E0001F8
7C0000F8
7C0000F8
FC0000FC
FC0000FC
FC0000FC
F800007C
F800007C
F800007C
F800007C
F800007C
F800007C
F800007C
F800007C
F800007C
F800007C
F800007C
FC0000FC
FC0000FC
FC0000FC
7C0000F8
7C0000F8
7E0001F8
7E0001F8
3E0001F0
3F0003F0
1F8007E0
1FC00FE0
0FF03FC0
07FFFF80
03FFFF00
01FFFE00
007FF800
00030000
ENDCHAR
STARTCHAR 00D7
ENCODING 215
SWIDTH 600 0
DWIDTH 36 0
BBX 26 26 5 8
BITMAP
10000300
38000780
FC000FC0
7E001F80
3F003F00
1F807E00
0FC0FC00
07E1F800
03F3F000
01FFE000
00FFC000
007F8000
003F0000
007F8000
00FFC000
01FFE000
03F3F000
07E1F800
0FC0FC00
1F807E00
3F003F00
7E001F80
FC000FC0
78000780
30000300
10000200
ENDCHAR
STARTCHAR 00D8
ENCODING 216
SWIDTH 600 0
DWIDTH 36 0
BBX 30 47 3 -2
BITMAP
00000020
00020078
007FF87C
01FFFEF8
03FFFFF8
07FFFFF0
0FF03FF0
1FC00FE0
1F8007E0
3F0007F0
3F000FF0
7E000FF8
7E001FF8
7C003FF8
7C003EF8
FC007CFC
FC007CFC
FC00F8FC
F800F87C
F801F07C
F801F07C
F803E07C
F807E07C
F807C07C
F80F807C
F80F807C
F81F007C
F81F007C
F83E007C
FC7E00FC
FC7C00FC
FCF800FC
7CF800F8
7DF000F8
7FF001F8
7FE001F8
3FE001F0
3FC003F0
1F8007E0
1FC00FE0
1FF03FC0
1FFFFF80
3FFFFF00
7FFFFE00
7C7FF800
F8030000
18000000
ENDCHAR
STARTCHAR 00D9
ENCODING 217
SWIDTH 600 0
DWIDTH 36 0
BBX 28 59 4 -1
BITMAP
03F00000
03F80000
01FC0000
00FC0000
007E0000
003E0000
001F0000
000F8000
0007C000
0003C000
00000000
00000000
00000000
00000000
00000000
FC0003F0
FC0003F0
FC0003F0
FC0003F0
FC0003F0
FC0003F0
FC0003F0
FC0003F0
FC0003F0
FC0003F0
FC0003F0
FC0003F0
FC0003F0
FC0003F0
FC0003F0
FC0003F0
FC0003F0
FC0003F0
FC0003F0
FC0003F0
FC0003F0
FC0003F0
FC0003F0
FC0003F0
FC0003F0
FC0003F0
FC0003F0
FC0003F0
FC0003F0
FC0003F0
FC0003F0
FC0003F0
7C0003E0
7C0003E0
7E0007E0
7E0007E0
3F000FC0
3F801FC0
1FC03F80
0FFFFF00
07FFFE00
03FFFC00
00FFF000
00060000
ENDCHAR
STARTCHAR 00DA
ENCODING 218
SWIDTH 600 0
DWIDTH 36 0
BBX 28 59 4 -1
BITMAP
00007F00
00007E00
0000FE00
0000FC00
0001F800
0003F000
0003E000
0007C000
000F8000
000F0000
00000000
00000000
00000000
00000000
00000000
FC0003F0
FC0003F0
FC0003F0
FC0003F0
FC0003F0
FC0003F0
FC0003F0
FC0003F0
FC0003F0
FC0003F0
FC0003F0
FC0003F0
FC0003F0
FC0003F0
FC0003F0
FC0003F0
FC0003F0
FC0003F0
FC0003F0
FC0003F0
FC0003F0
FC0003F0
FC0003F0
FC0003F0
FC0003F0
FC0003F0
FC0003F0
FC0003F0
FC0003F0
FC0003F0
FC0003F0
FC0003F0
7C0003E0
7C0003E0
7E0007E0
7E0007E0
3F000FC0
3F801FC0
1FC03F80
0FFFFF00
07FFFE00
03FFFC00
00FFF000
00060000
ENDCHAR
STARTCHAR 00DB
ENCODING 219
SWIDTH 600 0
DWIDTH 36 0
BBX 28 59 4 -1
BITMAP
001F8000
001F8000
003FC000
007FE000
00FFF000
01F9F000
01F0F800
03E07C00
07C03E00
0F000F00
00000000
00000000
00000000
00000000
00000000
FC0003F0
FC0003F0
FC0003F0
FC0003F0
FC0003F0
FC0003F0
FC0003F0
FC0003F0
FC0003F0
FC0003F0
FC0003F0
FC0003F0
FC0003F0
FC0003F0
FC0003F0
FC0003F0
FC0003F0
FC0003F0
FC0003F0
FC0003F0
FC0003F0
FC0003F0
FC0003F0
FC0003F0
FC0003F0
FC0003F0
FC0003F0
FC0003F0
FC0003F0
FC0003F0
FC0003F0
FC0003F0
7C0003E0
7C0003E0
7E0007E0
7E0007E0
3F000FC0
3F801FC0
1FC03F80
0FFFFF00
07FFFE00
03FFFC00
00FFF000
00060000
ENDCHAR
STARTCHAR 00DC
ENCODING 220
SWIDTH 600 0
DWIDTH 36 0
BBX 28 57 4 -1
BITMAP
07801E00
0FC03F00
0FC03F00
0FC03F00
0FC03F00
0FC03F00
07801E00
00000000
00000000
00000000
00000000
00000000
00000000
FC0003F0
FC0003F0
FC0003F0
FC0003F0
FC0003F0
FC0003F0
FC0003F0
FC0003F0
FC0003F0
FC0003F0
FC0003F0
FC0003F0
FC0003F0
FC0003F0
FC0003F0
FC0003F0
FC0003F0
FC0003F0
FC0003F0
FC0003F0
FC0003F0
FC0003F0
FC0003F0
FC0003F0
FC0003F0
FC0003F0
FC0003F0
FC0003F0
FC0003F0
FC0003F0
FC0003F0
FC0003F0
7C0003E0
7C0003E0
7E0007E0
7E0007E0
3F000FC0
3F801FC0
1FC03F80
0FFFFF00
07FFFE00
03FFFC00
00FFF000
00060000
ENDCHAR
STARTCHAR 00DD
ENCODING 221
SWIDTH 600 0
DWIDTH 36 0
BBX 32 58 2 0
BITMAP
00001FC0
00001F80
00003F80
00003F00
00007E00
0000FC00
0000F800
0001F000
0003E000
0003C000
00000000
00000000
00000000
00000000
00000000
FC00003F
7E00007E
7E00007E
3F00007C
3F0000FC
1F8000F8
1F8001F8
0F8001F0
0FC003F0
07C003E0
07E007E0
03E007C0
03F00FC0
01F00F80
01F81F80
00F81F00
00FC1F00
007C3E00
007C3E00
003E7C00
003E7C00
001FF800
001FF800
000FF000
000FF000
0007E000
0007E000
0007E000
0007E000
0007E000
0007E000
0007E000
0007E000
0007E000
0007E000
0007E000
0007E000
0007E000
0007E000
0007E000
0007E000
0007E000
0007E000
ENDCHAR
STARTCHAR 00DE
ENCODING 222
SWIDTH 600 0
DWIDTH 36 0
BBX 27 43 6 0
BITMAP
F8000000
F8000000
F8000000
F8000000
F8000000
F8000000
F8000000
F8000000
FFFF8000
FFFFF000
FFFFFC00
FFFFFE00
F807FF00
F8007F80
F8001FC0
F8000FC0
F8000FC0
F80007C0
F80007E0
F80007E0
F80007E0
F80007E0
F80007E0
F80007C0
F80007C0
F8000FC0
F8000F80
F8001F80
F8007F00
F80FFF00
FFFFFE00
FFFFF800
FFFFF000
FFFF8000
F8000000
F8000000
F8000000
F8000000
F8000000
F8000000
F8000000
F8000000
F8000000
ENDCHAR
STARTCHAR 00DF
ENCODING 223
SWIDTH 600 0
DWIDTH 36 0
BBX 31 47 4 -1
BITMAP
007FE000
03FFFC00
0FFFFF00
1FFFFF80
3FF1FF80
3F801FC0
7E000FC0
7E0007E0
7C0007E0
7C0007E0
FC0007C0
FC0007C0
FC000FC0
FC001F80
FC003F00
FC00FE00
FC01FC00
FC03F800
FC03F000
FC07E000
FC07C000
FC07C000
FC07C000
FC07E000
FC03F800
FC03FC00
FC01FF00
FC00FF80
FC003FC0
FC001FE0
FC0007F0
FC0003F8
FC0001FC
FC0000FC
FC00007C
FC00007C
FC00007E
FC00007C
FC00007C
FC00007C
FC1000FC
FC1E01FC
FC1FFFF8
FC1FFFF0
FC1FFFE0
FC07FF80
00003000
ENDCHAR
STARTCHAR 00E0
ENCODING 224
SWIDTH 600 0
DWIDTH 36 0
BBX 27 48 4 -1
BITMAP
03F80000
01F80000
01FC0000
00FC0000
007E0000
003F0000
001F0000
000F8000
0007C000
0003E000
00000000
00000000
00000000
00000000
00040000
01FFF000
0FFFFC00
3FFFFF00
1FFFFF80
0F803F80
0C000FC0
000007C0
000007C0
000007C0
000003E0
000003E0
000003E0
007FFFE0
03FFFFE0
0FFFFFE0
1FFFFFE0
3FFE03E0
7F8003E0
7E0003E0
7C0003E0
FC0003E0
F80007E0
F80007E0
F80007E0
F8000FE0
FC001FE0
7E003FE0
7F00FBE0
3FFFFBE0
3FFFF3E0
0FFFC3E0
07FF03E0
00200000
ENDCHAR
STARTCHAR 00E1
ENCODING 225
SWIDTH 600 0
DWIDTH 36 0
BBX 27 48 4 -1
BITMAP
00003F00
00007F00
0000FE00
0000FC00
0001F800
0001F000
0003E000
0007C000
000F8000
000F0000
00000000
00000000
00000000
00000000
00040000
01FFF000
0FFFFC00
3FFFFF00
1FFFFF80
0F803F80
0C000FC0
000007C0
000007C0
000007C0
000003E0
000003E0
000003E0
007FFFE0
03FFFFE0
0FFFFFE0
1FFFFFE0
3FFE03E0
7F8003E0
7E0003E0
7C0003E0
FC0003E0
F80007E0
F80007E0
F80007E0
F8000FE0
FC001FE0
7E003FE0
7F00FBE0
3FFFFBE0
3FFFF3E0
0FFFC3E0
07FF03E0
00200000
ENDCHAR
STARTCHAR 00E2
ENCODING 226
SWIDTH 600 0
DWIDTH 36 0
BBX 27 48 4 -1
BITMAP
000F8000
001FC000
003FC000
007FE000
007FF000
00F9F800
01F0FC00
03E07E00
07C01F00
0F800F00
00000000
00000000
00000000
00000000
00040000
01FFF000
0FFFFC00
3FFFFF00
1FFFFF80
0F803F80
0C000FC0
000007C0
000007C0
000007C0
000003E0
000003E0
000003E0
007FFFE0
03FFFFE0
0FFFFFE0
1FFFFFE0
3FFE03E0
7F8003E0
7E0003E0
7C0003E0
FC0003E0
F80007E0
F80007E0
F80007E0
F8000FE0
FC001FE0
7E003FE0
7F00FBE0
3FFFFBE0
3FFFF3E0
0FFFC3E0
07FF03E0
00200000
ENDCHAR
STARTCHAR 00E3
ENCODING 227
SWIDTH 600 0
DWIDTH 36 0
BBX 27 46 4 -1
BITMAP
00F80380
03FC0380
07FF0780
07FFDF00
0FBFFF00
0F07FE00
0E03FC00
0E00F800
10000000
00000000
00000000
00000000
00040000
01FFF000
0FFFFC00
3FFFFF00
1FFFFF80
0F803F80
0C000FC0
000007C0
000007C0
000007C0
000003E0
000003E0
000003E0
007FFFE0
03FFFFE0
0FFFFFE0
1FFFFFE0
3FFE03E0
7F8003E0
7E0003E0
7C0003E0
FC0003E0
F80007E0
F80007E0
F80007E0
F8000FE0
FC001FE0
7E003FE0
7F00FBE0
3FFFFBE0
3FFFF3E0
0FFFC3E0
07FF03E0
00200000
ENDCHAR
STARTCHAR 00E4
ENCODING 228
SWIDTH 600 0
DWIDTH 36 0
BBX 27 46 4 -1
BITMAP
03801E00
07C03F00
0FE03F00
0FE03F00
0FE03F00
07C03F00
03801E00
00000000
00000000
00000000
00000000
00000000
00040000
01FFF000
0FFFFC00
3FFFFF00
1FFFFF80
0F803F80
0C000FC0
000007C0
000007C0
000007C0
000003E0
000003E0
000003E0
007FFFE0
03FFFFE0
0FFFFFE0
1FFFFFE0
3FFE03E0
7F8003E0
7E0003E0
7C0003E0
FC0003E0
F80007E0
F80007E0
F80007E0
F8000FE0
FC001FE0
7E003FE0
7F00FBE0
3FFFFBE0
3FFFF3E0
0FFFC3E0
07FF03E0
00200000
ENDCHAR
STARTCHAR 00E5
ENCODING 229
SWIDTH 600 0
DWIDTH 36 0
BBX 27 51 4 -1
BITMAP
001F8000
003FE000
007FF000
00F8F000
00F07800
00E07800
00E07800
00E07800
00F07800
00F0F000
007FF000
003FE000
001F8000
00000000
00000000
00000000
00000000
00040000
01FFF000
0FFFFC00
3FFFFF00
1FFFFF80
0F803F80
0C000FC0
000007C0
000007C0
000007C0
000003E0
000003E0
000003E0
007FFFE0
03FFFFE0
0FFFFFE0
1FFFFFE0
3FFE03E0
7F8003E0
7E0003E0
7C0003E0
FC0003E0
F80007E0
F80007E0
F80007E0
F8000FE0
FC001FE0
7E003FE0
7F00FBE0
3FFFFBE0
3FFFF3E0
0FFFC3E0
07FF03E0
00200000
ENDCHAR
STARTCHAR 00E6
ENCODING 230
SWIDTH 600 0
DWIDTH 36 0
BBX 34 34 1 -1
BITMAP
0020008000
03FE07F800
0FFF0FFC00
3FFF9FFE00
1FFFBFFF00
1E0FFC1F00
0807F81F80
0003F80F80
0003F00F80
0003F00780
0003F007C0
0003E007C0
0003E007C0
0003E007C0
07FFFFFFC0
0FFFFFFFC0
1FFFFFFFC0
3FFFFFFFC0
7F03E00000
7E03E00000
7C03E00000
F803E00000
F803E00000
F803F00000
F803F00000
F803F00000
F807F80000
7C0FFC0080
7E1F7E0380
7FFE3FFF80
3FFE1FFF80
1FFC0FFF80
0FF007FE00
0100004000
ENDCHAR
STARTCHAR 00E7
ENCODING 231
SWIDTH 600 0
DWIDTH 36 0
BBX 25 47 5 -14
BITMAP
00010000
007FFE00
01FFFF80
07FFFF80
0FFFFF80
1FF00F00
1FC00100
3F800000
3F000000
7E000000
7E000000
7C000000
FC000000
FC000000
FC000000
FC000000
FC000000
FC000000
FC000000
FC000000
FC000000
FC000000
7C000000
7E000000
7E000000
7F000000
3F000000
3FC00080
1FF00780
0FFFFF80
07FFFF80
01FFFF80
007FFE00
00070000
000F0000
000E0000
001FC000
001FE000
0003F000
0000F000
0000F800
0000F800
0000F000
0001F000
007FE000
007FC000
007F0000
ENDCHAR
STARTCHAR 00E8
ENCODING 232
SWIDTH 600 0
DWIDTH 36 0
BBX 28 48 4 -1
BITMAP
03F80000
01F80000
01FC0000
00FC0000
007E0000
003F0000
001F0000
000F8000
0007C000
0003C000
00000000
00000000
00000000
00000000
00020000
007FF000
01FFFC00
07FFFF00
0FFFFF80
1FE03FC0
1F800FC0
3F0007E0
7E0003E0
7E0003F0
7C0003F0
FC0001F0
F80001F0
F80001F0
FFFFFFF0
FFFFFFF0
FFFFFFF0
FFFFFFF0
F8000000
F8000000
F8000000
F8000000
FC000000
FC000000
7E000000
7E000000
3F000000
3FC00060
1FF007E0
0FFFFFE0
07FFFFE0
01FFFFC0
007FFF00
00018000
ENDCHAR
STARTCHAR 00E9
ENCODING 233
SWIDTH 600 0
DWIDTH 36 0
BBX 28 48 4 -1
BITMAP
00007F00
00007F00
0000FE00
0000FC00
0001F800
0003F000
0003E000
0007C000
000F8000
000F0000
00000000
00000000
00000000
00000000
00020000
007FF000
01FFFC00
07FFFF00
0FFFFF80
1FE03FC0
1F800FC0
3F0007E0
7E0003E0
7E0003F0
7C0003F0
FC0001F0
F80001F0
F80001F0
FFFFFFF0
FFFFFFF0
FFFFFFF0
FFFFFFF0
F8000000
F8000000
F8000000
F8000000
FC000000
FC000000
7E000000
7E000000
3F000000
3FC00060
1FF007E0
0FFFFFE0
07FFFFE0
01FFFFC0
007FFF00
00018000
ENDCHAR
STARTCHAR 00EA
ENCODING 234
SWIDTH 600 0
DWIDTH 36 0
BBX 28 48 4 -1
BITMAP
001F8000
001F8000
003FC000
007FE000
00FFF000
00F9F800
01F0FC00
03E07E00
07C01F00
0F000F00
00000000
00000000
00000000
00000000
00020000
007FF000
01FFFC00
07FFFF00
0FFFFF80
1FE03FC0
1F800FC0
3F0007E0
7E0003E0
7E0003F0
7C0003F0
FC0001F0
F80001F0
F80001F0
FFFFFFF0
FFFFFFF0
FFFFFFF0
FFFFFFF0
F8000000
F8000000
F8000000
F8000000
FC000000
FC000000
7E000000
7E000000
3F000000
3FC00060
1FF007E0
0FFFFFE0
07FFFFE0
01FFFFC0
007FFF00
00018000
ENDCHAR
STARTCHAR 00EB
ENCODING 235
SWIDTH 600 0
DWIDTH 36 0
BBX 28 46 4 -1
BITMAP
07801E00
0FC03F00
0FE03F00
0FE03F00
0FE03F00
07C03F00
03801E00
00000000
00000000
00000000
00000000
00000000
00020000
007FF000
01FFFC00
07FFFF00
0FFFFF80
1FE03FC0
1F800FC0
3F0007E0
7E0003E0
7E0003F0
7C0003F0
FC0001F0
F80001F0
F80001F0
FFFFFFF0
FFFFFFF0
FFFFFFF0
FFFFFFF0
F8000000
F8000000
F8000000
F8000000
FC000000
FC000000
7E000000
7E000000
3F000000
3FC00060
1FF007E0
0FFFFFE0
07FFFFE0
01FFFFC0
007FFF00
00018000
ENDCHAR
STARTCHAR 00EC
ENCODING 236
SWIDTH 600 0
DWIDTH 36 0
BBX 27 47 5 0
BITMAP
07E00000
07F00000
03F80000
01F80000
00FC0000
007C0000
003E0000
001F0000
000F8000
00078000
00000000
00000000
00000000
00000000
00000000
7FFF8000
7FFF8000
7FFF8000
7FFF8000
003F8000
001F8000
001F8000
001F8000
001F8000
001F8000
001F8000
001F8000
001F8000
001F8000
001F8000
001F8000
001F8000
001F8000
001F8000
001F8000
001F8000
001F8000
001F8000
001F8000
001F8000
001F8000
001F8000
001F8000
FFFFFFE0
FFFFFFE0
FFFFFFE0
FFFFFFE0
ENDCHAR
STARTCHAR 00ED
ENCODING 237
SWIDTH 600 0
DWIDTH 36 0
BBX 27 47 5 0
BITMAP
0000FE00
0000FC00
0001FC00
0001F800
0003F000
0007E000
0007C000
000F8000
001F0000
001E0000
00000000
00000000
00000000
00000000
00000000
7FFF8000
7FFF8000
7FFF8000
7FFF8000
003F8000
001F8000
001F8000
001F8000
001F8000
001F8000
001F8000
001F8000
001F8000
001F8000
001F8000
001F8000
001F8000
001F8000
001F8000
001F8000
001F8000
001F8000
001F8000
001F8000
001F8000
001F8000
001F8000
001F8000
FFFFFFE0
FFFFFFE0
FFFFFFE0
FFFFFFE0
ENDCHAR
STARTCHAR 00EE
ENCODING 238
SWIDTH 600 0
DWIDTH 36 0
BBX 27 47 5 0
BITMAP
003F0000
003F0000
007F8000
00FFC000
01FFE000
03F3E000
03E1F000
07C0F800
0F807C00
1E001E00
00000000
00000000
00000000
00000000
00000000
7FFF8000
7FFF8000
7FFF8000
7FFF8000
003F8000
001F8000
001F8000
001F8000
001F8000
001F8000
001F8000
001F8000
001F8000
001F8000
001F8000
001F8000
001F8000
001F8000
001F8000
001F8000
001F8000
001F8000
001F8000
001F8000
001F8000
001F8000
001F8000
001F8000
FFFFFFE0
FFFFFFE0
FFFFFFE0
FFFFFFE0
ENDCHAR
STARTCHAR 00EF
ENCODING 239
SWIDTH 600 0
DWIDTH 36 0
BBX 27 45 5 0
BITMAP
0F003C00
1F807E00
1F807E00
1F807E00
1F807E00
1F807E00
0F003C00
00000000
00000000
00000000
00000000
00000000
00000000
7FFF8000
7FFF8000
7FFF8000
7FFF8000
003F8000
001F8000
001F8000
001F8000
001F8000
001F8000
001F8000
001F8000
001F8000
001F8000
001F8000
001F8000
001F8000
001F8000
001F8000
001F8000
001F8000
001F8000
001F8000
001F8000
001F8000
001F8000
001F8000
001F8000
FFFFFFE0
FFFFFFE0
FFFFFFE0
FFFFFFE0
ENDCHAR
STARTCHAR 00F0
ENCODING 240
SWIDTH 600 0
DWIDTH 36 0
BBX 30 48 3 -1
BITMAP
00200000
00700180
007C07C0
00FE1FE0
007FBFC0
003FFF00
000FFC00
0007F800
001FF800
007FFC00
01FE7E00
03FC3F00
01F01F00
00C00F80
00000F80
000007C0
000003E0
000003E0
003FE1E0
01FFF9F0
03FFFEF0
07FFFFF0
0FFCFFF8
1FC00FF8
3F8007F8
3F0003F8
7E0001F8
7E0000FC
7C0000FC
7C0000FC
FC0000FC
FC0000FC
FC0000FC
FC0000FC
FC0000F8
FC0000F8
7C0000F8
7C0000F8
7E0001F0
3E0001F0
3F0003F0
1F8007E0
1FE01FC0
0FFFFF80
03FFFF00
01FFFE00
007FF800
00030000
ENDCHAR
STARTCHAR 00F1
ENCODING 241
SWIDTH 600 0
DWIDTH 36 0
BBX 27 45 5 0
BITMAP
01F00780
03FC0700
07FE0F00
0FFFDF00
0FBFFE00
1E0FFE00
1C03FC00
1C00F000
00000000
00000000
00000000
00000000
00010000
F03FF800
F0FFFE00
F9FFFF00
FBFFFF80
FBC03F80
FF801FC0
FF000FC0
FE000FC0
FC0007C0
FC0007C0
FC0007C0
FC0007E0
F80007E0
F80007E0
F80007E0
F80007E0
F80007E0
F80007E0
F80007E0
F80007E0
F80007E0
F80007E0
F80007E0
F80007E0
F80007E0
F80007E0
F80007E0
F80007E0
F80007E0
F80007E0
F80007E0
F80007E0
ENDCHAR
STARTCHAR 00F2
ENCODING 242
SWIDTH 600 0
DWIDTH 36 0
BBX 30 48 3 -1
BITMAP
01F80000
01FC0000
00FE0000
007E0000
003F0000
001F0000
000F8000
0007C000
0003E000
0001E000
00000000
00000000
00000000
00000000
00020000
007FF800
01FFFE00
03FFFF00
0FFFFF80
0FE03FC0
1FC00FE0
3F0007F0
3F0003F0
7E0001F8
7E0001F8
7C0000F8
7C0000F8
FC0000F8
FC0000FC
FC0000FC
FC0000FC
FC0000FC
FC0000FC
FC0000FC
7C0000F8
7C0000F8
7C0001F8
7E0001F8
7E0001F8
3F0003F0
3F8007F0
1FC00FE0
0FF01FC0
07FFFF80
03FFFF00
01FFFE00
007FF800
00030000
ENDCHAR
STARTCHAR 00F3
ENCODING 243
SWIDTH 600 0
DWIDTH 36 0
BBX 30 48 3 -1
BITMAP
00003F80
00003F00
00007F00
00007E00
0000FC00
0001F800
0001F000
0003E000
0007C000
00078000
00000000
00000000
00000000
00000000
00020000
007FF800
01FFFE00
03FFFF00
0FFFFF80
0FE03FC0
1FC00FE0
3F0007F0
3F0003F0
7E0001F8
7E0001F8
7C0000F8
7C0000F8
FC0000F8
FC0000FC
FC0000FC
FC0000FC
FC0000FC
FC0000FC
FC0000FC
7C0000F8
7C0000F8
7C0001F8
7E0001F8
7E0001F8
3F0003F0
3F8007F0
1FC00FE0
0FF01FC0
07FFFF80
03FFFF00
01FFFE00
007FF800
00030000
ENDCHAR
STARTCHAR 00F4
ENCODING 244
SWIDTH 600 0
DWIDTH 36 0
BBX 30 48 3 -1
BITMAP
000FC000
000FC000
001FE000
003FF000
007FF800
00FCF800
00F87C00
01F03E00
03E01F00
07800780
00000000
00000000
00000000
00000000
00020000
007FF800
01FFFE00
03FFFF00
0FFFFF80
0FE03FC0
1FC00FE0
3F0007F0
3F0003F0
7E0001F8
7E0001F8
7C0000F8
7C0000F8
FC0000F8
FC0000FC
FC0000FC
FC0000FC
FC0000FC
FC0000FC
FC0000FC
7C0000F8
7C0000F8
7C0001F8
7E0001F8
7E0001F8
3F0003F0
3F8007F0
1FC00FE0
0FF01FC0
07FFFF80
03FFFF00
01FFFE00
007FF800
00030000
ENDCHAR
STARTCHAR 00F5
ENCODING 245
SWIDTH 600 0
DWIDTH 36 0
BBX 30 46 3 -1
BITMAP
00F801C0
01FE03C0
03FF8380
07FFEF80
07DFFF80
0703FF00
0F01FE00
0E007C00
00000000
00000000
00000000
00000000
00020000
007FF800
01FFFE00
03FFFF00
0FFFFF80
0FE03FC0
1FC00FE0
3F0007F0
3F0003F0
7E0001F8
7E0001F8
7C0000F8
7C0000F8
FC0000F8
FC0000FC
FC0000FC
FC0000FC
FC0000FC
FC0000FC
FC0000FC
7C0000F8
7C0000F8
7C0001F8
7E0001F8
7E0001F8
3F0003F0
3F8007F0
1FC00FE0
0FF01FC0
07FFFF80
03FFFF00
01FFFE00
007FF800
00030000
ENDCHAR
STARTCHAR 00F6
ENCODING 246
SWIDTH 600 0
DWIDTH 36 0
BBX 30 46 3 -1
BITMAP
03C00F00
07E01F80
07E01F80
07E01F80
07E01F80
07E01F80
03C00F00
00000000
00000000
00000000
00000000
00000000
00020000
007FF800
01FFFE00
03FFFF00
0FFFFF80
0FE03FC0
1FC00FE0
3F0007F0
3F0003F0
7E0001F8
7E0001F8
7C0000F8
7C0000F8
FC0000F8
FC0000FC
FC0000FC
FC0000FC
FC0000FC
FC0000FC
FC0000FC
7C0000F8
7C0000F8
7C0001F8
7E0001F8
7E0001F8
3F0003F0
3F8007F0
1FC00FE0
0FF01FC0
07FFFF80
03FFFF00
01FFFE00
007FF800
00030000
ENDCHAR
STARTCHAR 00F7
ENCODING 247
SWIDTH 600 0
DWIDTH 36 0
BBX 26 28 5 7
BITMAP
001E0000
003F0000
003F0000
003F0000
003F0000
003F0000
001E0000
00000000
00000000
00000000
00000000
00000000
FFFFFFC0
FFFFFFC0
FFFFFFC0
FFFFFFC0
00000000
00000000
00000000
00000000
00000000
001E0000
003F0000
003F0000
003F0000
003F0000
003F0000
001E0000
ENDCHAR
STARTCHAR 00F8
ENCODING 248
SWIDTH 600 0
DWIDTH 36 0
BBX 30 36 3 -2
BITMAP
00000040
00020060
007FF8F8
01FFFFF0
03FFFFF0
0FFFFFE0
0FE03FC0
1FC00FE0
3F000FE0
3F001FF0
7E003FF0
7E007FF8
7C007CF8
7C00F8F8
FC01F0F8
FC01F0FC
FC03E0FC
FC07C0FC
FC0FC0FC
FC0F80FC
FC1F00FC
7C3E00FC
7C7E00F8
7C7C00F8
7EF801F8
3FF001F8
3FF003F0
3FE007F0
1FC00FE0
0FF01FC0
0FFFFF80
1FFFFF00
3FFFFE00
7E7FF800
1C030000
08000000
ENDCHAR
STARTCHAR 00F9
ENCODING 249
SWIDTH 600 0
DWIDTH 36 0
BBX 27 48 4 -1
BITMAP
03F00000
03F80000
01FC0000
00FC0000
007E0000
003E0000
001F0000
000F8000
0007C000
0003C000
00000000
00000000
00000000
00000000
00000000
FC0003E0
FC0003E0
FC0003E0
FC0003E0
FC0003E0
FC0003E0
FC0003E0
FC0003E0
FC0003E0
FC0003E0
FC0003E0
FC0003E0
FC0003E0
FC0003E0
FC0003E0
FC0003E0
FC0003E0
FC0003E0
FC0003E0
FC0003E0
FC0007E0
FC0007E0
7C0007E0
7C0007E0
7E000FE0
7E000FE0
7F001FE0
3F807FE0
3FFFFBE0
1FFFF3E0
0FFFE1E0
03FF81E0
00100000
ENDCHAR
STARTCHAR 00FA
ENCODING 250
SWIDTH 600 0
DWIDTH 36 0
BBX 27 48 4 -1
BITMAP
00007F00
00007E00
0000FE00
0000FC00
0001F800
0003F000
0003E000
0007C000
000F8000
000F0000
00000000
00000000
00000000
00000000
00000000
FC0003E0
FC0003E0
FC0003E0
FC0003E0
FC0003E0
FC0003E0
FC0003E0
FC0003E0
FC0003E0
FC0003E0
FC0003E0
FC0003E0
FC0003E0
FC0003E0
FC0003E0
FC0003E0
FC0003E0
FC0003E0
FC0003E0
FC0003E0
FC0007E0
FC0007E0
7C0007E0
7C0007E0
7E000FE0
7E000FE0
7F001FE0
3F807FE0
3FFFFBE0
1FFFF3E0
0FFFE1E0
03FF81E0
00100000
ENDCHAR
STARTCHAR 00FB
ENCODING 251
SWIDTH 600 0
DWIDTH 36 0
BBX 27 48 4 -1
BITMAP
001F8000
001F8000
003FC000
007FE000
00FFF000
01F9F000
01F0F800
03E07C00
07C03E00
0F000F00
00000000
00000000
00000000
00000000
00000000
FC0003E0
FC0003E0
FC0003E0
FC0003E0
FC0003E0
FC0003E0
FC0003E0
FC0003E0
FC0003E0
FC0003E0
FC0003E0
FC0003E0
FC0003E0
FC0003E0
FC0003E0
FC0003E0
FC0003E0
FC0003E0
FC0003E0
FC0003E0
FC0007E0
FC0007E0
7C0007E0
7C0007E0
7E000FE0
7E000FE0
7F001FE0
3F807FE0
3FFFFBE0
1FFFF3E0
0FFFE1E0
03FF81E0
00100000
ENDCHAR
STARTCHAR 00FC
ENCODING 252
SWIDTH 600 0
DWIDTH 36 0
BBX 27 46 4 -1
BITMAP
07801E00
0FC03F00
0FC03F00
0FC03F00
0FC03F00
0FC03F00
07801E00
00000000
00000000
00000000
00000000
00000000
00000000
FC0003E0
FC0003E0
FC0003E0
FC0003E0
FC0003E0
FC0003E0
FC0003E0
FC0003E0
FC0003E0
FC0003E0
FC0003E0
FC0003E0
FC0003E0
FC0003E0
FC0003E0
FC0003E0
FC0003E0
FC0003E0
FC0003E0
FC0003E0
FC0007E0
FC0007E0
7C0007E0
7C0007E0
7E000FE0
7E000FE0
7F001FE0
3F807FE0
3FFFFBE0
1FFFF3E0
0FFFE1E0
03FF81E0
00100000
ENDCHAR
STARTCHAR 00FD
ENCODING 253
SWIDTH 600 0
DWIDTH 36 0
BBX 30 61 3 -14
BITMAP
00003F80
00003F00
00007F00
00007E00
0000FC00
0001F800
0001F000
0003E000
0007C000
00078000
00000000
00000000
00000000
00000000
00000000
F800007C
FC0000FC
7C0000F8
7C0000F8
3E0001F8
3E0001F0
3F0003F0
1F0003E0
1F8003E0
0F8007E0
0F8007C0
07C007C0
07C00FC0
07E00F80
03E00F80
03E01F00
01F01F00
01F01F00
00F83E00
00F83E00
00F83C00
007C7C00
007C7C00
003E7800
003EF800
001EF800
001EF000
001FF000
000FE000
000FE000
0007E000
0007C000
0007C000
000FC000
000F8000
000F8000
001F0000
001F0000
003F0000
007E0000
00FE0000
67FC0000
7FF80000
7FF00000
7FE00000
7F800000
ENDCHAR
STARTCHAR 00FE
ENCODING 254
SWIDTH 600 0
DWIDTH 36 0
BBX 28 60 5 -14
BITMAP
F8000000
F8000000
F8000000
F8000000
F8000000
F8000000
F8000000
F8000000
F8000000
F8000000
F8000000
F8000000
F8000000
F8020000
F83FF000
F8FFFC00
F9FFFE00
FBFFFF00
FFC07F80
FF001F80
FE000FC0
FE0007C0
FC0007E0
FC0007E0
FC0003E0
F80003E0
F80003F0
F80003F0
F80003F0
F80003F0
F80003F0
F80003F0
F80003F0
F80003F0
F80003E0
FC0003E0
FC0007E0
FC0007E0
FE000FC0
FE000FC0
FF001F80
FFC07F80
FBFFFF00
F9FFFE00
F8FFFC00
F83FF000
F8020000
F8000000
F8000000
F8000000
F8000000
F8000000
F8000000
F8000000
F8000000
F8000000
F8000000
F8000000
F8000000
F8000000
ENDCHAR
STARTCHAR 00FF
ENCODING 255
SWIDTH 600 0
DWIDTH 36 0
BBX 30 59 3 -14
BITMAP
03C00F00
07E01F80
07E01F80
07E01F80
07E01F80
07E01F80
03C00F00
00000000
00000000
00000000
00000000
00000000
00000000
F800007C
FC0000FC
7C0000F8
7C0000F8
3E0001F8
3E0001F0
3F0003F0
1F0003E0
1F8003E0
0F8007E0
0F8007C0
07C007C0
07C00FC0
07E00F80
03E00F80
03E01F00
01F01F00
01F01F00
00F83E00
00F83E00
00F83C00
007C7C00
007C7C00
003E7800
003EF800
001EF800
001EF000
001FF000
000FE000
000FE000
0007E000
0007C000
0007C000
000FC000
000F8000
000F8000
001F0000
001F0000
003F0000
007E0000
00FE0000
67FC0000
7FF80000
7FF00000
7FE00000
7F800000
ENDCHAR
STARTCHAR 0100
ENCODING 256
SWIDTH 600 0
DWIDTH 36 0
BBX 34 52 1 0
BITMAP
00FFFFC000
00FFFFC000
00FFFFC000
00FFFFC000
0000000000
0000000000
0000000000
0000000000
0000000000
0003F00000
0003F00000
0007F80000
0007F80000
0007F80000
000FFC0000
000FFC0000
000FFC0000
001F3E0000
001F3E0000
001F3E0000
003E3F0000
003E1F0000
003E1F0000
007E1F8000
007C0F8000
007C0F8000
00FC0F8000
00F807C000
00F807C000
01F807C000
01F003E000
01F003E000
03F003E000
03E001F000
03FFFFF000
03FFFFF000
07FFFFF800
07FFFFF800
07C000F800
0F80007C00
0F80007C00
0F80007C00
1F80007E00
1F00003E00
1F00003E00
3F00003F00
3E00001F00
3E00001F00
7E00001F80
7C00000F80
7C00000F80
FC00000FC0
ENDCHAR
STARTCHAR 0101
ENCODING 257
SWIDTH 600 0
DWIDTH 36 0
BBX 27 42 4 -1
BITMAP
07FFFE00
07FFFE00
07FFFE00
07FFFE00
00000000
00000000
00000000
00000000
00040000
01FFF000
0FFFFC00
3FFFFF00
1FFFFF80
0F803F80
0C000FC0
000007C0
000007C0
000007C0
000003E0
000003E0
000003E0
007FFFE0
03FFFFE0
0FFFFFE0
1FFFFFE0
3FFE03E0
7F8003E0
7E0003E0
7C0003E0
FC0003E0
F80007E0
F80007E0
F80007E0
F8000FE0
FC001FE0
7E003FE0
7F00FBE0
3FFFFBE0
3FFFF3E0
0FFFC3E0
07FF03E0
00200000
ENDCHAR
STARTCHAR 0102
ENCODING 258
SWIDTH 600 0
DWIDTH 36 0
BBX 34 56 1 0
BITMAP
00E001C000
00F003C000
00F807C000
00FF3F8000
007FFF8000
003FFF0000
001FFE0000
0007F00000
0000000000
0000000000
0000000000
0000000000
0000000000
0003F00000
0003F00000
0007F80000
0007F80000
0007F80000
000FFC0000
000FFC0000
000FFC0000
001F3E0000
001F3E0000
001F3E0000
003E3F0000
003E1F0000
003E1F0000
007E1F8000
007C0F8000
007C0F8000
00FC0F8000
00F807C000
00F807C000
01F807C000
01F003E000
01F003E000
03F003E000
03E001F000
03FFFFF000
03FFFFF000
07FFFFF800
07FFFFF800
07C000F800
0F80007C00
0F80007C00
0F80007C00
1F80007E00
1F00003E00
1F00003E00
3F00003F00
3E00001F00
3E00001F00
7E00001F80
7C00000F80
7C00000F80
FC00000FC0
ENDCHAR
STARTCHAR 0103
ENCODING 259
SWIDTH 600 0
DWIDTH 36 0
BBX 27 46 4 -1
BITMAP
07800F00
07801E00
07C01E00
03F9FE00
03FFFC00
01FFF800
00FFF000
001FC000
00000000
00000000
00000000
00000000
00040000
01FFF000
0FFFFC00
3FFFFF00
1FFFFF80
0F803F80
0C000FC0
000007C0
000007C0
000007C0
000003E0
000003E0
000003E0
007FFFE0
03FFFFE0
0FFFFFE0
1FFFFFE0
3FFE03E0
7F8003E0
7E0003E0
7C0003E0
FC0003E0
F80007E0
F80007E0
F80007E0
F8000FE0
FC001FE0
7E003FE0
7F00FBE0
3FFFFBE0
3FFFF3E0
0FFFC3E0
07FF03E0
00200000
ENDCHAR
STARTCHAR 0104
ENCODING 260
SWIDTH 600 0
DWIDTH 36 0
BBX 35 56 1 -13
BITMAP
0003F00000
0003F00000
0007F80000
0007F80000
0007F80000
000FFC0000
000FFC0000
000FFC0000
001F3E0000
001F3E0000
001F3E0000
003E3F0000
003E1F0000
003E1F0000
007E1F8000
007C0F8000
007C0F8000
00FC0F8000
00F807C000
00F807C000
01F807C000
01F003E000
01F003E000
03F003E000
03E001F000
03FFFFF000
03FFFFF000
07FFFFF800
07FFFFF800
07C000F800
0F80007C00
0F80007C00
0F80007C00
1F80007E00
1F00003E00
1F00003E00
3F00003F00
3E00001F00
3E00001F00
7E00001F80
7C00000F80
7C00000F80
FC00000FC0
0000000780
0000000F00
0000001E00
0000003C00
0000003C00
0000003C00
0000007C00
0000007C00
0000007E00
0000003FE0
0000003FE0
0000001FE0
00000007E0
ENDCHAR
STARTCHAR 0105
ENCODING 261
SWIDTH 600 0
DWIDTH 36 0
BBX 28 46 4 -13
BITMAP
00040000
01FFF000
0FFFFC00
3FFFFF00
1FFFFF80
0F803F80
0C000FC0
000007C0
000007C0
000007C0
000003E0
000003E0
000003E0
007FFFE0
03FFFFE0
0FFFFFE0
1FFFFFE0
3FFE03E0
7F8003E0
7E0003E0
7C0003E0
FC0003E0
F80007E0
F80007E0
F80007E0
F8000FE0
FC001FE0
7E003FE0
7F00FBE0
3FFFFBE0
3FFFF3E0
0FFFC3E0
07FF03E0
00200780
00000F00
00001E00
00001E00
00003C00
00003C00
00003C00
00003C00
00003E00
00003FF0
00001FF0
00001FF0
000007E0
ENDCHAR
STARTCHAR 0106
ENCODING 262
SWIDTH 600 0
DWIDTH 36 0
BBX 29 59 4 -1
BITMAP
000007E0
00000FE0
00000FC0
00001F80
00003F00
00003E00
00007C00
0000FC00
0000F000
0001E000
00000000
00000000
00000000
00000000
00002000
000FFFC0
007FFFF0
00FFFFF8
01FFFFF0
07FC01F0
07F00020
0FE00000
1FC00000
1F800000
3F000000
3F000000
7E000000
7E000000
7C000000
7C000000
FC000000
FC000000
FC000000
FC000000
FC000000
F8000000
F8000000
F8000000
FC000000
FC000000
FC000000
FC000000
FC000000
7C000000
7C000000
7E000000
7E000000
3E000000
3F000000
3F000000
1F800000
0FC00000
0FF00020
07FC01E0
03FFFFE0
01FFFFE0
007FFFE0
001FFFC0
00006000
ENDCHAR
STARTCHAR 0107
ENCODING 263
SWIDTH 600 0
DWIDTH 36 0
BBX 25 48 5 -1
BITMAP
00003F00
00007F00
00007E00
0000FC00
0000FC00
0001F800
0003F000
0003E000
0007C000
000F0000
00000000
00000000
00000000
00000000
00010000
007FFE00
01FFFF80
07FFFF80
0FFFFF80
1FF00F00
1FC00100
3F800000
3F000000
7E000000
7E000000
7C000000
FC000000
FC000000
FC000000
FC000000
FC000000
FC000000
FC000000
FC000000
FC000000
FC000000
7C000000
7E000000
7E000000
7F000000
3F000000
3FC00080
1FF00780
0FFFFF80
07FFFF80
01FFFF80
007FFE00
00030000
ENDCHAR
STARTCHAR 0108
ENCODING 264
SWIDTH 600 0
DWIDTH 36 0
BBX 29 59 4 -1
BITMAP
0001F000
0003F800
0007FC00
0007FC00
000FBE00
001F1F00
003E0F80
007C07C0
00F803E0
01F001F0
00000000
00000000
00000000
00000000
00002000
000FFFC0
007FFFF0
00FFFFF8
01FFFFF0
07FC01F0
07F00020
0FE00000
1FC00000
1F800000
3F000000
3F000000
7E000000
7E000000
7C000000
7C000000
FC000000
FC000000
FC000000
FC000000
FC000000
F8000000
F8000000
F8000000
FC000000
FC000000
FC000000
FC000000
FC000000
7C000000
7C000000
7E000000
7E000000
3E000000
3F000000
3F000000
1F800000
0FC00000
0FF00020
07FC01E0
03FFFFE0
01FFFFE0
007FFFE0
001FFFC0
00006000
ENDCHAR
STARTCHAR 0109
ENCODING 265
SWIDTH 600 0
DWIDTH 36 0
BBX 25 48 5 -1
BITMAP
000F8000
001FC000
001FE000
003FE000
007DF000
00F8F800
01F07C00
03E03E00
07C01F00
07800F80
00000000
00000000
00000000
00000000
00010000
007FFE00
01FFFF80
07FFFF80
0FFFFF80
1FF00F00
1FC00100
3F800000
3F000000
7E000000
7E000000
7C000000
FC000000
FC000000
FC000000
FC000000
FC000000
FC000000
FC000000
FC000000
FC000000
FC000000
7C000000
7E000000
7E000000
7F000000
3F000000
3FC00080
1FF00780
0FFFFF80
07FFFF80
01FFFF80
007FFE00
00030000
ENDCHAR
STARTCHAR 010A
ENCODING 266
SWIDTH 600 0
DWIDTH 36 0
BBX 29 58 4 -1
BITMAP
0001E000
0003F800
0003F800
0003F800
0003F800
0003F800
0003F800
0001E000
00000000
00000000
00000000
00000000
00000000
00002000
000FFFC0
007FFFF0
00FFFFF8
01FFFFF0
07FC01F0
07F00020
0FE00000
1FC00000
1F800000
3F000000
3F000000
7E000000
7E000000
7C000000
7C000000
FC000000
FC000000
FC000000
FC000000
FC000000
F8000000
F8000000
F8000000
FC000000
FC000000
FC000000
FC000000
FC000000
7C000000
7C000000
7E000000
7E000000
3E000000
3F000000
3F000000
1F800000
0FC00000
0FF00020
07FC01E0
03FFFFE0
01FFFFE0
007FFFE0
001FFFC0
00006000
ENDCHAR
STARTCHAR 010B
ENCODING 267
SWIDTH 600 0
DWIDTH 36 0
BBX 25 47 5 -1
BITMAP
00078000
001FC000
001FC000
001FC000
001FC000
001FC000
000FC000
00078000
00000000
00000000
00000000
00000000
00000000
00010000
007FFE00
01FFFF80
07FFFF80
0FFFFF80
1FF00F00
1FC00100
3F800000
3F000000
7E000000
7E000000
7C000000
FC000000
FC000000
FC000000
FC000000
FC000000
FC000000
FC000000
FC000000
FC000000
FC000000
7C000000
7E000000
7E000000
7F000000
3F000000
3FC00080
1FF00780
0FFFFF80
07FFFF80
01FFFF80
007FFE00
00030000
ENDCHAR
STARTCHAR 010C
ENCODING 268
SWIDTH 600 0
DWIDTH 36 0
BBX 29 59 4 -1
BITMAP
01E000F0
00F001F0
00FC07E0
007E0FC0
003F1F80
001FBF00
000FFE00
0007FC00
0003F800
0003F000
00000000
00000000
00000000
00000000
00002000
000FFFC0
007FFFF0
00FFFFF8
01FFFFF0
07FC01F0
07F00020
0FE00000
1FC00000
1F800000
3F000000
3F000000
7E000000
7E000000
7C000000
7C000000
FC000000
FC000000
FC000000
FC000000
FC000000
F8000000
F8000000
F8000000
FC000000
FC000000
FC000000
FC000000
FC000000
7C000000
7C000000
7E000000
7E000000
3E000000
3F000000
3F000000
1F800000
0FC00000
0FF00020
07FC01E0
03FFFFE0
01FFFFE0
007FFFE0
001FFFC0
00006000
ENDCHAR
STARTCHAR 010D
ENCODING 269
SWIDTH 600 0
DWIDTH 36 0
BBX 25 48 5 -1
BITMAP
07000780
07C00F80
03E03F00
01F07E00
01F8FC00
00FDF800
007FF000
003FE000
001FC000
000FC000
00000000
00000000
00000000
00000000
00010000
007FFE00
01FFFF80
07FFFF80
0FFFFF80
1FF00F00
1FC00100
3F800000
3F000000
7E000000
7E000000
7C000000
FC000000
FC000000
FC000000
FC000000
FC000000
FC000000
FC000000
FC000000
FC000000
FC000000
7C000000
7E000000
7E000000
7F000000
3F000000
3FC00080
1FF00780
0FFFFF80
07FFFF80
01FFFF80
007FFE00
00030000
ENDCHAR
STARTCHAR 010E
ENCODING 270
SWIDTH 600 0
DWIDTH 36 0
BBX 29 58 4 0
BITMAP
3C001E00
1F003E00
0F80FC00
0FC1F800
07E3F000
03F7E000
01FFC000
00FF8000
007F0000
003F0000
00000000
00000000
00000000
00000000
00000000
FFFE0000
FFFFE000
FFFFF800
FFFFFC00
FC1FFE00
FC00FF00
FC003F80
FC001FC0
FC000FC0
FC0007E0
FC0003E0
FC0003F0
FC0003F0
FC0001F0
FC0001F8
FC0001F8
FC0001F8
FC0000F8
FC0000F8
FC0000F8
FC0000F8
FC0000F8
FC0000F8
FC0000F8
FC0000F8
FC0001F8
FC0001F8
FC0001F8
FC0001F8
FC0001F0
FC0003F0
FC0003F0
FC0007E0
FC0007E0
FC000FC0
FC001FC0
FC007F80
FC01FF00
FC3FFE00
FFFFFC00
FFFFF000
FFFFC000
FFFE0000
ENDCHAR
STARTCHAR 010F
ENCODING 271
SWIDTH 600 0
DWIDTH 36 0
BBX 36 47 3 -1
BITMAP
00000FC3F0
00000FC3E0
00000FC3E0
00000FC3E0
00000FC3C0
00000FC7C0
00000FC780
00000FC780
00000FC700
00000FCF00
00000FC000
00000FC000
00000FC000
00100FC000
01FF8FC000
07FFC7C000
0FFFE7C000
1FFFF7C000
3FC0FFC000
3F007FC000
7F003FC000
7E001FC000
7C001FC000
FC000FC000
FC000FC000
FC000FC000
F8000FC000
F8000FC000
F8000FC000
F8000FC000
F8000FC000
F8000FC000
F8000FC000
F8000FC000
F8000FC000
FC000FC000
FC000FC000
7C001FC000
7E001FC000
7E003FC000
3F007FC000
3FC0FFC000
1FFFF7C000
0FFFE7C000
07FFC7C000
01FF07C000
0010000000
ENDCHAR
STARTCHAR 0110
ENCODING 272
SWIDTH 600 0
DWIDTH 36 0
BBX 34 43 0 0
BITMAP
07FFF00000
07FFFE0000
07FFFF8000
07FFFFE000
07C0FFF000
07C00FF800
07C003FC00
07C000FC00
07C0007E00
07C0007F00
07C0003F00
07C0001F00
07C0001F80
07C0001F80
07C0000F80
07C0000F80
07C0000FC0
07C0000FC0
07C0000FC0
07C0000FC0
FFFFC00FC0
FFFFC00FC0
FFFFC00FC0
FFFFC00FC0
07C0000FC0
07C0000FC0
07C0000FC0
07C0000F80
07C0000F80
07C0001F80
07C0001F80
07C0003F00
07C0003F00
07C0007E00
07C000FE00
07C001FC00
07C003FC00
07C00FF800
07C1FFF000
07FFFFC000
07FFFF8000
07FFFE0000
07FFE00000
ENDCHAR
STARTCHAR 0111
ENCODING 273
SWIDTH 600 0
DWIDTH 36 0
BBX 33 47 3 -1
BITMAP
000001F000
000001F000
000001F000
000001F000
000001F000
000FFFFF80
000FFFFF80
000FFFFF80
000FFFFF80
000001F000
000001F000
000001F000
000001F000
000001F000
003FC1F000
01FFF1F000
07FFF9F000
0FFFFDF000
1FFDFFF000
1FC01FF000
3F800FF000
3F0007F000
7E0007F000
7E0003F000
7E0003F000
7C0003F000
FC0001F000
FC0001F000
FC0001F000
FC0001F000
FC0001F000
FC0001F000
FC0001F000
FC0001F000
7C0001F000
7C0003F000
7E0003F000
7E0003F000
3E0007F000
3F0007F000
3F800FF000
1FE03FF000
0FFFFDF000
07FFF9F000
03FFF0F000
00FFE0F000
0004000000
ENDCHAR
STARTCHAR 0112
ENCODING 274
SWIDTH 600 0
DWIDTH 36 0
BBX 25 52 6 0
BITMAP
1FFFF800
1FFFF800
1FFFF800
1FFFF800
00000000
00000000
00000000
00000000
00000000
FFFFFF80
FFFFFF80
FFFFFF80
FFFFFF80
F8000000
F8000000
F8000000
F8000000
F8000000
F8000000
F8000000
F8000000
F8000000
F8000000
F8000000
F8000000
F8000000
F8000000
FFFFFF00
FFFFFF00
FFFFFF00
FFFFFF00
F8000000
F8000000
F8000000
F8000000
F8000000
F8000000
F8000000
F8000000
F8000000
F8000000
F8000000
F8000000
F8000000
F8000000
F8000000
F8000000
F8000000
FFFFFF80
FFFFFF80
FFFFFF80
FFFFFF80
ENDCHAR
STARTCHAR 0113
ENCODING 275
SWIDTH 600 0
DWIDTH 36 0
BBX 28 42 4 -1
BITMAP
07FFFE00
07FFFE00
07FFFE00
07FFFE00
00000000
00000000
00000000
00000000
00020000
007FF000
01FFFC00
07FFFF00
0FFFFF80
1FE03FC0
1F800FC0
3F0007E0
7E0003E0
7E0003F0
7C0003F0
FC0001F0
F80001F0
F80001F0
FFFFFFF0
FFFFFFF0
FFFFFFF0
FFFFFFF0
F8000000
F8000000
F8000000
F8000000
FC000000
FC000000
7E000000
7E000000
3F000000
3FC00060
1FF007E0
0FFFFFE0
07FFFFE0
01FFFFC0
007FFF00
00018000
ENDCHAR
STARTCHAR 0114
ENCODING 276
SWIDTH 600 0
DWIDTH 36 0
BBX 25 56 6 0
BITMAP
1E003C00
1E007C00
1F007800
0FF7F800
0FFFF000
07FFE000
03FFC000
00FF0000
00000000
00000000
00000000
00000000
00000000
FFFFFF80
FFFFFF80
FFFFFF80
FFFFFF80
F8000000
F8000000
F8000000
F8000000
F8000000
F8000000
F8000000
F8000000
F8000000
F8000000
F8000000
F8000000
F8000000
F8000000
FFFFFF00
FFFFFF00
FFFFFF00
FFFFFF00
F8000000
F8000000
F8000000
F8000000
F8000000
F8000000
F8000000
F8000000
F8000000
F8000000
F8000000
F8000000
F8000000
F8000000
F8000000
F8000000
F8000000
FFFFFF80
FFFFFF80
FFFFFF80
FFFFFF80
ENDCHAR
STARTCHAR 0115
ENCODING 277
SWIDTH 600 0
DWIDTH 36 0
BBX 28 46 4 -1
BITMAP
07800F00
07801E00
07C03E00
03F9FE00
03FFFC00
01FFF800
00FFF000
003FC000
00000000
00000000
00000000
00000000
00020000
007FF000
01FFFC00
07FFFF00
0FFFFF80
1FE03FC0
1F800FC0
3F0007E0
7E0003E0
7E0003F0
7C0003F0
FC0001F0
F80001F0
F80001F0
FFFFFFF0
FFFFFFF0
FFFFFFF0
FFFFFFF0
F8000000
F8000000
F8000000
F8000000
FC000000
FC000000
7E000000
7E000000
3F000000
3FC00060
1FF007E0
0FFFFFE0
07FFFFE0
01FFFFC0
007FFF00
00018000
ENDCHAR
STARTCHAR 0116
ENCODING 278
SWIDTH 600 0
DWIDTH 36 0
BBX 25 57 6 0
BITMAP
003C0000
007E0000
007F0000
007F0000
007F0000
007F0000
007E0000
003C0000
00000000
00000000
00000000
00000000
00000000
00000000
FFFFFF80
FFFFFF80
FFFFFF80
FFFFFF80
F8000000
F8000000
F8000000
F8000000
F8000000
F8000000
F8000000
F8000000
F8000000
F8000000
F8000000
F8000000
F8000000
F8000000
FFFFFF00
FFFFFF00
FFFFFF00
FFFFFF00
F8000000
F8000000
F8000000
F8000000
F8000000
F8000000
F8000000
F8000000
F8000000
F8000000
F8000000
F8000000
F8000000
F8000000
F8000000
F8000000
F8000000
FFFFFF80
FFFFFF80
FFFFFF80
FFFFFF80
ENDCHAR
STARTCHAR 0117
ENCODING 279
SWIDTH 600 0
DWIDTH 36 0
BBX 28 47 4 -1
BITMAP
000F0000
001F8000
001FC000
003FC000
003FC000
001FC000
001F8000
000F0000
00000000
00000000
00000000
00000000
00000000
00020000
007FF000
01FFFC00
07FFFF00
0FFFFF80
1FE03FC0
1F800FC0
3F0007E0
7E0003E0
7E0003F0
7C0003F0
FC0001F0
F80001F0
F80001F0
FFFFFFF0
FFFFFFF0
FFFFFFF0
FFFFFFF0
F8000000
F8000000
F8000000
F8000000
FC000000
FC000000
7E000000
7E000000
3F000000
3FC00060
1FF007E0
0FFFFFE0
07FFFFE0
01FFFFC0
007FFF00
00018000
ENDCHAR
STARTCHAR 0118
ENCODING 280
SWIDTH 600 0
DWIDTH 36 0
BBX 25 56 6 -13
BITMAP
FFFFFF80
FFFFFF80
FFFFFF80
FFFFFF80
F8000000
F8000000
F8000000
F8000000
F8000000
F8000000
F8000000
F8000000
F8000000
F8000000
F8000000
F8000000
F8000000
F8000000
FFFFFF00
FFFFFF00
FFFFFF00
FFFFFF00
F8000000
F8000000
F8000000
F8000000
F8000000
F8000000
F8000000
F8000000
F8000000
F8000000
F8000000
F8000000
F8000000
F8000000
F8000000
F8000000
F8000000
FFFFFF80
FFFFFF80
FFFFFF80
FFFFFF80
0000F000
0000F000
0001E000
0003C000
0003C000
0007C000
0007C000
0007C000
0007E000
0003FE00
0003FE00
0001FE00
0000FE00
ENDCHAR
STARTCHAR 0119
ENCODING 281
SWIDTH 600 0
DWIDTH 36 0
BBX 28 46 4 -13
BITMAP
00020000
007FF000
01FFFC00
07FFFF00
0FFFFF80
1FE03FC0
1F800FC0
3F0007E0
7E0003E0
7E0003F0
7C0003F0
FC0001F0
F80001F0
F80001F0
FFFFFFF0
FFFFFFF0
FFFFFFF0
FFFFFFF0
F8000000
F8000000
F8000000
F8000000
FC000000
FC000000
7E000000
7E000000
3F000000
3FC00060
1FF007E0
0FFFFFE0
07FFFFE0
01FFFFE0
007FFF80
00018F00
00001E00
00003C00
00003800
00007800
00007800
00007800
00007800
00007C00
00007FC0
00007FC0
00003FC0
00000FC0
ENDCHAR
STARTCHAR 011A
ENCODING 282
SWIDTH 600 0
DWIDTH 36 0
BBX 25 58 6 0
BITMAP
3C001E00
3E007C00
1F80F800
0FC1F000
07E3E000
03F7E000
01FFC000
00FF8000
007F0000
007E0000
00000000
00000000
00000000
00000000
00000000
FFFFFF80
FFFFFF80
FFFFFF80
FFFFFF80
F8000000
F8000000
F8000000
F8000000
F8000000
F8000000
F8000000
F8000000
F8000000
F8000000
F8000000
F8000000
F8000000
F8000000
FFFFFF00
FFFFFF00
FFFFFF00
FFFFFF00
F8000000
F8000000
F8000000
F8000000
F8000000
F8000000
F8000000
F8000000
F8000000
F8000000
F8000000
F8000000
F8000000
F8000000
F8000000
F8000000
F8000000
FFFFFF80
FFFFFF80
FFFFFF80
FFFFFF80
ENDCHAR
STARTCHAR 011B
ENCODING 283
SWIDTH 600 0
DWIDTH 36 0
BBX 28 48 4 -1
BITMAP
0F000700
0F801F00
07C03E00
03F07C00
01F8F800
00FDF000
007FF000
003FE000
003FC000
001F8000
00000000
00000000
00000000
00000000
00020000
007FF000
01FFFC00
07FFFF00
0FFFFF80
1FE03FC0
1F800FC0
3F0007E0
7E0003E0
7E0003F0
7C0003F0
FC0001F0
F80001F0
F80001F0
FFFFFFF0
FFFFFFF0
FFFFFFF0
FFFFFFF0
F8000000
F8000000
F8000000
F8000000
FC000000
FC000000
7E000000
7E000000
3F000000
3FC00060
1FF007E0
0FFFFFE0
07FFFFE0
01FFFFC0
007FFF00
00018000
ENDCHAR
STARTCHAR 011C
ENCODING 284
SWIDTH 600 0
DWIDTH 36 0
BBX 29 59 3 -1
BITMAP
0003E000
0007F000
000FF000
001FF800
001FFC00
003E7E00
007C3F00
00F81F80
01F007C0
03E003C0
00000000
00000000
00000000
00000000
00002000
001FFF80
007FFFF0
01FFFFF0
03FFFFF0
07FC01E0
0FF00060
0FC00000
1F800000
3F800000
3F000000
3E000000
7E000000
7E000000
7C000000
FC000000
FC000000
FC000000
F8000000
F8000000
F8000000
F8000000
F800FFF8
F800FFF8
F800FFF8
F800FFF8
F80000F8
F80000F8
FC0000F8
FC0000F8
FC0000F8
7C0000F8
7E0000F8
7E0000F8
3F0000F8
3F0000F8
3F8000F8
1FC000F8
0FE000F8
07F803F8
03FFFFF8
01FFFFF8
00FFFFF8
001FFFC0
0000C000
ENDCHAR
STARTCHAR 011D
ENCODING 285
SWIDTH 600 0
DWIDTH 36 0
BBX 28 61 3 -14
BITMAP
000FC000
000FC000
001FE000
003FF000
007FF800
00FCF800
00F87C00
01F03E00
03E01F00
07800780
00000000
00000000
00000000
00000000
00040000
00FFE0F0
03FFF0F0
07FFF9F0
0FFFFDF0
1FE03FF0
1F800FF0
3F0007F0
3F0003F0
7E0003F0
7E0003F0
7C0001F0
7C0001F0
7C0001F0
FC0001F0
FC0001F0
FC0001F0
FC0001F0
FC0001F0
FC0001F0
FC0001F0
7C0001F0
7C0001F0
7E0001F0
7E0003F0
3F0003F0
3F0007F0
1F800FF0
1FE03FF0
0FFFFFF0
07FFFDF0
03FFF9F0
00FFE1F0
000601F0
000001F0
000001F0
000001F0
000001F0
000003F0
000003E0
200007E0
3C001FC0
3FF1FFC0
3FFFFF80
3FFFFF00
0FFFFC00
00FFE000
ENDCHAR
STARTCHAR 011E
ENCODING 286
SWIDTH 600 0
DWIDTH 36 0
BBX 29 57 3 -1
BITMAP
01E003C0
01E00780
01F00780
00FE7F80
00FFFF00
007FFE00
003FFC00
0007F000
00000000
00000000
00000000
00000000
00002000
001FFF80
007FFFF0
01FFFFF0
03FFFFF0
07FC01E0
0FF00060
0FC00000
1F800000
3F800000
3F000000
3E000000
7E000000
7E000000
7C000000
FC000000
FC000000
FC000000
F8000000
F8000000
F8000000
F8000000
F800FFF8
F800FFF8
F800FFF8
F800FFF8
F80000F8
F80000F8
FC0000F8
FC0000F8
FC0000F8
7C0000F8
7E0000F8
7E0000F8
3F0000F8
3F0000F8
3F8000F8
1FC000F8
0FE000F8
07F803F8
03FFFFF8
01FFFFF8
00FFFFF8
001FFFC0
0000C000
ENDCHAR
STARTCHAR 011F
ENCODING 287
SWIDTH 600 0
DWIDTH 36 0
BBX 28 59 3 -14
BITMAP
03800700
03C00F00
03E01F00
03FCFE00
01FFFE00
00FFFC00
007FF800
001FC000
00000000
00000000
00000000
00000000
00040000
00FFE0F0
03FFF0F0
07FFF9F0
0FFFFDF0
1FE03FF0
1F800FF0
3F0007F0
3F0003F0
7E0003F0
7E0003F0
7C0001F0
7C0001F0
7C0001F0
FC0001F0
FC0001F0
FC0001F0
FC0001F0
FC0001F0
FC0001F0
FC0001F0
7C0001F0
7C0001F0
7E0001F0
7E0003F0
3F0003F0
3F0007F0
1F800FF0
1FE03FF0
0FFFFFF0
07FFFDF0
03FFF9F0
00FFE1F0
000601F0
000001F0
000001F0
000001F0
000001F0
000003F0
000003E0
200007E0
3C001FC0
3FF1FFC0
3FFFFF80
3FFFFF00
0FFFFC00
00FFE000
ENDCHAR
STARTCHAR 0120
ENCODING 288
SWIDTH 600 0
DWIDTH 36 0
BBX 29 58 3 -1
BITMAP
0003C000
0007E000
0007F000
000FF000
000FF000
0007F000
0007E000
0003C000
00000000
00000000
00000000
00000000
00000000
00002000
001FFF80
007FFFF0
01FFFFF0
03FFFFF0
07FC01E0
0FF00060
0FC00000
1F800000
3F800000
3F000000
3E000000
7E000000
7E000000
7C000000
FC000000
FC000000
FC000000
F8000000
F8000000
F8000000
F8000000
F800FFF8
F800FFF8
F800FFF8
F800FFF8
F80000F8
F80000F8
FC0000F8
FC0000F8
FC0000F8
7C0000F8
7E0000F8
7E0000F8
3F0000F8
3F0000F8
3F8000F8
1FC000F8
0FE000F8
07F803F8
03FFFFF8
01FFFFF8
00FFFFF8
001FFFC0
0000C000
ENDCHAR
STARTCHAR 0121
ENCODING 289
SWIDTH 600 0
DWIDTH 36 0
BBX 28 60 3 -14
BITMAP
00078000
000FC000
001FE000
001FE000
001FE000
001FE000
000FC000
00078000
00000000
00000000
00000000
00000000
00000000
00040000
00FFE0F0
03FFF0F0
07FFF9F0
0FFFFDF0
1FE03FF0
1F800FF0
3F0007F0
3F0003F0
7E0003F0
7E0003F0
7C0001F0
7C0001F0
7C0001F0
FC0001F0
FC0001F0
FC0001F0
FC0001F0
FC0001F0
FC0001F0
FC0001F0
7C0001F0
7C0001F0
7E0001F0
7E0003F0
3F0003F0
3F0007F0
1F800FF0
1FE03FF0
0FFFFFF0
07FFFDF0
03FFF9F0
00FFE1F0
000601F0
000001F0
000001F0
000001F0
000001F0
000003F0
000003E0
200007E0
3C001FC0
3FF1FFC0
3FFFFF80
3FFFFF00
0FFFFC00
00FFE000
ENDCHAR
STARTCHAR 0122
ENCODING 290
SWIDTH 600 0
DWIDTH 36 0
BBX 29 57 3 -13
BITMAP
00002000
001FFF80
007FFFF0
01FFFFF0
03FFFFF0
07FC01E0
0FF00060
0FC00000
1F800000
3F800000
3F000000
3E000000
7E000000
7E000000
7C000000
FC000000
FC000000
FC000000
F8000000
F8000000
F8000000
F8000000
F800FFF8
F800FFF8
F800FFF8
F800FFF8
F80000F8
F80000F8
FC0000F8
FC0000F8
FC0000F8
7C0000F8
7E0000F8
7E0000F8
3F0000F8
3F0000F8
3F8000F8
1FC000F8
0FE000F8
07F803F8
03FFFFF8
01FFFFF8
00FFFFF8
001FFFC0
0000C000
00000000
00000000
0001F000
0003F000
0003E000
0003E000
0003C000
0003C000
00078000
00078000
00070000
000E0000
ENDCHAR
STARTCHAR 0123
ENCODING 291
SWIDTH 600 0
DWIDTH 36 0
BBX 28 60 3 -14
BITMAP
0000E000
0001E000
0003C000
0003C000
0007C000
00078000
000F8000
000F8000
001F8000
001F0000
00000000
00000000
00000000
00040000
00FFE0F0
03FFF0F0
07FFF9F0
0FFFFDF0
1FE03FF0
1F800FF0
3F0007F0
3F0003F0
7E0003F0
7E0003F0
7C0001F0
7C0001F0
7C0001F0
FC0001F0
FC0001F0
FC0001F0
FC0001F0
FC0001F0
FC0001F0
FC0001F0
7C0001F0
7C0001F0
7E0001F0
7E0003F0
3F0003F0
3F0007F0
1F800FF0
1FE03FF0
0FFFFFF0
07FFFDF0
03FFF9F0
00FFE1F0
000601F0
000001F0
000001F0
000001F0
000001F0
000003F0
000003E0
200007E0
3C001FC0
3FF1FFC0
3FFFFF80
3FFFFF00
0FFFFC00
00FFE000
ENDCHAR
STARTCHAR 0124
ENCODING 292
SWIDTH 600 0
DWIDTH 36 0
BBX 28 58 4 0
BITMAP
001F8000
001F8000
003FC000
007FE000
00FFF000
01F9F000
01F0F800
03E07C00
07C03E00
0F000F00
00000000
00000000
00000000
00000000
00000000
FC0003F0
FC0003F0
FC0003F0
FC0003F0
FC0003F0
FC0003F0
FC0003F0
FC0003F0
FC0003F0
FC0003F0
FC0003F0
FC0003F0
FC0003F0
FC0003F0
FC0003F0
FC0003F0
FC0003F0
FC0003F0
FFFFFFF0
FFFFFFF0
FFFFFFF0
FFFFFFF0
FC0003F0
FC0003F0
FC0003F0
FC0003F0
FC0003F0
FC0003F0
FC0003F0
FC0003F0
FC0003F0
FC0003F0
FC0003F0
FC0003F0
FC0003F0
FC0003F0
FC0003F0
FC0003F0
FC0003F0
FC0003F0
FC0003F0
FC0003F0
FC0003F0
ENDCHAR
STARTCHAR 0125
ENCODING 293
SWIDTH 600 0
DWIDTH 36 0
BBX 35 60 -3 0
BITMAP
00F8000000
01FC000000
03FE000000
03FE000000
07DF000000
0F8F800000
1F07C00000
3E03E00000
7C01F00000
F800F80000
0000000000
0000000000
0000000000
0000000000
00F8000000
00F8000000
00F8000000
00F8000000
00F8000000
00F8000000
00F8000000
00F8000000
00F8000000
00F8000000
00F8000000
00F8000000
00F8000000
00F8010000
00F83FF800
00F87FFC00
00F9FFFF00
00F9FFFF80
00FBE07F80
00FF801FC0
00FF000FC0
00FE000FC0
00FE0007C0
00FC0007C0
00FC0007C0
00FC0007E0
00F80007E0
00F80007E0
00F80007E0
00F80007E0
00F80007E0
00F80007E0
00F80007E0
00F80007E0
00F80007E0
00F80007E0
00F80007E0
00F80007E0
00F80007E0
00F80007E0
00F80007E0
00F80007E0
00F80007E0
00F80007E0
00F80007E0
00F80007E0
ENDCHAR
STARTCHAR 0126
ENCODING 294
SWIDTH 600 0
DWIDTH 36 0
BBX 36 43 0 0
BITMAP
0FC0003F00
0FC0003F00
0FC0003F00
0FC0003F00
0FC0003F00
0FC0003F00
0FC0003F00
FFFFFFFFF0
FFFFFFFFF0
FFFFFFFFF0
FFFFFFFFF0
0FC0003F00
0FC0003F00
0FC0003F00
0FC0003F00
0FC0003F00
0FC0003F00
0FC0003F00
0FFFFFFF00
0FFFFFFF00
0FFFFFFF00
0FFFFFFF00
0FC0003F00
0FC0003F00
0FC0003F00
0FC0003F00
0FC0003F00
0FC0003F00
0FC0003F00
0FC0003F00
0FC0003F00
0FC0003F00
0FC0003F00
0FC0003F00
0FC0003F00
0FC0003F00
0FC0003F00
0FC0003F00
0FC0003F00
0FC0003F00
0FC0003F00
0FC0003F00
0FC0003F00
ENDCHAR
STARTCHAR 0127
ENCODING 295
SWIDTH 600 0
DWIDTH 36 0
BBX 32 46 0 0
BITMAP
07C00000
07C00000
07C00000
07C00000
07C00000
07C00000
FFFFF800
FFFFF800
FFFFF800
FFFFF800
07C00000
07C00000
07C00000
07C00800
07C1FFC0
07C3FFE0
07CFFFF8
07CFFFFC
07DF03FC
07FC00FE
07F8007E
07F0007E
07F0003E
07E0003E
07E0003E
07E0003F
07C0003F
07C0003F
07C0003F
07C0003F
07C0003F
07C0003F
07C0003F
07C0003F
07C0003F
07C0003F
07C0003F
07C0003F
07C0003F
07C0003F
07C0003F
07C0003F
07C0003F
07C0003F
07C0003F
07C0003F
ENDCHAR
STARTCHAR 0128
ENCODING 296
SWIDTH 600 0
DWIDTH 36 0
BBX 22 56 7 0
BITMAP
0F801C
1FE03C
3FF838
7FFEF8
7DFFF8
703FF0
F01FE0
E007C0
000000
000000
000000
000000
000000
FFFFFC
FFFFFC
FFFFFC
FFFFFC
3FFFE0
00FC00
00FC00
00FC00
00FC00
00FC00
00FC00
00FC00
00FC00
00FC00
00FC00
00FC00
00FC00
00FC00
00FC00
00FC00
00FC00
00FC00
00FC00
00FC00
00FC00
00FC00
00FC00
00FC00
00FC00
00FC00
00FC00
00FC00
00FC00
00FC00
00FC00
00FC00
00FC00
00FC00
00FC00
FFFFFC
FFFFFC
FFFFFC
FFFFFC
ENDCHAR
STARTCHAR 0129
ENCODING 297
SWIDTH 600 0
DWIDTH 36 0
BBX 27 45 5 0
BITMAP
03E00700
07F80F00
0FFE0E00
1FFFBE00
1F7FFE00
1C0FFC00
3C07F800
3801F000
00000000
00000000
00000000
00000000
00000000
7FFF8000
7FFF8000
7FFF8000
7FFF8000
003F8000
001F8000
001F8000
001F8000
001F8000
001F8000
001F8000
001F8000
001F8000
001F8000
001F8000
001F8000
001F8000
001F8000
001F8000
001F8000
001F8000
001F8000
001F8000
001F8000
001F8000
001F8000
001F8000
001F8000
FFFFFFE0
FFFFFFE0
FFFFFFE0
FFFFFFE0
ENDCHAR
STARTCHAR 012A
ENCODING 298
SWIDTH 600 0
DWIDTH 36 0
BBX 22 52 7 0
BITMAP
3FFFF0
3FFFF0
3FFFF0
3FFFF0
000000
000000
000000
000000
000000
FFFFFC
FFFFFC
FFFFFC
FFFFFC
3FFFE0
00FC00
00FC00
00FC00
00FC00
00FC00
00FC00
00FC00
00FC00
00FC00
00FC00
00FC00
00FC00
00FC00
00FC00
00FC00
00FC00
00FC00
00FC00
00FC00
00FC00
00FC00
00FC00
00FC00
00FC00
00FC00
00FC00
00FC00
00FC00
00FC00
00FC00
00FC00
00FC00
00FC00
00FC00
FFFFFC
FFFFFC
FFFFFC
FFFFFC
ENDCHAR
STARTCHAR 012B
ENCODING 299
SWIDTH 600 0
DWIDTH 36 0
BBX 27 41 5 0
BITMAP
0FFFFC00
0FFFFC00
0FFFFC00
0FFFFC00
00000000
00000000
00000000
00000000
00000000
7FFF8000
7FFF8000
7FFF8000
7FFF8000
003F8000
001F8000
001F8000
001F8000
001F8000
001F8000
001F8000
001F8000
001F8000
001F8000
001F8000
001F8000
001F8000
001F8000
001F8000
001F8000
001F8000
001F8000
001F8000
001F8000
001F8000
001F8000
001F8000
001F8000
FFFFFFE0
FFFFFFE0
FFFFFFE0
FFFFFFE0
ENDCHAR
STARTCHAR 012C
ENCODING 300
SWIDTH 600 0
DWIDTH 36 0
BBX 22 56 7 0
BITMAP
380070
3C00F0
3E01F0
3FCFE0
1FFFE0
0FFFC0
07FF80
01FC00
000000
000000
000000
000000
000000
FFFFFC
FFFFFC
FFFFFC
FFFFFC
3FFFE0
00FC00
00FC00
00FC00
00FC00
00FC00
00FC00
00FC00
00FC00
00FC00
00FC00
00FC00
00FC00
00FC00
00FC00
00FC00
00FC00
00FC00
00FC00
00FC00
00FC00
00FC00
00FC00
00FC00
00FC00
00FC00
00FC00
00FC00
00FC00
00FC00
00FC00
00FC00
00FC00
00FC00
00FC00
FFFFFC
FFFFFC
FFFFFC
FFFFFC
ENDCHAR
STARTCHAR 012D
ENCODING 301
SWIDTH 600 0
DWIDTH 36 0
BBX 27 45 5 0
BITMAP
0E001C00
0F003C00
0F807C00
0FF3F800
07FFF800
03FFF000
01FFE000
007F0000
00000000
00000000
00000000
00000000
00000000
7FFF8000
7FFF8000
7FFF8000
7FFF8000
003F8000
001F8000
001F8000
001F8000
001F8000
001F8000
001F8000
001F8000
001F8000
001F8000
001F8000
001F8000
001F8000
001F8000
001F8000
001F8000
001F8000
001F8000
001F8000
001F8000
001F8000
001F8000
001F8000
001F8000
FFFFFFE0
FFFFFFE0
FFFFFFE0
FFFFFFE0
ENDCHAR
STARTCHAR 012E
ENCODING 302
SWIDTH 600 0
DWIDTH 36 0
BBX 22 56 7 -13
BITMAP
FFFFFC
FFFFFC
FFFFFC
FFFFFC
3FFFE0
00FC00
00FC00
00FC00
00FC00
00FC00
00FC00
00FC00
00FC00
00FC00
00FC00
00FC00
00FC00
00FC00
00FC00
00FC00
00FC00
00FC00
00FC00
00FC00
00FC00
00FC00
00FC00
00FC00
00FC00
00FC00
00FC00
00FC00
00FC00
00FC00
00FC00
00FC00
00FC00
00FC00
00FC00
FFFFFC
FFFFFC
FFFFFC
FFFFFC
0003C0
000780
000780
000F00
000F00
001F00
001F00
001F00
001F80
001FF8
000FF8
0007F8
0003F8
ENDCHAR
STARTCHAR 012F
ENCODING 303
SWIDTH 600 0
DWIDTH 36 0
BBX 27 59 5 -13
BITMAP
001E0000
003F8000
003F8000
003F8000
003F8000
003F8000
003F8000
001E0000
00000000
00000000
00000000
00000000
00000000
00000000
7FFF8000
7FFF8000
7FFF8000
7FFF8000
003F8000
001F8000
001F8000
001F8000
001F8000
001F8000
001F8000
001F8000
001F8000
001F8000
001F8000
001F8000
001F8000
001F8000
001F8000
001F8000
001F8000
001F8000
001F8000
001F8000
001F8000
001F8000
001F8000
001F8000
FFFFFFE0
FFFFFFE0
FFFFFFE0
FFFFFFE0
00007800
00007800
0000F000
0001E000
0001E000
0003E000
0003E000
0003E000
0003F000
0001FF00
0001FF00
0000FF00
00007F00
ENDCHAR
STARTCHAR 0130
ENCODING 304
SWIDTH 600 0
DWIDTH 36 0
BBX 22 57 7 0
BITMAP
007800
00FC00
01FE00
01FE00
01FE00
01FE00
00FC00
007800
000000
000000
000000
000000
000000
000000
FFFFFC
FFFFFC
FFFFFC
FFFFFC
3FFFE0
00FC00
00FC00
00FC00
00FC00
00FC00
00FC00
00FC00
00FC00
00FC00
00FC00
00FC00
00FC00
00FC00
00FC00
00FC00
00FC00
00FC00
00FC00
00FC00
00FC00
00FC00
00FC00
00FC00
00FC00
00FC00
00FC00
00FC00
00FC00
00FC00
00FC00
00FC00
00FC00
00FC00
00FC00
FFFFFC
FFFFFC
FFFFFC
FFFFFC
ENDCHAR
STARTCHAR 0131
ENCODING 305
SWIDTH 600 0
DWIDTH 36 0
BBX 27 32 5 0
BITMAP
7FFF8000
7FFF8000
7FFF8000
7FFF8000
003F8000
001F8000
001F8000
001F8000
001F8000
001F8000
001F8000
001F8000
001F8000
001F8000
001F8000
001F8000
001F8000
001F8000
001F8000
001F8000
001F8000
001F8000
001F8000
001F8000
001F8000
001F8000
001F8000
001F8000
FFFFFFE0
FFFFFFE0
FFFFFFE0
FFFFFFE0
ENDCHAR
STARTCHAR 0132
ENCODING 306
SWIDTH 600 0
DWIDTH 36 0
BBX 24 44 6 -1
BITMAP
F8001F
F8001F
F8001F
F8001F
F8001F
F8001F
F8001F
F8001F
F8001F
F8001F
F8001F
F8001F
F8001F
F8001F
F8001F
F8001F
F8001F
F8001F
F8001F
F8001F
F8001F
F8001F
F8001F
F8001F
F8001F
F8001F
F8001F
F8001F
F8001F
F8001F
F8001F
00003F
00003F
00003F
00003E
00007E
00007E
8001FC
F807FC
FFFFF8
FFFFF0
FFFFC0
3FFF00
006000
ENDCHAR
STARTCHAR 0133
ENCODING 307
SWIDTH 600 0
DWIDTH 36 0
BBX 24 60 6 -14
BITMAP
3C003C
7E007E
FE007F
FF00FF
FF007F
FE007F
7E007E
3C003C
000000
000000
000000
000000
000000
000000
7C003E
7C003E
7C003E
7C003E
7C003E
7C003E
7C003E
7C003E
7C003E
7C003E
7C003E
7C003E
7C003E
7C003E
7C003E
7C003E
7C003E
7C003E
7C003E
7C003E
7C003E
7C003E
7C003E
7C003E
7C003E
7C003E
7C003E
7C003E
7C003E
7C003E
7C003E
7C003E
00003E
00003E
00003E
00003E
00003E
00007E
00007E
0000FC
4001FC
3FBFF8
3FFFF0
3FFFE0
3FFFC0
0FFE00
ENDCHAR
STARTCHAR 0134
ENCODING 308
SWIDTH 600 0
DWIDTH 36 0
BBX 29 59 6 -1
BITMAP
0000FC00
0000FC00
0001FE00
0003FF00
0007FF80
0007CFC0
000F87E0
001F03F0
003E01F0
00780078
00000000
00000000
00000000
00000000
00000000
0000FC00
0000FC00
0000FC00
0000FC00
0000FC00
0000FC00
0000FC00
0000FC00
0000FC00
0000FC00
0000FC00
0000FC00
0000FC00
0000FC00
0000FC00
0000FC00
0000FC00
0000FC00
0000FC00
0000FC00
0000FC00
0000FC00
0000FC00
0000FC00
0000FC00
0000FC00
0000FC00
0000FC00
0000FC00
0000FC00
0000FC00
0000FC00
0000FC00
0000FC00
0000F800
0001F800
0001F800
8003F000
F00FF000
FFFFE000
FFFFC000
FFFF8000
3FFE0000
00C00000
ENDCHAR
STARTCHAR 0135
ENCODING 309
SWIDTH 600 0
DWIDTH 36 0
BBX 27 61 4 -14
BITMAP
0003E000
0007F000
000FF000
001FF800
001FFC00
003E7E00
007C1F00
00F80F80
01F007C0
03E003E0
00000000
00000000
00000000
00000000
00000000
0FFFF000
0FFFF000
0FFFF000
0FFFF000
000FF000
0003F000
0003F000
0003F000
0003F000
0003F000
0003F000
0003F000
0003F000
0003F000
0003F000
0003F000
0003F000
0003F000
0003F000
0003F000
0003F000
0003F000
0003F000
0003F000
0003F000
0003F000
0003F000
0003F000
0003F000
0003F000
0003F000
0003F000
0003F000
0003F000
0003F000
0003F000
0003F000
0003F000
0007E000
0007E000
800FE000
FCFFC000
FFFF8000
FFFF0000
FFFE0000
3FF00000
ENDCHAR
STARTCHAR 0136
ENCODING 310
SWIDTH 600 0
DWIDTH 36 0
BBX 29 56 4 -13
BITMAP
FC0003F0
FC0007E0
FC000FE0
FC000FC0
FC001F80
FC003F00
FC007F00
FC007E00
FC00FC00
FC01FC00
FC01F800
FC03F000
FC07E000
FC0FE000
FC0FC000
FC1F8000
FC3F8000
FC7F0000
FC7E0000
FCFC0000
FDFE0000
FDFE0000
FFFF0000
FFDF8000
FF9F8000
FF8FC000
FF0FC000
FE07E000
FC03F000
FC03F000
FC01F800
FC00FC00
FC00FC00
FC007E00
FC007F00
FC003F00
FC001F80
FC001F80
FC000FC0
FC0007E0
FC0007E0
FC0003F0
FC0003F8
00000000
00000000
00000000
000F8000
000F8000
000F8000
001F0000
001F0000
001E0000
001E0000
003C0000
003C0000
00380000
ENDCHAR
STARTCHAR 0137
ENCODING 311
SWIDTH 600 0
DWIDTH 36 0
BBX 28 59 6 -13
BITMAP
FC000000
FC000000
FC000000
FC000000
FC000000
FC000000
FC000000
FC000000
FC000000
FC000000
FC000000
FC000000
FC000000
FC000000
FC000FE0
FC000FC0
FC001F80
FC003F00
FC007E00
FC00FC00
FC01F800
FC03F000
FC07F000
FC0FE000
FC1FC000
FC3F8000
FC3F0000
FC7E0000
F8FE0000
F9FF0000
FBFF8000
FFDF8000
FF8FC000
FF07E000
FE03F000
FC03F000
FC01F800
FC00FC00
FC00FE00
FC007E00
FC003F00
FC001F80
FC001FC0
FC000FC0
FC0007E0
FC0003F0
00000000
00000000
00000000
000F8000
000F8000
001F0000
001F0000
001F0000
001E0000
003E0000
003C0000
00380000
00780000
ENDCHAR
STARTCHAR 0138
ENCODING 312
SWIDTH 600 0
DWIDTH 36 0
BBX 28 32 6 0
BITMAP
FC000FE0
FC000FC0
FC001F80
FC003F00
FC007E00
FC00FC00
FC01F800
FC03F000
FC07F000
FC0FE000
FC1FC000
FC3F8000
FC3F0000
FC7E0000
F8FE0000
F9FF0000
FBFF8000
FFDF8000
FF8FC000
FF07E000
FE03F000
FC03F000
FC01F800
FC00FC00
FC00FE00
FC007E00
FC003F00
FC001F80
FC001FC0
FC000FC0
FC0007E0
FC0003F0
ENDCHAR
STARTCHAR 0139
ENCODING 313
SWIDTH 600 0
DWIDTH 36 0
BBX 24 58 7 0
BITMAP
03F000
07F000
07E000
0FC000
0FC000
1F8000
3F0000
3E0000
7C0000
F00000
000000
000000
000000
000000
000000
F80000
F80000
F80000
F80000
F80000
F80000
F80000
F80000
F80000
F80000
F80000
F80000
F80000
F80000
F80000
F80000
F80000
F80000
F80000
F80000
F80000
F80000
F80000
F80000
F80000
F80000
F80000
F80000
F80000
F80000
F80000
F80000
F80000
F80000
F80000
F80000
F80000
F80000
F80000
FFFFFF
FFFFFF
FFFFFF
FFFFFF
ENDCHAR
STARTCHAR 013A
ENCODING 314
SWIDTH 600 0
DWIDTH 36 0
BBX 27 60 5 0
BITMAP
0000FE00
0000FC00
0001FC00
0001F800
0003F000
0007E000
0007C000
000F8000
001F0000
001E0000
00000000
00000000
00000000
00000000
FFFF8000
FFFF8000
FFFF8000
FFFF8000
000F8000
000F8000
000F8000
000F8000
000F8000
000F8000
000F8000
000F8000
000F8000
000F8000
000F8000
000F8000
000F8000
000F8000
000F8000
000F8000
000F8000
000F8000
000F8000
000F8000
000F8000
000F8000
000F8000
000F8000
000F8000
000F8000
000F8000
000F8000
000F8000
000F8000
000F8000
000F8000
000F8000
000F8000
000F8000
000F8000
000F8000
000F8000
FFFFFFE0
FFFFFFE0
FFFFFFE0
FFFFFFE0
ENDCHAR
STARTCHAR 013B
ENCODING 315
SWIDTH 600 0
DWIDTH 36 0
BBX 24 56 7 -13
BITMAP
F80000
F80000
F80000
F80000
F80000
F80000
F80000
F80000
F80000
F80000
F80000
F80000
F80000
F80000
F80000
F80000
F80000
F80000
F80000
F80000
F80000
F80000
F80000
F80000
F80000
F80000
F80000
F80000
F80000
F80000
F80000
F80000
F80000
F80000
F80000
F80000
F80000
F80000
F80000
FFFFFF
FFFFFF
FFFFFF
FFFFFF
000000
000000
000000
003F00
003E00
003E00
003C00
007C00
007800
007800
00F000
00F000
00E000
ENDCHAR
STARTCHAR 013C
ENCODING 316
SWIDTH 600 0
DWIDTH 36 0
BBX 27 59 5 -13
BITMAP
FFFF8000
FFFF8000
FFFF8000
FFFF8000
000F8000
000F8000
000F8000
000F8000
000F8000
000F8000
000F8000
000F8000
000F8000
000F8000
000F8000
000F8000
000F8000
000F8000
000F8000
000F8000
000F8000
000F8000
000F8000
000F8000
000F8000
000F8000
000F8000
000F8000
000F8000
000F8000
000F8000
000F8000
000F8000
000F8000
000F8000
000F8000
000F8000
000F8000
000F8000
000F8000
000F8000
000F8000
FFFFFFE0
FFFFFFE0
FFFFFFE0
FFFFFFE0
00000000
00000000
00000000
000F8000
000F8000
001F0000
001F0000
001E0000
001E0000
003C0000
003C0000
00380000
00780000
ENDCHAR
STARTCHAR 013D
ENCODING 317
SWIDTH 600 0
DWIDTH 36 0
BBX 24 43 7 0
BITMAP
F8003E
F8003E
F8003E
F8007C
F8007C
F80078
F80078
F80070
F800F0
F800E0
F80000
F80000
F80000
F80000
F80000
F80000
F80000
F80000
F80000
F80000
F80000
F80000
F80000
F80000
F80000
F80000
F80000
F80000
F80000
F80000
F80000
F80000
F80000
F80000
F80000
F80000
F80000
F80000
F80000
FFFFFF
FFFFFF
FFFFFF
FFFFFF
ENDCHAR
STARTCHAR 013E
ENCODING 318
SWIDTH 600 0
DWIDTH 36 0
BBX 29 46 5 0
BITMAP
FFFF81F8
FFFF81F8
FFFF81F0
FFFF81F0
000F81E0
000F81E0
000F83C0
000F83C0
000F8380
000F8380
000F8000
000F8000
000F8000
000F8000
000F8000
000F8000
000F8000
000F8000
000F8000
000F8000
000F8000
000F8000
000F8000
000F8000
000F8000
000F8000
000F8000
000F8000
000F8000
000F8000
000F8000
000F8000
000F8000
000F8000
000F8000
000F8000
000F8000
000F8000
000F8000
000F8000
000F8000
000F8000
FFFFFFE0
FFFFFFE0
FFFFFFE0
FFFFFFE0
ENDCHAR
STARTCHAR 013F
ENCODING 319
SWIDTH 600 0
DWIDTH 36 0
BBX 24 43 7 0
BITMAP
F80000
F80000
F80000
F80000
F80000
F80000
F80000
F80000
F80000
F80000
F80000
F80000
F80000
F80000
F80000
F80000
F80008
F8007E
F8007F
F8007F
F800FF
F8007F
F8007F
F8007E
F80008
F80000
F80000
F80000
F80000
F80000
F80000
F80000
F80000
F80000
F80000
F80000
F80000
F80000
F80000
FFFFFF
FFFFFF
FFFFFF
FFFFFF
ENDCHAR
STARTCHAR 0140
ENCODING 320
SWIDTH 600 0
DWIDTH 36 0
BBX 35 46 5 0
BITMAP
FFFF800000
FFFF800000
FFFF800000
FFFF800000
000F800000
000F800000
000F800000
000F800000
000F800000
000F800000
000F800000
000F800000
000F800000
000F800000
000F800000
000F800000
000F800000
000F800200
000F800FC0
000F800FC0
000F801FE0
000F801FE0
000F801FE0
000F800FC0
000F800FC0
000F800200
000F800000
000F800000
000F800000
000F800000
000F800000
000F800000
000F800000
000F800000
000F800000
000F800000
000F800000
000F800000
000F800000
000F800000
000F800000
000F800000
FFFFFFE000
FFFFFFE000
FFFFFFE000
FFFFFFE000
ENDCHAR
STARTCHAR 0141
ENCODING 321
SWIDTH 600 0
DWIDTH 36 0
BBX 30 43 3 0
BITMAP
03F00000
03F00000
03F00000
03F00000
03F00000
03F00000
03F00000
03F00000
03F00000
03F00000
03F00000
03F00000
03F00000
03F00000
03F00000
03F00000
03F02000
03F0F000
03F1F000
03F7F800
03FFF000
03FFC000
03FF0000
03FE0000
07F80000
1FF00000
7FF00000
FFF00000
7FF00000
3BF00000
23F00000
03F00000
03F00000
03F00000
03F00000
03F00000
03F00000
03F00000
03F00000
03FFFFFC
03FFFFFC
03FFFFFC
03FFFFFC
ENDCHAR
STARTCHAR 0142
ENCODING 322
SWIDTH 600 0
DWIDTH 36 0
BBX 27 46 5 0
BITMAP
FFFF8000
FFFF8000
FFFF8000
FFFF8000
000F8000
000F8000
000F8000
000F8000
000F8000
000F8000
000F8000
000F8000
000F8000
000F8000
000F8000
000F8000
000F8000
000F8400
000F8E00
000FBF00
000FFF00
000FFE00
000FF800
000FF000
003FC000
00FF8000
01FF8000
07FF8000
0FEF8000
0FCF8000
070F8000
020F8000
000F8000
000F8000
000F8000
000F8000
000F8000
000F8000
000F8000
000F8000
000F8000
000F8000
FFFFFFE0
FFFFFFE0
FFFFFFE0
FFFFFFE0
ENDCHAR
STARTCHAR 0143
ENCODING 323
SWIDTH 600 0
DWIDTH 36 0
BBX 28 58 4 0
BITMAP
00003F00
00007F00
0000FE00
0000FC00
0001F800
0001F000
0003E000
0007C000
000F8000
000F0000
00000000
00000000
00000000
00000000
00000000
FF0001F0
FF0001F0
FF0001F0
FF8001F0
FF8001F0
FFC001F0
FFC001F0
FBE001F0
FBE001F0
FBE001F0
F9F001F0
F9F001F0
F8F801F0
F8F801F0
F87C01F0
F87C01F0
F83E01F0
F83E01F0
F83E01F0
F81F01F0
F81F01F0
F80F81F0
F80F81F0
F807C1F0
F807C1F0
F803C1F0
F803E1F0
F803E1F0
F801F1F0
F801F1F0
F800F9F0
F800F9F0
F80079F0
F8007DF0
F8007DF0
F8003FF0
F8003FF0
F8001FF0
F8001FF0
F8000FF0
F8000FF0
F80007F0
F80007F0
ENDCHAR
STARTCHAR 0144
ENCODING 324
SWIDTH 600 0
DWIDTH 36 0
BBX 27 47 5 0
BITMAP
00007E00
0000FE00
0000FC00
0001FC00
0001F800
0003F000
0007E000
0007C000
000F8000
001E0000
00000000
00000000
00000000
00000000
00010000
F03FF800
F0FFFE00
F9FFFF00
FBFFFF80
FBC03F80
FF801FC0
FF000FC0
FE000FC0
FC0007C0
FC0007C0
FC0007C0
FC0007E0
F80007E0
F80007E0
F80007E0
F80007E0
F80007E0
F80007E0
F80007E0
F80007E0
F80007E0
F80007E0
F80007E0
F80007E0
F80007E0
F80007E0
F80007E0
F80007E0
F80007E0
F80007E0
F80007E0
F80007E0
ENDCHAR
STARTCHAR 0145
ENCODING 325
SWIDTH 600 0
DWIDTH 36 0
BBX 28 56 4 -13
BITMAP
FF0001F0
FF0001F0
FF0001F0
FF8001F0
FF8001F0
FFC001F0
FFC001F0
FBE001F0
FBE001F0
FBE001F0
F9F001F0
F9F001F0
F8F801F0
F8F801F0
F87C01F0
F87C01F0
F83E01F0
F83E01F0
F83E01F0
F81F01F0
F81F01F0
F80F81F0
F80F81F0
F807C1F0
F807C1F0
F803C1F0
F803E1F0
F803E1F0
F801F1F0
F801F1F0
F800F9F0
F800F9F0
F80079F0
F8007DF0
F8007DF0
F8003FF0
F8003FF0
F8001FF0
F8001FF0
F8000FF0
F8000FF0
F80007F0
F80007F0
00000000
00000000
00000000
001F8000
001F0000
001F0000
001F0000
001E0000
003E0000
003C0000
003C0000
00780000
00700000
ENDCHAR
STARTCHAR 0146
ENCODING 326
SWIDTH 600 0
DWIDTH 36 0
BBX 27 46 5 -13
BITMAP
00010000
F03FF800
F0FFFE00
F9FFFF00
FBFFFF80
FBC03F80
FF801FC0
FF000FC0
FE000FC0
FC0007C0
FC0007C0
FC0007C0
FC0007E0
F80007E0
F80007E0
F80007E0
F80007E0
F80007E0
F80007E0
F80007E0
F80007E0
F80007E0
F80007E0
F80007E0
F80007E0
F80007E0
F80007E0
F80007E0
F80007E0
F80007E0
F80007E0
F80007E0
F80007E0
00000000
00000000
00000000
001F0000
001F0000
003E0000
003E0000
003E0000
003C0000
007C0000
00780000
00700000
00F00000
ENDCHAR
STARTCHAR 0147
ENCODING 327
SWIDTH 600 0
DWIDTH 36 0
BBX 28 58 4 0
BITMAP
0F000700
0F801F00
07C03E00
03F07C00
01F8F800
00FDF000
007FF000
003FE000
001FC000
001F8000
00000000
00000000
00000000
00000000
00000000
FF0001F0
FF0001F0
FF0001F0
FF8001F0
FF8001F0
FFC001F0
FFC001F0
FBE001F0
FBE001F0
FBE001F0
F9F001F0
F9F001F0
F8F801F0
F8F801F0
F87C01F0
F87C01F0
F83E01F0
F83E01F0
F83E01F0
F81F01F0
F81F01F0
F80F81F0
F80F81F0
F807C1F0
F807C1F0
F803C1F0
F803E1F0
F803E1F0
F801F1F0
F801F1F0
F800F9F0
F800F9F0
F80079F0
F8007DF0
F8007DF0
F8003FF0
F8003FF0
F8001FF0
F8001FF0
F8000FF0
F8000FF0
F80007F0
F80007F0
ENDCHAR
STARTCHAR 0148
ENCODING 328
SWIDTH 600 0
DWIDTH 36 0
BBX 27 47 5 0
BITMAP
0E000F00
0F801F00
07C07E00
03E0FC00
01F1F800
01FBF000
00FFE000
007FC000
003F8000
001F8000
00000000
00000000
00000000
00000000
00010000
F03FF800
F0FFFE00
F9FFFF00
FBFFFF80
FBC03F80
FF801FC0
FF000FC0
FE000FC0
FC0007C0
FC0007C0
FC0007C0
FC0007E0
F80007E0
F80007E0
F80007E0
F80007E0
F80007E0
F80007E0
F80007E0
F80007E0
F80007E0
F80007E0
F80007E0
F80007E0
F80007E0
F80007E0
F80007E0
F80007E0
F80007E0
F80007E0
F80007E0
F80007E0
ENDCHAR
STARTCHAR 0149
ENCODING 329
SWIDTH 600 0
DWIDTH 36 0
BBX 35 43 -3 0
BITMAP
1FC0000000
1F80000000
1F80000000
3F80000000
3F00000000
3F00000000
3F00000000
3E00000000
7E00000000
7E00000000
7C00010000
7C781FF800
78787FFE00
F878FFFF00
F87DFFFF80
007FE07F80
007FC01FC0
007F000FC0
007F000FC0
007E0007C0
007E0007C0
007E0007C0
007C0007E0
007C0007E0
007C0007E0
007C0007E0
007C0007E0
007C0007E0
007C0007E0
007C0007E0
007C0007E0
007C0007E0
007C0007E0
007C0007E0
007C0007E0
007C0007E0
007C0007E0
007C0007E0
007C0007E0
007C0007E0
007C0007E0
007C0007E0
007C0007E0
ENDCHAR
STARTCHAR 014A
ENCODING 330
SWIDTH 600 0
DWIDTH 36 0
BBX 28 54 4 -11
BITMAP
FF0001F0
FF0001F0
FF0001F0
FF8001F0
FF8001F0
FFC001F0
FFC001F0
FBE001F0
FBE001F0
FBE001F0
F9F001F0
F9F001F0
F8F801F0
F8F801F0
F87C01F0
F87C01F0
F83E01F0
F83E01F0
F83E01F0
F81F01F0
F81F01F0
F80F81F0
F80F81F0
F807C1F0
F807C1F0
F803C1F0
F803E1F0
F803E1F0
F801F1F0
F801F1F0
F800F9F0
F800F9F0
F80079F0
F8007DF0
F8007DF0
F8003FF0
F8003FF0
F8001FF0
F8001FF0
F8000FF0
F8000FF0
F80007F0
F80007F0
000001F0
000001F0
000003F0
000003E0
000003E0
000007E0
00081FC0
000FFFC0
000FFF80
000FFF00
000FFC00
ENDCHAR
STARTCHAR 014B
ENCODING 331
SWIDTH 600 0
DWIDTH 36 0
BBX 27 47 5 -14
BITMAP
00010000
F03FF800
F0FFFE00
F9FFFF00
FBFFFF80
FBC03F80
FF801FC0
FF000FC0
FE000FC0
FC0007C0
FC0007C0
FC0007C0
FC0007E0
F80007E0
F80007E0
F80007E0
F80007E0
F80007E0
F80007E0
F80007E0
F80007E0
F80007E0
F80007E0
F80007E0
F80007E0
F80007E0
F80007E0
F80007E0
F80007E0
F80007E0
F80007E0
F80007E0
F80007E0
000007E0
000007E0
000007E0
000007E0
000007E0
000007C0
000007C0
000007C0
00000FC0
00033FC0
0003FF80
0003FF00
0003FE00
0003F800
ENDCHAR
STARTCHAR 014C
ENCODING 332
SWIDTH 600 0
DWIDTH 36 0
BBX 30 53 3 -1
BITMAP
03FFFF00
03FFFF00
03FFFF00
03FFFF00
00000000
00000000
00000000
00000000
00020000
007FF800
01FFFE00
03FFFF00
07FFFF80
0FF03FC0
1FC00FE0
1F8007E0
3F0003F0
3E0001F0
7E0001F8
7E0001F8
7C0000F8
7C0000F8
FC0000FC
FC0000FC
FC0000FC
F800007C
F800007C
F800007C
F800007C
F800007C
F800007C
F800007C
F800007C
F800007C
F800007C
F800007C
FC0000FC
FC0000FC
FC0000FC
7C0000F8
7C0000F8
7E0001F8
7E0001F8
3E0001F0
3F0003F0
1F8007E0
1FC00FE0
0FF03FC0
07FFFF80
03FFFF00
01FFFE00
007FF800
00030000
ENDCHAR
STARTCHAR 014D
ENCODING 333
SWIDTH 600 0
DWIDTH 36 0
BBX 30 42 3 -1
BITMAP
03FFFF00
03FFFF00
03FFFF00
03FFFF00
00000000
00000000
00000000
00000000
00020000
007FF800
01FFFE00
03FFFF00
0FFFFF80
0FE03FC0
1FC00FE0
3F0007F0
3F0003F0
7E0001F8
7E0001F8
7C0000F8
7C0000F8
FC0000F8
FC0000FC
FC0000FC
FC0000FC
FC0000FC
FC0000FC
FC0000FC
7C0000F8
7C0000F8
7C0001F8
7E0001F8
7E0001F8
3F0003F0
3F8007F0
1FC00FE0
0FF01FC0
07FFFF80
03FFFF00
01FFFE00
007FF800
00030000
ENDCHAR
STARTCHAR 014E
ENCODING 334
SWIDTH 600 0
DWIDTH 36 0
BBX 30 57 3 -1
BITMAP
03800700
03C00F00
03E01F00
03FCFE00
01FFFE00
00FFFC00
007FF800
001FC000
00000000
00000000
00000000
00000000
00020000
007FF800
01FFFE00
03FFFF00
07FFFF80
0FF03FC0
1FC00FE0
1F8007E0
3F0003F0
3E0001F0
7E0001F8
7E0001F8
7C0000F8
7C0000F8
FC0000FC
FC0000FC
FC0000FC
F800007C
F800007C
F800007C
F800007C
F800007C
F800007C
F800007C
F800007C
F800007C
F800007C
F800007C
FC0000FC
FC0000FC
FC0000FC
7C0000F8
7C0000F8
7E0001F8
7E0001F8
3E0001F0
3F0003F0
1F8007E0
1FC00FE0
0FF03FC0
07FFFF80
03FFFF00
01FFFE00
007FF800
00030000
ENDCHAR
STARTCHAR 014F
ENCODING 335
SWIDTH 600 0
DWIDTH 36 0
BBX 30 46 3 -1
BITMAP
03800700
03C00F00
03E01F00
03FCFE00
01FFFE00
00FFFC00
007FF800
001FC000
00000000
00000000
00000000
00000000
00020000
007FF800
01FFFE00
03FFFF00
0FFFFF80
0FE03FC0
1FC00FE0
3F0007F0
3F0003F0
7E0001F8
7E0001F8
7C0000F8
7C0000F8
FC0000F8
FC0000FC
FC0000FC
FC0000FC
FC0000FC
FC0000FC
FC0000FC
7C0000F8
7C0000F8
7C0001F8
7E0001F8
7E0001F8
3F0003F0
3F8007F0
1FC00FE0
0FF01FC0
07FFFF80
03FFFF00
01FFFE00
007FF800
00030000
ENDCHAR
STARTCHAR 0150
ENCODING 336
SWIDTH 600 0
DWIDTH 36 0
BBX 30 59 3 -1
BITMAP
003F07E0
003F0FC0
007E0FC0
007C1F80
00FC1F00
00F83E00
01F03E00
01E07C00
03C0F800
0780F000
00000000
00000000
00000000
00000000
00020000
007FF800
01FFFE00
03FFFF00
07FFFF80
0FF03FC0
1FC00FE0
1F8007E0
3F0003F0
3E0001F0
7E0001F8
7E0001F8
7C0000F8
7C0000F8
FC0000FC
FC0000FC
FC0000FC
F800007C
F800007C
F800007C
F800007C
F800007C
F800007C
F800007C
F800007C
F800007C
F800007C
F800007C
FC0000FC
FC0000FC
FC0000FC
7C0000F8
7C0000F8
7E0001F8
7E0001F8
3E0001F0
3F0003F0
1F8007E0
1FC00FE0
0FF03FC0
07FFFF80
03FFFF00
01FFFE00
007FF800
00030000
ENDCHAR
STARTCHAR 0151
ENCODING 337
SWIDTH 600 0
DWIDTH 36 0
BBX 30 48 3 -1
BITMAP
003F07E0
003F0FC0
007E0FC0
007C1F80
00FC1F00
00F83E00
01F03E00
01E07C00
03C0F800
0780F000
00000000
00000000
00000000
00000000
00020000
007FF800
01FFFE00
03FFFF00
0FFFFF80
0FE03FC0
1FC00FE0
3F0007F0
3F0003F0
7E0001F8
7E0001F8
7C0000F8
7C0000F8
FC0000F8
FC0000FC
FC0000FC
FC0000FC
FC0000FC
FC0000FC
FC0000FC
7C0000F8
7C0000F8
7C0001F8
7E0001F8
7E0001F8
3F0003F0
3F8007F0
1FC00FE0
0FF01FC0
07FFFF80
03FFFF00
01FFFE00
007FF800
00030000
ENDCHAR
STARTCHAR 0152
ENCODING 338
SWIDTH 600 0
DWIDTH 36 0
BBX 32 45 2 -1
BITMAP
00040000
00FFFFFF
01FFFFFF
07FFFFFF
07FFFFFF
0FC0FC00
1F807C00
1F007C00
3F007C00
3F007C00
3E007C00
7E007C00
7E007C00
7E007C00
7C007C00
7C007C00
7C007C00
7C007C00
FC007C00
FC007FFE
FC007FFE
FC007FFE
FC007FFE
FC007C00
FC007C00
FC007C00
7C007C00
7C007C00
7C007C00
7C007C00
7C007C00
7E007C00
7E007C00
7E007C00
3E007C00
3F007C00
3F007C00
1F007C00
1F807C00
0FC0FC00
0FFFFFFF
07FFFFFF
03FFFFFF
00FFFFFF
00080000
ENDCHAR
STARTCHAR 0153
ENCODING 339
SWIDTH 600 0
DWIDTH 36 0
BBX 34 34 1 -1
BITMAP
0020004000
03FC03F800
07FE0FFC00
0FFF0FFE00
1FFF9FFF00
3F07FE1F00
3E03FC0F80
3E03FC0F80
7C01F80780
7C01F80780
7C01F807C0
7801F807C0
7801F007C0
F801F007C0
F800FFFFC0
F800FFFFC0
F800FFFFC0
F800FFFFC0
F800F00000
F800F00000
F801F00000
7801F80000
7C01F80000
7C01F80000
7C01F80000
7C01F80000
3E03FC0000
3E03FE0080
1F07FF0380
1FFF9FFF80
0FFF0FFF80
07FF07FF00
03FC03FC00
0020004000
ENDCHAR
STARTCHAR 0154
ENCODING 340
SWIDTH 600 0
DWIDTH 36 0
BBX 28 58 6 0
BITMAP
0001FC00
0001F800
0003F800
0003F000
0007E000
000FC000
000F8000
001F0000
003E0000
003C0000
00000000
00000000
00000000
00000000
00000000
FFFE0000
FFFFC000
FFFFF000
FFFFFC00
F83FFC00
F800FE00
F8007F00
F8003F00
F8001F00
F8001F80
F8001F80
F8001F80
F8001F80
F8001F80
F8001F80
F8001F00
F8001F00
F8003F00
F8007E00
F800FE00
F803FC00
FFFFF800
FFFFF000
FFFFC000
FFFF8000
F80FC000
F80FC000
F807E000
F803E000
F803F000
F801F800
F801F800
F800FC00
F8007C00
F8007E00
F8003F00
F8003F00
F8001F80
F8001F80
F8000FC0
F80007E0
F80007E0
F80003F0
ENDCHAR
STARTCHAR 0155
ENCODING 341
SWIDTH 600 0
DWIDTH 36 0
BBX 30 47 4 0
BITMAP
00000FC0
00001FC0
00001F80
00003F00
00007E00
00007C00
0000F800
0001F000
0001E000
0003C000
00000000
00000000
00000000
00000000
00000100
7FFC1FFC
7FFC3FFC
7FFC7FFC
7FFCFFF8
007CF818
007DE008
007FC000
007F8000
007F8000
007F0000
007F0000
007F0000
007E0000
007E0000
007E0000
007E0000
007E0000
007E0000
007E0000
007E0000
007E0000
007E0000
007E0000
007E0000
007E0000
007E0000
007E0000
007E0000
FFFFFF00
FFFFFF00
FFFFFF00
FFFFFF00
ENDCHAR
STARTCHAR 0156
ENCODING 342
SWIDTH 600 0
DWIDTH 36 0
BBX 28 56 6 -13
BITMAP
FFFE0000
FFFFC000
FFFFF000
FFFFFC00
F83FFC00
F800FE00
F8007F00
F8003F00
F8001F00
F8001F80
F8001F80
F8001F80
F8001F80
F8001F80
F8001F80
F8001F00
F8001F00
F8003F00
F8007E00
F800FE00
F803FC00
FFFFF800
FFFFF000
FFFFC000
FFFF8000
F80FC000
F80FC000
F807E000
F803E000
F803F000
F801F800
F801F800
F800FC00
F8007C00
F8007E00
F8003F00
F8003F00
F8001F80
F8001F80
F8000FC0
F80007E0
F80007E0
F80003F0
00000000
00000000
00000000
001F8000
001F0000
001F0000
001E0000
003E0000
003C0000
003C0000
00780000
00780000
00700000
ENDCHAR
STARTCHAR 0157
ENCODING 343
SWIDTH 600 0
DWIDTH 36 0
BBX 30 46 4 -13
BITMAP
00000100
7FFC1FFC
7FFC3FFC
7FFC7FFC
7FFCFFF8
007CF818
007DE008
007FC000
007F8000
007F8000
007F0000
007F0000
007F0000
007E0000
007E0000
007E0000
007E0000
007E0000
007E0000
007E0000
007E0000
007E0000
007E0000
007E0000
007E0000
007E0000
007E0000
007E0000
007E0000
FFFFFF00
FFFFFF00
FFFFFF00
FFFFFF00
00000000
00000000
00000000
003E0000
003E0000
007C0000
007C0000
00780000
00780000
00F00000
00F00000
00E00000
01E00000
ENDCHAR
STARTCHAR 0158
ENCODING 344
SWIDTH 600 0
DWIDTH 36 0
BBX 28 58 6 0
BITMAP
38003C00
3E007C00
1F00F800
0F81F000
07C7E000
03EFC000
01FF8000
01FF0000
00FF0000
007E0000
00000000
00000000
00000000
00000000
00000000
FFFE0000
FFFFC000
FFFFF000
FFFFFC00
F83FFC00
F800FE00
F8007F00
F8003F00
F8001F00
F8001F80
F8001F80
F8001F80
F8001F80
F8001F80
F8001F80
F8001F00
F8001F00
F8003F00
F8007E00
F800FE00
F803FC00
FFFFF800
FFFFF000
FFFFC000
FFFF8000
F80FC000
F80FC000
F807E000
F803E000
F803F000
F801F800
F801F800
F800FC00
F8007C00
F8007E00
F8003F00
F8003F00
F8001F80
F8001F80
F8000FC0
F80007E0
F80007E0
F80003F0
ENDCHAR
STARTCHAR 0159
ENCODING 345
SWIDTH 600 0
DWIDTH 36 0
BBX 30 47 4 0
BITMAP
03C001E0
03E007C0
01F80F80
00FC1F00
007E3F00
003F7E00
001FFC00
000FF800
0007F000
0007E000
00000000
00000000
00000000
00000000
00000100
7FFC1FFC
7FFC3FFC
7FFC7FFC
7FFCFFF8
007CF818
007DE008
007FC000
007F8000
007F8000
007F0000
007F0000
007F0000
007E0000
007E0000
007E0000
007E0000
007E0000
007E0000
007E0000
007E0000
007E0000
007E0000
007E0000
007E0000
007E0000
007E0000
007E0000
007E0000
FFFFFF00
FFFFFF00
FFFFFF00
FFFFFF00
ENDCHAR
STARTCHAR 015A
ENCODING 346
SWIDTH 600 0
DWIDTH 36 0
BBX 27 59 5 -1
BITMAP
00007F00
00007F00
0000FE00
0000FC00
0001F800
0003F000
0003E000
0007C000
000F8000
000F0000
00000000
00000000
00000000
00000000
00020000
00FFFC00
03FFFF80
07FFFFC0
0FFFFF80
1FE01F80
3F800300
3F000000
7E000000
7E000000
7E000000
7E000000
7E000000
7E000000
7E000000
7F000000
3F800000
3FC00000
1FF00000
0FFE0000
07FF8000
03FFE000
00FFF800
003FFC00
000FFF00
0003FF80
0000FF80
00003FC0
00000FC0
00000FC0
000007E0
000007E0
000007E0
000007E0
000007E0
000007C0
00000FC0
80000FC0
E0001F80
FE00FF80
FFFFFF00
FFFFFE00
FFFFF800
1FFFE000
00180000
ENDCHAR
STARTCHAR 015B
ENCODING 347
SWIDTH 600 0
DWIDTH 36 0
BBX 24 48 6 -1
BITMAP
0000FC
0001FC
0003F8
0003F0
0007E0
0007C0
000F80
001F00
003E00
003C00
000000
000000
000000
000000
000400
03FFF0
0FFFFE
1FFFFE
3FFFFE
3F803C
7E0004
7C0000
7C0000
7C0000
7C0000
7E0000
3F8000
3FE000
1FF800
07FF00
03FFC0
00FFF0
001FF8
0007FC
0001FE
00007E
00003F
00003F
00003F
00003F
00003E
E0007E
FC01FE
FFFFFC
FFFFF8
FFFFF0
1FFFC0
003000
ENDCHAR
STARTCHAR 015C
ENCODING 348
SWIDTH 600 0
DWIDTH 36 0
BBX 27 59 5 -1
BITMAP
001F8000
001F8000
003FC000
007FE000
00FFF000
00F9F800
01F0FC00
03E07C00
07C03E00
0F000F00
00000000
00000000
00000000
00000000
00020000
00FFFC00
03FFFF80
07FFFFC0
0FFFFF80
1FE01F80
3F800300
3F000000
7E000000
7E000000
7E000000
7E000000
7E000000
7E000000
7E000000
7F000000
3F800000
3FC00000
1FF00000
0FFE0000
07FF8000
03FFE000
00FFF800
003FFC00
000FFF00
0003FF80
0000FF80
00003FC0
00000FC0
00000FC0
000007E0
000007E0
000007E0
000007E0
000007E0
000007C0
00000FC0
80000FC0
E0001F80
FE00FF80
FFFFFF00
FFFFFE00
FFFFF800
1FFFE000
00180000
ENDCHAR
STARTCHAR 015D
ENCODING 349
SWIDTH 600 0
DWIDTH 36 0
BBX 24 48 6 -1
BITMAP
003E00
007F00
00FF00
01FF80
01FFC0
03E7E0
07C3F0
0F81F8
1F007C
3E003C
000000
000000
000000
000000
000400
03FFF0
0FFFFE
1FFFFE
3FFFFE
3F803C
7E0004
7C0000
7C0000
7C0000
7C0000
7E0000
3F8000
3FE000
1FF800
07FF00
03FFC0
00FFF0
001FF8
0007FC
0001FE
00007E
00003F
00003F
00003F
00003F
00003E
E0007E
FC01FE
FFFFFC
FFFFF8
FFFFF0
1FFFC0
003000
ENDCHAR
STARTCHAR 015E
ENCODING 350
SWIDTH 600 0
DWIDTH 36 0
BBX 27 58 5 -14
BITMAP
00020000
00FFFC00
03FFFF80
07FFFFC0
0FFFFF80
1FE01F80
3F800300
3F000000
7E000000
7E000000
7E000000
7E000000
7E000000
7E000000
7E000000
7F000000
3F800000
3FC00000
1FF00000
0FFE0000
07FF8000
03FFE000
00FFF800
003FFC00
000FFF00
0003FF80
0000FF80
00003FC0
00000FC0
00000FC0
000007E0
000007E0
000007E0
000007E0
000007E0
000007C0
00000FC0
80000FC0
E0001F80
FE00FF80
FFFFFF00
FFFFFE00
FFFFF800
1FFFE000
001C0000
003C0000
00380000
007F0000
007F8000
000FC000
0003C000
0003E000
0003E000
0003C000
0007C000
01FF8000
01FF0000
01FC0000
ENDCHAR
STARTCHAR 015F
ENCODING 351
SWIDTH 600 0
DWIDTH 36 0
BBX 24 47 6 -14
BITMAP
000400
03FFF0
0FFFFE
1FFFFE
3FFFFE
3F803C
7E0004
7C0000
7C0000
7C0000
7C0000
7E0000
3F8000
3FE000
1FF800
07FF00
03FFC0
00FFF0
001FF8
0007FC
0001FE
00007E
00003F
00003F
00003F
00003F
00003E
E0007E
FC01FE
FFFFFC
FFFFF8
FFFFF0
1FFFC0
003C00
003800
007800
007E00
00FF80
001F80
0007C0
0003C0
0003C0
0007C0
000F80
03FF80
03FF00
03F800
ENDCHAR
STARTCHAR 0160
ENCODING 352
SWIDTH 600 0
DWIDTH 36 0
BBX 27 59 5 -1
BITMAP
0F000700
0F801F00
07C03E00
03E07C00
01F8F800
00FDF000
007FE000
003FE000
003FC000
001F8000
00000000
00000000
00000000
00000000
00020000
00FFFC00
03FFFF80
07FFFFC0
0FFFFF80
1FE01F80
3F800300
3F000000
7E000000
7E000000
7E000000
7E000000
7E000000
7E000000
7E000000
7F000000
3F800000
3FC00000
1FF00000
0FFE0000
07FF8000
03FFE000
00FFF800
003FFC00
000FFF00
0003FF80
0000FF80
00003FC0
00000FC0
00000FC0
000007E0
000007E0
000007E0
000007E0
000007E0
000007C0
00000FC0
80000FC0
E0001F80
FE00FF80
FFFFFF00
FFFFFE00
FFFFF800
1FFFE000
00180000
ENDCHAR
STARTCHAR 0161
ENCODING 353
SWIDTH 600 0
DWIDTH 36 0
BBX 24 48 6 -1
BITMAP
3C001C
3E007C
1F00F8
0FC1F0
07E3E0
03F7C0
01FFC0
00FF80
007F00
007E00
000000
000000
000000
000000
000400
03FFF0
0FFFFE
1FFFFE
3FFFFE
3F803C
7E0004
7C0000
7C0000
7C0000
7C0000
7E0000
3F8000
3FE000
1FF800
07FF00
03FFC0
00FFF0
001FF8
0007FC
0001FE
00007E
00003F
00003F
00003F
00003F
00003E
E0007E
FC01FE
FFFFFC
FFFFF8
FFFFF0
1FFFC0
003000
ENDCHAR
STARTCHAR 0162
ENCODING 354
SWIDTH 600 0
DWIDTH 36 0
BBX 30 57 3 -14
BITMAP
FFFFFFFC
FFFFFFFC
FFFFFFFC
FFFFFFFC
000FC000
000FC000
000FC000
000FC000
000FC000
000FC000
000FC000
000FC000
000FC000
000FC000
000FC000
000FC000
000FC000
000FC000
000FC000
000FC000
000FC000
000FC000
000FC000
000FC000
000FC000
000FC000
000FC000
000FC000
000FC000
000FC000
000FC000
000FC000
000FC000
000FC000
000FC000
000FC000
000FC000
000FC000
000FC000
000FC000
000FC000
000FC000
000FC000
00070000
000F0000
000E0000
001FC000
001FE000
0003F000
0000F000
0000F800
0000F800
0000F000
0001F000
007FE000
007FC000
007F0000
ENDCHAR
STARTCHAR 0163
ENCODING 355
SWIDTH 600 0
DWIDTH 36 0
BBX 28 55 3 -14
BITMAP
003E0000
003E0000
003E0000
003E0000
003E0000
003E0000
007E0000
007E0000
007E0000
1FFFFFE0
FFFFFFE0
FFFFFFE0
FFFFFFE0
007E0000
007E0000
007E0000
007E0000
007E0000
007E0000
007E0000
007E0000
007E0000
007E0000
007E0000
007E0000
007E0000
007E0000
007E0000
007E0000
007E0000
007E0000
007E0000
007E0000
007E0000
007E0000
003F0000
003FC010
001FFFF0
000FFFF0
0007FFF0
0001FFF0
00007C00
00007000
0000F000
0000FC00
0001FF00
00003F80
00000F80
00000780
00000780
00000780
00001F80
0007FF00
0007FE00
0007F000
ENDCHAR
STARTCHAR 0164
ENCODING 356
SWIDTH 600 0
DWIDTH 36 0
BBX 30 58 3 0
BITMAP
07000780
07C00F80
03E01F00
01F03E00
00F8FC00
007DF800
003FF000
003FE000
001FE000
000FC000
00000000
00000000
00000000
00000000
00000000
FFFFFFFC
FFFFFFFC
FFFFFFFC
FFFFFFFC
000FC000
000FC000
000FC000
000FC000
000FC000
000FC000
000FC000
000FC000
000FC000
000FC000
000FC000
000FC000
000FC000
000FC000
000FC000
000FC000
000FC000
000FC000
000FC000
000FC000
000FC000
000FC000
000FC000
000FC000
000FC000
000FC000
000FC000
000FC000
000FC000
000FC000
000FC000
000FC000
000FC000
000FC000
000FC000
000FC000
000FC000
000FC000
000FC000
ENDCHAR
STARTCHAR 0165
ENCODING 357
SWIDTH 600 0
DWIDTH 36 0
BBX 28 48 3 -1
BITMAP
000003F0
000003E0
000003E0
000003E0
000003C0
000003C0
003E0780
003E0780
003E0700
003E0700
003E0000
003E0000
007E0000
007E0000
007E0000
1FFFFFE0
FFFFFFE0
FFFFFFE0
FFFFFFE0
007E0000
007E0000
007E0000
007E0000
007E0000
007E0000
007E0000
007E0000
007E0000
007E0000
007E0000
007E0000
007E0000
007E0000
007E0000
007E0000
007E0000
007E0000
007E0000
007E0000
007E0000
007E0000
003F0000
003FC010
001FFFF0
000FFFF0
0007FFF0
0001FFF0
00000C00
ENDCHAR
STARTCHAR 0166
ENCODING 358
SWIDTH 600 0
DWIDTH 36 0
BBX 30 43 3 0
BITMAP
FFFFFFFC
FFFFFFFC
FFFFFFFC
FFFFFFFC
000FC000
000FC000
000FC000
000FC000
000FC000
000FC000
000FC000
000FC000
000FC000
000FC000
000FC000
000FC000
000FC000
000FC000
000FC000
1FFFFFE0
1FFFFFE0
1FFFFFE0
1FFFFFE0
000FC000
000FC000
000FC000
000FC000
000FC000
000FC000
000FC000
000FC000
000FC000
000FC000
000FC000
000FC000
000FC000
000FC000
000FC000
000FC000
000FC000
000FC000
000FC000
000FC000
ENDCHAR
STARTCHAR 0167
ENCODING 359
SWIDTH 600 0
DWIDTH 36 0
BBX 28 42 3 -1
BITMAP
003E0000
003E0000
003E0000
003E0000
003E0000
003E0000
007E0000
007E0000
007E0000
1FFFFFE0
FFFFFFE0
FFFFFFE0
FFFFFFE0
007E0000
007E0000
007E0000
007E0000
007E0000
007E0000
007E0000
FFFFFFF0
FFFFFFF0
FFFFFFF0
FFFFFFF0
007E0000
007E0000
007E0000
007E0000
007E0000
007E0000
007E0000
007E0000
007E0000
007E0000
007E0000
003F0000
003FC010
001FFFF0
000FFFF0
0007FFF0
0001FFF0
00000C00
ENDCHAR
STARTCHAR 0168
ENCODING 360
SWIDTH 600 0
DWIDTH 36 0
BBX 28 57 4 -1
BITMAP
01F00380
03FC0780
07FF0700
0FFFDF00
0FBFFF00
0E07FE00
1E03FC00
1C00F800
00000000
00000000
00000000
00000000
00000000
FC0003F0
FC0003F0
FC0003F0
FC0003F0
FC0003F0
FC0003F0
FC0003F0
FC0003F0
FC0003F0
FC0003F0
FC0003F0
FC0003F0
FC0003F0
FC0003F0
FC0003F0
FC0003F0
FC0003F0
FC0003F0
FC0003F0
FC0003F0
FC0003F0
FC0003F0
FC0003F0
FC0003F0
FC0003F0
FC0003F0
FC0003F0
FC0003F0
FC0003F0
FC0003F0
FC0003F0
FC0003F0
7C0003E0
7C0003E0
7E0007E0
7E0007E0
3F000FC0
3F801FC0
1FC03F80
0FFFFF00
07FFFE00
03FFFC00
00FFF000
00060000
ENDCHAR
STARTCHAR 0169
ENCODING 361
SWIDTH 600 0
DWIDTH 36 0
BBX 27 46 4 -1
BITMAP
01F00380
03FC0780
07FF0700
0FFFDF00
0FBFFF00
0E07FE00
1E03FC00
1C00F800
00000000
00000000
00000000
00000000
00000000
FC0003E0
FC0003E0
FC0003E0
FC0003E0
FC0003E0
FC0003E0
FC0003E0
FC0003E0
FC0003E0
FC0003E0
FC0003E0
FC0003E0
FC0003E0
FC0003E0
FC0003E0
FC0003E0
FC0003E0
FC0003E0
FC0003E0
FC0003E0
FC0007E0
FC0007E0
7C0007E0
7C0007E0
7E000FE0
7E000FE0
7F001FE0
3F807FE0
3FFFFBE0
1FFFF3E0
0FFFE1E0
03FF81E0
00100000
ENDCHAR
STARTCHAR 016A
ENCODING 362
SWIDTH 600 0
DWIDTH 36 0
BBX 28 53 4 -1
BITMAP
07FFFE00
07FFFE00
07FFFE00
07FFFE00
00000000
00000000
00000000
00000000
00000000
FC0003F0
FC0003F0
FC0003F0
FC0003F0
FC0003F0
FC0003F0
FC0003F0
FC0003F0
FC0003F0
FC0003F0
FC0003F0
FC0003F0
FC0003F0
FC0003F0
FC0003F0
FC0003F0
FC0003F0
FC0003F0
FC0003F0
FC0003F0
FC0003F0
FC0003F0
FC0003F0
FC0003F0
FC0003F0
FC0003F0
FC0003F0
FC0003F0
FC0003F0
FC0003F0
FC0003F0
FC0003F0
7C0003E0
7C0003E0
7E0007E0
7E0007E0
3F000FC0
3F801FC0
1FC03F80
0FFFFF00
07FFFE00
03FFFC00
00FFF000
00060000
ENDCHAR
STARTCHAR 016B
ENCODING 363
SWIDTH 600 0
DWIDTH 36 0
BBX 27 42 4 -1
BITMAP
07FFFE00
07FFFE00
07FFFE00
07FFFE00
00000000
00000000
00000000
00000000
00000000
FC0003E0
FC0003E0
FC0003E0
FC0003E0
FC0003E0
FC0003E0
FC0003E0
FC0003E0
FC0003E0
FC0003E0
FC0003E0
FC0003E0
FC0003E0
FC0003E0
FC0003E0
FC0003E0
FC0003E0
FC0003E0
FC0003E0
FC0003E0
FC0007E0
FC0007E0
7C0007E0
7C0007E0
7E000FE0
7E000FE0
7F001FE0
3F807FE0
3FFFFBE0
1FFFF3E0
0FFFE1E0
03FF81E0
00100000
ENDCHAR
STARTCHAR 016C
ENCODING 364
SWIDTH 600 0
DWIDTH 36 0
BBX 28 57 4 -1
BITMAP
07000E00
07801E00
07C03E00
07F9FC00
03FFFC00
01FFF800
00FFF000
003F8000
00000000
00000000
00000000
00000000
00000000
FC0003F0
FC0003F0
FC0003F0
FC0003F0
FC0003F0
FC0003F0
FC0003F0
FC0003F0
FC0003F0
FC0003F0
FC0003F0
FC0003F0
FC0003F0
FC0003F0
FC0003F0
FC0003F0
FC0003F0
FC0003F0
FC0003F0
FC0003F0
FC0003F0
FC0003F0
FC0003F0
FC0003F0
FC0003F0
FC0003F0
FC0003F0
FC0003F0
FC0003F0
FC0003F0
FC0003F0
FC0003F0
7C0003E0
7C0003E0
7E0007E0
7E0007E0
3F000FC0
3F801FC0
1FC03F80
0FFFFF00
07FFFE00
03FFFC00
00FFF000
00060000
ENDCHAR
STARTCHAR 016D
ENCODING 365
SWIDTH 600 0
DWIDTH 36 0
BBX 27 46 4 -1
BITMAP
07000E00
07801E00
07C03E00
07F9FC00
03FFFC00
01FFF800
00FFF000
003F8000
00000000
00000000
00000000
00000000
00000000
FC0003E0
FC0003E0
FC0003E0
FC0003E0
FC0003E0
FC0003E0
FC0003E0
FC0003E0
FC0003E0
FC0003E0
FC0003E0
FC0003E0
FC0003E0
FC0003E0
FC0003E0
FC0003E0
FC0003E0
FC0003E0
FC0003E0
FC0003E0
FC0007E0
FC0007E0
7C0007E0
7C0007E0
7E000FE0
7E000FE0
7F001FE0
3F807FE0
3FFFFBE0
1FFFF3E0
0FFFE1E0
03FF81E0
00100000
ENDCHAR
STARTCHAR 016E
ENCODING 366
SWIDTH 600 0
DWIDTH 36 0
BBX 28 62 4 -1
BITMAP
001F8000
007FC000
00FFE000
00F0F000
00E07000
01E07800
01E07800
01E07800
00E07000
00F0F000
007FE000
007FC000
001F8000
00000000
00000000
00000000
00000000
00000000
FC0003F0
FC0003F0
FC0003F0
FC0003F0
FC0003F0
FC0003F0
FC0003F0
FC0003F0
FC0003F0
FC0003F0
FC0003F0
FC0003F0
FC0003F0
FC0003F0
FC0003F0
FC0003F0
FC0003F0
FC0003F0
FC0003F0
FC0003F0
FC0003F0
FC0003F0
FC0003F0
FC0003F0
FC0003F0
FC0003F0
FC0003F0
FC0003F0
FC0003F0
FC0003F0
FC0003F0
FC0003F0
7C0003E0
7C0003E0
7E0007E0
7E0007E0
3F000FC0
3F801FC0
1FC03F80
0FFFFF00
07FFFE00
03FFFC00
00FFF000
00060000
ENDCHAR
STARTCHAR 016F
ENCODING 367
SWIDTH 600 0
DWIDTH 36 0
BBX 27 51 4 -1
BITMAP
001F8000
007FC000
00FFE000
00F0F000
00E07000
01E07800
01E07800
01E07800
00E07000
00F0F000
007FE000
007FC000
001F8000
00000000
00000000
00000000
00000000
00000000
FC0003E0
FC0003E0
FC0003E0
FC0003E0
FC0003E0
FC0003E0
FC0003E0
FC0003E0
FC0003E0
FC0003E0
FC0003E0
FC0003E0
FC0003E0
FC0003E0
FC0003E0
FC0003E0
FC0003E0
FC0003E0
FC0003E0
FC0003E0
FC0007E0
FC0007E0
7C0007E0
7C0007E0
7E000FE0
7E000FE0
7F001FE0
3F807FE0
3FFFFBE0
1FFFF3E0
0FFFE1E0
03FF81E0
00100000
ENDCHAR
STARTCHAR 0170
ENCODING 368
SWIDTH 600 0
DWIDTH 36 0
BBX 28 59 4 -1
BITMAP
007E0FC0
007E1F80
00FC1F80
00F83F00
01F83E00
01F07C00
03E07C00
03C0F800
0781F000
0F01E000
00000000
00000000
00000000
00000000
00000000
FC0003F0
FC0003F0
FC0003F0
FC0003F0
FC0003F0
FC0003F0
FC0003F0
FC0003F0
FC0003F0
FC0003F0
FC0003F0
FC0003F0
FC0003F0
FC0003F0
FC0003F0
FC0003F0
FC0003F0
FC0003F0
FC0003F0
FC0003F0
FC0003F0
FC0003F0
FC0003F0
FC0003F0
FC0003F0
FC0003F0
FC0003F0
FC0003F0
FC0003F0
FC0003F0
FC0003F0
FC0003F0
7C0003E0
7C0003E0
7E0007E0
7E0007E0
3F000FC0
3F801FC0
1FC03F80
0FFFFF00
07FFFE00
03FFFC00
00FFF000
00060000
ENDCHAR
STARTCHAR 0171
ENCODING 369
SWIDTH 600 0
DWIDTH 36 0
BBX 27 48 4 -1
BITMAP
007E0FC0
007E1F80
00FC1F80
00F83F00
01F83E00
01F07C00
03E07C00
03C0F800
0781F000
0F01E000
00000000
00000000
00000000
00000000
00000000
FC0003E0
FC0003E0
FC0003E0
FC0003E0
FC0003E0
FC0003E0
FC0003E0
FC0003E0
FC0003E0
FC0003E0
FC0003E0
FC0003E0
FC0003E0
FC0003E0
FC0003E0
FC0003E0
FC0003E0
FC0003E0
FC0003E0
FC0003E0
FC0007E0
FC0007E0
7C0007E0
7C0007E0
7E000FE0
7E000FE0
7F001FE0
3F807FE0
3FFFFBE0
1FFFF3E0
0FFFE1E0
03FF81E0
00100000
ENDCHAR
STARTCHAR 0172
ENCODING 370
SWIDTH 600 0
DWIDTH 36 0
BBX 28 56 4 -13
BITMAP
FC0003F0
FC0003F0
FC0003F0
FC0003F0
FC0003F0
FC0003F0
FC0003F0
FC0003F0
FC0003F0
FC0003F0
FC0003F0
FC0003F0
FC0003F0
FC0003F0
FC0003F0
FC0003F0
FC0003F0
FC0003F0
FC0003F0
FC0003F0
FC0003F0
FC0003F0
FC0003F0
FC0003F0
FC0003F0
FC0003F0
FC0003F0
FC0003F0
FC0003F0
FC0003F0
FC0003F0
FC0003E0
7C0003E0
7C0003E0
7E0007E0
7E0007C0
3F000FC0
3F801F80
1FC03F80
0FFFFF00
07FFFE00
03FFF800
00FFE000
0007C000
00078000
000F0000
001E0000
001E0000
003C0000
003C0000
003E0000
003E0000
003FF000
001FF000
000FF000
0007E000
ENDCHAR
STARTCHAR 0173
ENCODING 371
SWIDTH 600 0
DWIDTH 36 0
BBX 28 45 4 -13
BITMAP
FC0003E0
FC0003E0
FC0003E0
FC0003E0
FC0003E0
FC0003E0
FC0003E0
FC0003E0
FC0003E0
FC0003E0
FC0003E0
FC0003E0
FC0003E0
FC0003E0
FC0003E0
FC0003E0
FC0003E0
FC0003E0
FC0003E0
FC0003E0
FC0007E0
FC0007E0
7C0007E0
7C0007E0
7E000FE0
7E000FE0
7F001FE0
3F807FE0
3FFFFBE0
1FFFF3E0
0FFFE1E0
03FF81E0
001003C0
00000780
00000F00
00001E00
00001E00
00001E00
00001E00
00003E00
00001F00
00001FF0
00001FF0
00000FF0
000003F0
ENDCHAR
STARTCHAR 0174
ENCODING 372
SWIDTH 600 0
DWIDTH 36 0
BBX 34 58 1 0
BITMAP
0003F00000
0003F00000
0007F80000
000FFC0000
001FFE0000
003F3E0000
003E1F0000
007C0F8000
00F807C000
01E001E000
0000000000
0000000000
0000000000
0000000000
0000000000
FC00000FC0
7C00000F80
7C00000F80
7C00000F80
7C00000F80
7C00000F80
7C00000F80
7C00000F80
7C00000F80
3C00000F80
3C00000F00
3E03F00F00
3E03F01F00
3E03F01F00
3E03F01F00
3E07F81F00
3E07F81F00
3E07F81F00
1E07B81F00
1E0F3C1F00
1E0F3C1E00
1F0F3C1E00
1F0F3C1E00
1F0F1E1E00
1F1E1E3E00
1F1E1E3E00
1F1E1E3E00
0F1E0F3E00
0F3C0F3E00
0F3C0F3E00
0F3C0F3C00
0F3C07BC00
0F3C07BC00
0F7807BC00
0F7807BC00
0F7803BC00
07F803FC00
07F003FC00
07F003FC00
07F001FC00
07F001F800
07E001F800
07E001F800
ENDCHAR
STARTCHAR 0175
ENCODING 373
SWIDTH 600 0
DWIDTH 36 0
BBX 34 47 1 0
BITMAP
0003F00000
0003F00000
0007F80000
000FFC0000
001FFE0000
003F3F0000
003E1F0000
007C0F8000
00F807C000
01E001E000
0000000000
0000000000
0000000000
0000000000
0000000000
F8000007C0
F8000007C0
F8000007C0
7C000007C0
7C00000F80
7C00000F80
7C03F00F80
7C03F00F80
7C07F80F80
7C07F80F80
3E07F81F00
3E0FF81F00
3E0FFC1F00
3E0F3C1F00
3E0F3C1F00
3E1F3E1F00
1E1F3E1E00
1F1E1E3E00
1F3E1E3E00
1F3E1F3E00
1F3C1F3E00
1F3C0F3E00
0F3C0F3C00
0F7C0FBC00
0F780FBC00
0F7807BC00
0F7807BC00
0F7807BC00
07F007F800
07F003F800
07F003F800
07F003F800
ENDCHAR
STARTCHAR 0176
ENCODING 374
SWIDTH 600 0
DWIDTH 36 0
BBX 32 58 2 0
BITMAP
0007E000
0007E000
000FF000
001FF800
003FFC00
007E7C00
007C3E00
00F81F00
01F00F80
03C003C0
00000000
00000000
00000000
00000000
00000000
FC00003F
7E00007E
7E00007E
3F00007C
3F0000FC
1F8000F8
1F8001F8
0F8001F0
0FC003F0
07C003E0
07E007E0
03E007C0
03F00FC0
01F00F80
01F81F80
00F81F00
00FC1F00
007C3E00
007C3E00
003E7C00
003E7C00
001FF800
001FF800
000FF000
000FF000
0007E000
0007E000
0007E000
0007E000
0007E000
0007E000
0007E000
0007E000
0007E000
0007E000
0007E000
0007E000
0007E000
0007E000
0007E000
0007E000
0007E000
0007E000
ENDCHAR
STARTCHAR 0177
ENCODING 375
SWIDTH 600 0
DWIDTH 36 0
BBX 30 61 3 -14
BITMAP
000FC000
000FC000
001FE000
003FF000
007FF800
00FCF800
00F87C00
01F03E00
03E01F00
07800780
00000000
00000000
00000000
00000000
00000000
F800007C
FC0000FC
7C0000F8
7C0000F8
3E0001F8
3E0001F0
3F0003F0
1F0003E0
1F8003E0
0F8007E0
0F8007C0
07C007C0
07C00FC0
07E00F80
03E00F80
03E01F00
01F01F00
01F01F00
00F83E00
00F83E00
00F83C00
007C7C00
007C7C00
003E7800
003EF800
001EF800
001EF000
001FF000
000FE000
000FE000
0007E000
0007C000
0007C000
000FC000
000F8000
000F8000
001F0000
001F0000
003F0000
007E0000
00FE0000
67FC0000
7FF80000
7FF00000
7FE00000
7F800000
ENDCHAR
STARTCHAR 0178
ENCODING 376
SWIDTH 600 0
DWIDTH 36 0
BBX 32 56 2 0
BITMAP
01E00780
03F00FC0
03F00FC0
03F00FC0
03F00FC0
03F00FC0
01E00780
00000000
00000000
00000000
00000000
00000000
00000000
FC00003F
7E00007E
7E00007E
3F00007C
3F0000FC
1F8000F8
1F8001F8
0F8001F0
0FC003F0
07C003E0
07E007E0
03E007C0
03F00FC0
01F00F80
01F81F80
00F81F00
00FC1F00
007C3E00
007C3E00
003E7C00
003E7C00
001FF800
001FF800
000FF000
000FF000
0007E000
0007E000
0007E000
0007E000
0007E000
0007E000
0007E000
0007E000
0007E000
0007E000
0007E000
0007E000
0007E000
0007E000
0007E000
0007E000
0007E000
0007E000
ENDCHAR
STARTCHAR 0179
ENCODING 377
SWIDTH 600 0
DWIDTH 36 0
BBX 24 58 6 0
BITMAP
0000FC
0001FC
0001F8
0003F8
0003F0
0007E0
000FC0
000F80
001F00
003C00
000000
000000
000000
000000
000000
7FFFFF
7FFFFF
7FFFFF
7FFFFF
00001F
00003F
00003E
00007C
0000FC
0000F8
0001F8
0001F0
0003F0
0003E0
0007E0
0007C0
000FC0
000F80
001F00
003F00
003E00
007E00
007C00
00FC00
00F800
01F800
01F000
03F000
03E000
07C000
0FC000
0F8000
1F8000
1F0000
3F0000
3E0000
7E0000
7C0000
FC0000
FFFFFF
FFFFFF
FFFFFF
FFFFFF
ENDCHAR
STARTCHAR 017A
ENCODING 378
SWIDTH 600 0
DWIDTH 36 0
BBX 26 47 5 0
BITMAP
00007E00
0000FE00
0000FC00
0001F800
0003F000
0003F000
0007E000
000FC000
000F0000
001E0000
00000000
00000000
00000000
00000000
00000000
7FFFFF80
7FFFFF80
7FFFFF80
7FFFFF80
00001F80
00003F80
00003F00
00007E00
0000FC00
0001F800
0001F800
0003F000
0007E000
000FC000
001F8000
001F8000
003F0000
007E0000
00FC0000
01F80000
01F80000
03F00000
07E00000
0FC00000
0F800000
1F800000
3F000000
7E000000
FFFFFFC0
FFFFFFC0
FFFFFFC0
FFFFFFC0
ENDCHAR
STARTCHAR 017B
ENCODING 379
SWIDTH 600 0
DWIDTH 36 0
BBX 24 57 6 0
BITMAP
001E00
003F00
007F00
007F00
007F00
007F00
003F00
001E00
000000
000000
000000
000000
000000
000000
7FFFFF
7FFFFF
7FFFFF
7FFFFF
00001F
00003F
00003E
00007C
0000FC
0000F8
0001F8
0001F0
0003F0
0003E0
0007E0
0007C0
000FC0
000F80
001F00
003F00
003E00
007E00
007C00
00FC00
00F800
01F800
01F000
03F000
03E000
07C000
0FC000
0F8000
1F8000
1F0000
3F0000
3E0000
7E0000
7C0000
FC0000
FFFFFF
FFFFFF
FFFFFF
FFFFFF
ENDCHAR
STARTCHAR 017C
ENCODING 380
SWIDTH 600 0
DWIDTH 36 0
BBX 26 46 5 0
BITMAP
000F0000
003F8000
003F8000
003F8000
003F8000
003F8000
003F8000
000F0000
00000000
00000000
00000000
00000000
00000000
00000000
7FFFFF80
7FFFFF80
7FFFFF80
7FFFFF80
00001F80
00003F80
00003F00
00007E00
0000FC00
0001F800
0001F800
0003F000
0007E000
000FC000
001F8000
001F8000
003F0000
007E0000
00FC0000
01F80000
01F80000
03F00000
07E00000
0FC00000
0F800000
1F800000
3F000000
7E000000
FFFFFFC0
FFFFFFC0
FFFFFFC0
FFFFFFC0
ENDCHAR
STARTCHAR 017D
ENCODING 381
SWIDTH 600 0
DWIDTH 36 0
BBX 24 58 6 0
BITMAP
1C001E
1F003E
0F80FC
07C1F8
03E3F0
03F7E0
01FFC0
00FF80
007F00
003F00
000000
000000
000000
000000
000000
7FFFFF
7FFFFF
7FFFFF
7FFFFF
00001F
00003F
00003E
00007C
0000FC
0000F8
0001F8
0001F0
0003F0
0003E0
0007E0
0007C0
000FC0
000F80
001F00
003F00
003E00
007E00
007C00
00FC00
00F800
01F800
01F000
03F000
03E000
07C000
0FC000
0F8000
1F8000
1F0000
3F0000
3E0000
7E0000
7C0000
FC0000
FFFFFF
FFFFFF
FFFFFF
FFFFFF
ENDCHAR
STARTCHAR 017E
ENCODING 382
SWIDTH 600 0
DWIDTH 36 0
BBX 26 47 5 0
BITMAP
1E000F00
0F001F00
0FC07E00
07E0FC00
03F1F800
01FBF000
00FFE000
007FC000
003F8000
003F8000
00000000
00000000
00000000
00000000
00000000
7FFFFF80
7FFFFF80
7FFFFF80
7FFFFF80
00001F80
00003F80
00003F00
00007E00
0000FC00
0001F800
0001F800
0003F000
0007E000
000FC000
001F8000
001F8000
003F0000
007E0000
00FC0000
01F80000
01F80000
03F00000
07E00000
0FC00000
0F800000
1F800000
3F000000
7E000000
FFFFFFC0
FFFFFFC0
FFFFFFC0
FFFFFFC0
ENDCHAR
STARTCHAR 017F
ENCODING 383
SWIDTH 600 0
DWIDTH 36 0
BBX 20 46 13 0
BITMAP
00FFC0
07FFF0
0FFFE0
1FFFE0
3FF7E0
7F0020
7E0000
7C0000
FC0000
FC0000
FC0000
FC0000
FC0000
FC0000
FC0000
FC0000
FC0000
FC0000
FC0000
FC0000
FC0000
FC0000
FC0000
FC0000
FC0000
FC0000
FC0000
FC0000
FC0000
FC0000
FC0000
FC0000
FC0000
FC0000
FC0000
FC0000
FC0000
FC0000
FC0000
FC0000
FC0000
FC0000
FC0000
FC0000
FC0000
FC0000
ENDCHAR
STARTCHAR 0180
ENCODING 384
SWIDTH 600 0
DWIDTH 36 0
BBX 33 47 0 -1
BITMAP
07C0000000
07C0000000
07C0000000
07C0000000
07C0000000
FFFFFC0000
FFFFFC0000
FFFFFC0000
FFFFFC0000
07C0000000
07C0000000
07C0000000
07C0000000
07C0100000
07C1FF8000
07C7FFE000
07CFFFF000
07DFFFF800
07FE03FC00
07FC00FC00
07F8007E00
07F0007E00
07E0003F00
07E0003F00
07E0001F00
07C0001F00
07C0001F80
07C0001F80
07C0001F80
07C0001F80
07C0001F80
07C0001F80
07C0001F80
07C0001F80
07C0001F00
07E0001F00
07E0003F00
07E0003F00
07F0007E00
07F8007E00
07FC00FC00
07FE03FC00
07DFFFF800
078FFFF000
0787FFE000
0781FF8000
0000100000
ENDCHAR
STARTCHAR 0181
ENCODING 385
SWIDTH 600 0
DWIDTH 36 0
BBX 33 43 1 0
BITMAP
0FFFFE0000
3FFFFFC000
7FFFFFF000
FFFFFFF800
FEFC3FFC00
F8FC00FE00
F8FC007E00
F0FC003F00
F0FC003F00
F8FC003F00
F8FC003F00
00FC003F00
00FC003F00
00FC003F00
00FC003E00
00FC007E00
00FC00FC00
00FC03F800
00FFFFF000
00FFFFC000
00FFFF8000
00FFFFF000
00FC0FFC00
00FC00FE00
00FC007F00
00FC003F00
00FC001F80
00FC001F80
00FC001F80
00FC000F80
00FC000F80
00FC001F80
00FC001F80
00FC001F80
00FC001F80
00FC003F00
00FC007F00
00FC00FE00
00FC0FFE00
00FFFFFC00
00FFFFF000
00FFFFE000
00FFFF0000
ENDCHAR
STARTCHAR 0182
ENCODING 386
SWIDTH 600 0
DWIDTH 36 0
BBX 27 43 6 0
BITMAP
FFFFFF00
FFFFFF00
FFFFFF00
FFFFFF00
F8000000
F8000000
F8000000
F8000000
F8000000
F8000000
F8000000
F8000000
F8000000
F8000000
F8000000
F8000000
F8000000
F8000000
FFFFC000
FFFFF800
FFFFFE00
FFFFFF00
F807FF80
F8003F80
F8001FC0
F8000FC0
F80007C0
F80007C0
F80007E0
F80007E0
F80007E0
F80007E0
F80007E0
F80007C0
F80007C0
F8000FC0
F8001FC0
F8003F80
F803FF00
FFFFFE00
FFFFFC00
FFFFF800
FFFFC000
ENDCHAR
STARTCHAR 0183
ENCODING 387
SWIDTH 600 0
DWIDTH 36 0
BBX 28 47 5 -1
BITMAP
FFFFFF00
FFFFFF00
FFFFFF00
FFFFFF00
F8000000
F8000000
F8000000
F8000000
F8000000
F8000000
F8000000
F8000000
F8000000
F8020000
F83FF000
F8FFFC00
F9FFFE00
FBFFFF00
FFC07F80
FF801F80
FF000FC0
FE000FC0
FC0007E0
FC0007E0
FC0003E0
F80003E0
F80003F0
F80003F0
F80003F0
F80003F0
F80003F0
F80003F0
F80003F0
F80003F0
F80003E0
FC0003E0
FC0007E0
FC0007E0
FE000FC0
FF000FC0
FF801F80
FFC07F80
FBFFFF00
F1FFFE00
F0FFFC00
F03FF000
00020000
ENDCHAR
STARTCHAR 0184
ENCODING 388
SWIDTH 600 0
DWIDTH 36 0
BBX 27 44 6 -1
BITMAP
F8000000
F8000000
F8000000
F8000000
F8000000
F8000000
F8000000
F8000000
F8000000
F8000000
F8000000
F8000000
F8000000
F8000000
F8000000
F8000000
F8000000
F8000000
FFFFC000
FFFFF800
FFFFFE00
FFFFFF00
F807FF00
F8003F80
F8001FC0
F8000FC0
F80007C0
F80007C0
F80007E0
F80007E0
F80007E0
F80007E0
F80007E0
F80007C0
FC0007C0
FC000FC0
7E000F80
7F001F80
3FC07F00
3FFFFE00
1FFFFC00
07FFF800
01FFE000
000C0000
ENDCHAR
STARTCHAR 0185
ENCODING 389
SWIDTH 600 0
DWIDTH 36 0
BBX 28 47 5 -1
BITMAP
F8000000
F8000000
F8000000
F8000000
F8000000
F8000000
F8000000
F8000000
F8000000
F8000000
F8000000
F8000000
F8000000
F8020000
F83FF000
F8FFFC00
F9FFFE00
FBFFFF00
FFC07F80
FF801F80
FF000FC0
FE000FC0
FC0007E0
FC0007E0
FC0003E0
F80003E0
F80003E0
F80003F0
F80003F0
F80003F0
F80003F0
F80003F0
F80003F0
F80003E0
F80003E0
FC0003E0
7C0007E0
7C0007E0
7E000FC0
3E000FC0
3F801F80
1FC07F80
0FFFFF00
07FFFE00
03FFF800
00FFE000
00040000
ENDCHAR
STARTCHAR 0186
ENCODING 390
SWIDTH 600 0
DWIDTH 36 0
BBX 29 45 3 -1
BITMAP
00200000
1FFF8000
7FFFF000
FFFFF800
7FFFFC00
7C01FE00
20007F00
00003F80
00001FC0
00000FC0
000007E0
000007E0
000003F0
000003F0
000001F0
000001F0
000001F8
000001F8
000001F8
000001F8
000001F8
000001F8
000001F8
000001F8
000001F8
000001F8
000001F8
000001F8
000001F8
000001F0
000001F0
000003F0
000003F0
000003E0
000007E0
000007C0
00000FC0
00001F80
20007F80
3C01FF00
3FFFFE00
3FFFFC00
3FFFF000
1FFFC000
00300000
ENDCHAR
STARTCHAR 0187
ENCODING 391
SWIDTH 600 0
DWIDTH 36 0
BBX 35 53 4 -1
BITMAP
0000000FC0
0000001FE0
0000003FE0
0000007FE0
0000007E60
0000007800
0000007800
000000F800
000020F800
000FFFF800
007FFFF800
00FFFFF800
01FFFFF000
07FC01F000
07F0002000
0FE0000000
1FC0000000
1F80000000
3F00000000
3F00000000
7E00000000
7E00000000
7C00000000
7C00000000
FC00000000
FC00000000
FC00000000
FC00000000
FC00000000
F800000000
F800000000
F800000000
FC00000000
FC00000000
FC00000000
FC00000000
FC00000000
7C00000000
7C00000000
7E00000000
7E00000000
3E00000000
3F00000000
3F00000000
1F80000000
0FC0000000
0FF0002000
07FC01E000
03FFFFE000
01FFFFE000
007FFFE000
001FFFC000
0000600000
ENDCHAR
STARTCHAR 0188
ENCODING 392
SWIDTH 600 0
DWIDTH 36 0
BBX 31 47 5 -1
BITMAP
0000007E
000001FE
000003FE
000003FE
000007E6
000007C0
00000780
00000780
00000780
00000780
00000780
00000780
00000780
00010780
007FFF80
01FFFF80
07FFFF80
0FFFFF80
1FF00F00
1FC00100
3F800000
3F000000
7E000000
7E000000
7C000000
FC000000
FC000000
FC000000
FC000000
FC000000
FC000000
FC000000
FC000000
FC000000
FC000000
7C000000
7E000000
7E000000
7F000000
3F000000
3FC00080
1FF00780
0FFFFF80
07FFFF80
01FFFF80
007FFE00
00030000
ENDCHAR
STARTCHAR 0189
ENCODING 393
SWIDTH 600 0
DWIDTH 36 0
BBX 34 43 0 0
BITMAP
07FFF00000
07FFFE0000
07FFFF8000
07FFFFE000
07C0FFF000
07C00FF800
07C003FC00
07C000FC00
07C0007E00
07C0007F00
07C0003F00
07C0001F00
07C0001F80
07C0001F80
07C0000F80
07C0000F80
07C0000FC0
07C0000FC0
07C0000FC0
07C0000FC0
FFFFC00FC0
FFFFC00FC0
FFFFC00FC0
FFFFC00FC0
07C0000FC0
07C0000FC0
07C0000FC0
07C0000F80
07C0000F80
07C0001F80
07C0001F80
07C0003F00
07C0003F00
07C0007E00
07C000FE00
07C001FC00
07C003FC00
07C00FF800
07C1FFF000
07FFFFC000
07FFFF8000
07FFFE0000
07FFE00000
ENDCHAR
STARTCHAR 018A
ENCODING 394
SWIDTH 600 0
DWIDTH 36 0
BBX 33 43 1 0
BITMAP
0FFFF80000
3FFFFF0000
7FFFFFC000
FFFFFFE000
FEF8FFF000
F8F807F800
F8F801F800
F0F800FC00
F0F8007C00
F8F8007E00
F8F8003E00
00F8003E00
00F8003F00
00F8003F00
00F8001F00
00F8001F00
00F8001F00
00F8001F00
00F8001F80
00F8001F80
00F8001F80
00F8001F80
00F8001F80
00F8001F80
00F8001F00
00F8001F00
00F8001F00
00F8001F00
00F8003F00
00F8003F00
00F8003F00
00F8003E00
00F8007E00
00F8007E00
00F800FC00
00F801FC00
00F803F800
00F807F000
00F8FFE000
00FFFFC000
00FFFF8000
00FFFE0000
00FFF00000
ENDCHAR
STARTCHAR 018B
ENCODING 395
SWIDTH 600 0
DWIDTH 36 0
BBX 27 43 3 0
BITMAP
1FFFFFE0
1FFFFFE0
1FFFFFE0
1FFFFFE0
000003E0
000003E0
000003E0
000003E0
000003E0
000003E0
000003E0
000003E0
000003E0
000003E0
000003E0
000003E0
000003E0
007FFFE0
01FFFFE0
07FFFFE0
0FFFFFE0
1FF003E0
3F8003E0
3F0003E0
7E0003E0
7E0003E0
7C0003E0
7C0003E0
FC0003E0
FC0003E0
FC0003E0
FC0003E0
FC0003E0
7C0003E0
7E0003E0
7E0003E0
7F0003E0
3FC003E0
1FFC03E0
0FFFFFE0
07FFFFE0
01FFFFE0
003FFFE0
ENDCHAR
STARTCHAR 018C
ENCODING 396
SWIDTH 600 0
DWIDTH 36 0
BBX 28 47 3 -1
BITMAP
0FFFFFF0
0FFFFFF0
0FFFFFF0
0FFFFFF0
000001F0
000001F0
000001F0
000001F0
000001F0
000001F0
000001F0
000001F0
000001F0
000201F0
00FFE1F0
03FFF1F0
07FFFDF0
0FFFFDF0
1FE03FF0
3FC01FF0
3F800FF0
3F0007F0
7E0003F0
7E0003F0
7E0003F0
7C0003F0
FC0001F0
FC0001F0
FC0001F0
FC0001F0
FC0001F0
FC0001F0
FC0001F0
FC0001F0
7C0001F0
7C0003F0
7E0003F0
7E0003F0
3F0007F0
3F0007F0
1F800FF0
1FE03FF0
0FFFFDF0
07FFF9F0
03FFF0F0
00FFE0F0
00040000
ENDCHAR
STARTCHAR 018D
ENCODING 397
SWIDTH 600 0
DWIDTH 36 0
BBX 30 47 3 -14
BITMAP
001FF000
00FFFC00
03FFFF00
07FFFFC0
0FFCFFE0
1FC00FE0
3F8007F0
3F0003F8
7E0001F8
7E0001F8
7C0000F8
7C0000FC
FC0000FC
FC0000FC
FC0000FC
FC0000FC
FC0000F8
FC0000F8
7C0001F8
7E0001F0
7E0003F0
3F0007E0
3F800FE0
1FC01FC0
0FE07F00
07FBFE00
03FFF800
01FFE000
00FFC000
003FE000
001FF800
0007FC00
0001FE00
0000FE00
00003F00
00001F00
00001F80
00001F80
00001F80
08001F80
1C001F80
1F003F00
3FF9FF00
3FFFFE00
1FFFFC00
03FFF800
007FC000
ENDCHAR
STARTCHAR 018E
ENCODING 398
SWIDTH 600 0
DWIDTH 36 0
BBX 25 43 5 0
BITMAP
FFFFFF80
FFFFFF80
FFFFFF80
FFFFFF80
00000F80
00000F80
00000F80
00000F80
00000F80
00000F80
00000F80
00000F80
00000F80
00000F80
00000F80
00000F80
00000F80
00000F80
7FFFFF80
7FFFFF80
7FFFFF80
7FFFFF80
00000F80
00000F80
00000F80
00000F80
00000F80
00000F80
00000F80
00000F80
00000F80
00000F80
00000F80
00000F80
00000F80
00000F80
00000F80
00000F80
00000F80
FFFFFF80
FFFFFF80
FFFFFF80
FFFFFF80
ENDCHAR
STARTCHAR 018F
ENCODING 399
SWIDTH 600 0
DWIDTH 36 0
BBX 31 45 2 -1
BITMAP
00020000
01FFF800
0FFFFE00
1FFFFF80
1FFFFFC0
1F803FE0
1C000FF0
100007F0
000003F8
000001F8
000000FC
000000FC
0000007C
0000007E
0000007E
0000007E
0000003E
0000003E
0000003E
0000003E
0000003E
FFFFFFFE
FFFFFFFE
FFFFFFFE
FFFFFFFE
F800003E
F800003E
F800003E
FC00003E
7C00007E
7C00007E
7C00007C
7C00007C
7C0000FC
3E0000F8
3E0001F8
3F0001F8
1F8003F0
0FC007E0
0FF01FE0
07FFFFC0
03FFFF80
01FFFE00
007FF800
00030000
ENDCHAR
STARTCHAR 0190
ENCODING 400
SWIDTH 600 0
DWIDTH 36 0
BBX 30 45 3 -1
BITMAP
00008000
007FFE00
01FFFFC0
07FFFFF0
0FFFFFFC
1FF007F8
1FC001F8
3F000070
3F000010
3E000000
7E000000
7E000000
3E000000
3E000000
3F000000
3F000000
1F800000
1FC00000
0FF00000
03FF8000
00FFFF80
000FFF80
00FFFF80
07FFFF80
0FFC0000
1FC00000
3F800000
7E000000
7E000000
7C000000
FC000000
FC000000
FC000000
FC000000
FC000000
7E000000
7E000000
7F000004
3F80001C
1FF001FC
0FFFFFFC
07FFFFFC
03FFFFF8
007FFFC0
0001C000
ENDCHAR
STARTCHAR 0191
ENCODING 401
SWIDTH 600 0
DWIDTH 36 0
BBX 33 57 1 -14
BITMAP
0007FFFF80
0007FFFF80
0007FFFF80
0007FFFF80
0007C00000
0007C00000
0007C00000
0007C00000
0007C00000
0007C00000
0007C00000
0007C00000
0007C00000
0007C00000
0007C00000
0007C00000
0007C00000
0007C00000
0007FFFF00
0007FFFF00
0007FFFF00
0007FFFF00
0007C00000
0007C00000
0007C00000
0007C00000
0007C00000
0007C00000
0007C00000
0007C00000
0007C00000
0007C00000
0007C00000
0007C00000
0007C00000
0007C00000
0007C00000
0007C00000
0007C00000
0007C00000
0007C00000
0007C00000
0007C00000
0007C00000
0007C00000
8007C00000
7007C00000
FC0FC00000
FC0FC00000
FC0FC00000
FC0F800000
7C1F800000
7F7F800000
7FFF000000
3FFE000000
1FFC000000
07F0000000
ENDCHAR
STARTCHAR 0192
ENCODING 402
SWIDTH 600 0
DWIDTH 36 0
BBX 31 60 3 -14
BITMAP
00001FF8
00007FFE
0001FFFE
0003FFFE
0003FE7C
0007F000
0007E000
0007E000
0007C000
0007C000
0007C000
0007C000
0007C000
0007C000
03FFFFF8
1FFFFFF8
1FFFFFF8
1FFFFFF8
0007C000
0007C000
0007C000
0007C000
0007C000
0007C000
0007C000
0007C000
0007C000
0007C000
0007C000
0007C000
0007C000
0007C000
0007C000
0007C000
0007C000
0007C000
0007C000
0007C000
0007C000
0007C000
0007C000
0007C000
0007C000
0007C000
0007C000
0007C000
0007C000
0007C000
0007C000
4007C000
FC07C000
FC07C000
FC0FC000
FC0FC000
7E0F8000
7FBF8000
3FFF0000
3FFF0000
1FFE0000
03F80000
ENDCHAR
STARTCHAR 0193
ENCODING 403
SWIDTH 600 0
DWIDTH 36 0
BBX 34 53 3 -1
BITMAP
0000000FC0
0000003FC0
0000007FC0
0000007FC0
000000FEC0
000000F800
000000F000
000000F000
000020F000
001FFFF000
007FFFF000
01FFFFF000
03FFFFF000
07FC01E000
0FF0006000
0FC0000000
1F80000000
3F80000000
3F00000000
3E00000000
7E00000000
7E00000000
7C00000000
FC00000000
FC00000000
FC00000000
F800000000
F800000000
F800000000
F800000000
F800FFF800
F800FFF800
F800FFF800
F800FFF800
F80000F800
F80000F800
FC0000F800
FC0000F800
FC0000F800
7C0000F800
7E0000F800
7E0000F800
3F0000F800
3F0000F800
3F8000F800
1FC000F800
0FE000F800
07F803F800
03FFFFF800
01FFFFF800
00FFFFF800
001FFFC000
0000C00000
ENDCHAR
STARTCHAR 0194
ENCODING 404
SWIDTH 600 0
DWIDTH 36 0
BBX 32 57 2 -14
BITMAP
FC00003F
7C00003E
7E00007E
7E00007E
3E00007C
3F0000FC
1F0000F8
1F0000F8
1F8001F8
0F8001F0
0F8001F0
0FC003F0
07C003E0
07C003E0
03E007C0
03E007C0
03F00FC0
01F00F80
01F00F80
01F81F80
00F81F00
00F81F00
007C3E00
007C3E00
007C3E00
003E7C00
003E7C00
003E7800
001FF800
001FF800
000FF000
000FF000
000FF000
0007E000
0007E000
0007E000
0007E000
0007E000
000FF000
000FF000
001FF800
001FF800
003EFC00
003E7C00
003C7C00
007C3E00
007C3E00
007C3E00
00783E00
00783E00
007C3E00
007C3E00
007F7E00
003FFC00
003FF800
001FF000
0007E000
ENDCHAR
STARTCHAR 0195
ENCODING 405
SWIDTH 600 0
DWIDTH 36 0
BBX 30 47 3 -1
BITMAP
F8000000
F8000000
F8000000
F8000000
F8000000
F8000000
F8000000
F8000000
F8000000
F8000000
F8000000
F8000000
F8000000
F8200000
F9FE007C
FBFF007C
FBFF007C
FFFF807C
FE1F807C
FC0F807C
FC0F807C
FC07C07C
F807C07C
F807C07C
F807C07C
F807C07C
F807C07C
F807C07C
F807C07C
F807C07C
F807C07C
F807C07C
F807C07C
F807C07C
F807C07C
F807C07C
F807C07C
F807C07C
F807C07C
F807C07C
F807C07C
F807E0F8
F803FFF8
F803FFF0
F801FFE0
F8007FC0
00000400
ENDCHAR
STARTCHAR 0196
ENCODING 406
SWIDTH 600 0
DWIDTH 36 0
BBX 18 44 11 -1
BITMAP
FC0000
FC0000
FC0000
FC0000
FC0000
FC0000
FC0000
FC0000
FC0000
FC0000
FC0000
FC0000
FC0000
FC0000
FC0000
FC0000
FC0000
FC0000
FC0000
FC0000
FC0000
FC0000
FC0000
FC0000
FC0000
FC0000
FC0000
FC0000
FC0000
FC0000
FC0000
FC0000
FC0000
FC0000
FC0000
7C0000
7E0000
7E0000
7F8040
3FFFC0
1FFFC0
0FFFC0
03FFC0
003000
ENDCHAR
STARTCHAR 0197
ENCODING 407
SWIDTH 600 0
DWIDTH 36 0
BBX 22 43 7 0
BITMAP
FFFFFC
FFFFFC
FFFFFC
FFFFFC
01FC00
00FC00
00FC00
00FC00
00FC00
00FC00
00FC00
00FC00
00FC00
00FC00
00FC00
00FC00
00FC00
00FC00
7FFFF8
7FFFF8
7FFFF8
7FFFF8
00FC00
00FC00
00FC00
00FC00
00FC00
00FC00
00FC00
00FC00
00FC00
00FC00
00FC00
00FC00
00FC00
00FC00
00FC00
00FC00
00FC00
FFFFFC
FFFFFC
FFFFFC
FFFFFC
ENDCHAR
STARTCHAR 0198
ENCODING 408
SWIDTH 600 0
DWIDTH 36 0
BBX 30 43 4 0
BITMAP
FC0000FC
FC0003FC
FC0007FC
FC000FFC
FC001FE4
FC003F80
FC003F00
FC007E00
FC00FC00
FC01FC00
FC01F800
FC03F000
FC07E000
FC0FE000
FC0FC000
FC1F8000
FC3F8000
FC7F0000
FC7E0000
FCFC0000
FDFE0000
FDFE0000
FFFF0000
FFDF8000
FF9F8000
FF8FC000
FF0FC000
FE07E000
FC03F000
FC03F000
FC01F800
FC00FC00
FC00FC00
FC007E00
FC007F00
FC003F00
FC001F80
FC001F80
FC000FC0
FC0007E0
FC0007E0
FC0003F0
FC0003F8
ENDCHAR
STARTCHAR 0199
ENCODING 409
SWIDTH 600 0
DWIDTH 36 0
BBX 28 46 6 0
BITMAP
07E00000
1FF00000
3FF00000
7FF00000
7F700000
7C000000
FC000000
FC000000
FC000000
FC000000
FC000000
FC000000
FC000000
FC000000
FC000FE0
FC000FC0
FC001F80
FC003F00
FC007E00
FC00FC00
FC01F800
FC03F000
FC07F000
FC0FE000
FC1FC000
FC3F8000
FC3F0000
FC7E0000
F8FE0000
F9FF0000
FBFF8000
FFDF8000
FF8FC000
FF07E000
FE03F000
FC03F000
FC01F800
FC00FC00
FC00FE00
FC007E00
FC003F00
FC001F80
FC001FC0
FC000FC0
FC0007E0
FC0003F0
ENDCHAR
STARTCHAR 019A
ENCODING 410
SWIDTH 600 0
DWIDTH 36 0
BBX 27 46 5 0
BITMAP
FFFF8000
FFFF8000
FFFF8000
FFFF8000
000F8000
000F8000
000F8000
000F8000
000F8000
000F8000
000F8000
000F8000
000F8000
000F8000
000F8000
000F8000
000F8000
000F8000
000F8000
000F8000
000F8000
1FFFFF80
1FFFFF80
1FFFFF80
1FFFFF80
000F8000
000F8000
000F8000
000F8000
000F8000
000F8000
000F8000
000F8000
000F8000
000F8000
000F8000
000F8000
000F8000
000F8000
000F8000
000F8000
000F8000
FFFFFFE0
FFFFFFE0
FFFFFFE0
FFFFFFE0
ENDCHAR
STARTCHAR 019B
ENCODING 411
SWIDTH 600 0
DWIDTH 36 0
BBX 33 47 2 -1
BITMAP
1FE0000000
1FF8000000
1FFC000000
1FFE000000
19FE000000
003F060000
001F3F0000
001FFF0000
001FFF0000
00FFF80000
03FFC00000
03FFC00000
03F7E00000
0103E00000
0003E00000
0007F00000
0007F00000
0007F00000
000FF80000
000FF80000
001FF80000
001F7C0000
003E7C0000
003E7E0000
007E3E0000
007C3E0000
007C3F0000
00FC1F0000
00F81F0000
01F81F8000
01F00F8000
03F00F8000
03E00FC000
03E007C000
07E007E000
07C003E000
0FC003E000
0F8003F000
1F8001F000
1F0001F000
3F0001F800
3E0000FC00
3E0000FF80
7E00007F80
7C00007F80
FC00003F80
0000000400
ENDCHAR
STARTCHAR 019C
ENCODING 412
SWIDTH 600 0
DWIDTH 36 0
BBX 30 44 3 -1
BITMAP
F807807C
F807807C
F807807C
F807807C
F807807C
F807807C
F807807C
F807807C
F807807C
F807807C
F807807C
F807807C
F807807C
F807807C
F807807C
F807807C
F807807C
F807807C
F807807C
F807807C
F807807C
F807807C
F807807C
F807807C
F807807C
F807807C
F807807C
F807807C
F80F807C
F80F807C
F80F807C
F80F807C
F80F807C
F80F807C
F80FC07C
F80FC0FC
F81FC0FC
F81FC0FC
7C3FE1FC
7FFFFFFC
7FF3FFBC
3FF1FF3C
1FC0FE3C
02001000
ENDCHAR
STARTCHAR 019D
ENCODING 413
SWIDTH 600 0
DWIDTH 36 0
BBX 34 54 -2 -11
BITMAP
03FC0007C0
03FC0007C0
03FC0007C0
03FE0007C0
03FE0007C0
03FF0007C0
03FF0007C0
03EF8007C0
03EF8007C0
03EF8007C0
03E7C007C0
03E7C007C0
03E3E007C0
03E3E007C0
03E1F007C0
03E1F007C0
03E0F807C0
03E0F807C0
03E0F807C0
03E07C07C0
03E07C07C0
03E03E07C0
03E03E07C0
03E01F07C0
03E01F07C0
03E00F07C0
03E00F87C0
03E00F87C0
03E007C7C0
03E007C7C0
03E003E7C0
03E003E7C0
03E001E7C0
03E001F7C0
03E001F7C0
03E000FFC0
03E000FFC0
03E0007FC0
03E0007FC0
03E0003FC0
03E0003FC0
03E0001FC0
03E0001FC0
03E0000000
03E0000000
03E0000000
03E0000000
03E0000000
07E0000000
8FE0000000
FFC0000000
FFC0000000
FF80000000
FF00000000
ENDCHAR
STARTCHAR 019E
ENCODING 414
SWIDTH 600 0
DWIDTH 36 0
BBX 27 47 5 -14
BITMAP
00010000
F03FF800
F0FFFE00
F9FFFF00
FBFFFF80
FBC03F80
FF801FC0
FF000FC0
FE000FC0
FC0007C0
FC0007C0
FC0007C0
FC0007E0
F80007E0
F80007E0
F80007E0
F80007E0
F80007E0
F80007E0
F80007E0
F80007E0
F80007E0
F80007E0
F80007E0
F80007E0
F80007E0
F80007E0
F80007E0
F80007E0
F80007E0
F80007E0
F80007E0
F80007E0
000007E0
000007E0
000007E0
000007E0
000007E0
000007E0
000007E0
000007E0
000007E0
000007E0
000007E0
000007E0
000007E0
000007E0
ENDCHAR
STARTCHAR 019F
ENCODING 415
SWIDTH 600 0
DWIDTH 36 0
BBX 30 45 3 -1
BITMAP
00020000
007FF800
01FFFE00
03FFFF00
07FFFF80
0FF03FC0
1FC00FE0
1F8007E0
3F0003F0
3F0001F0
7E0001F8
7E0001F8
7C0000F8
7C0000F8
FC0000FC
FC0000FC
FC0000FC
F800007C
F800007C
F800007C
FFFFFFFC
FFFFFFFC
FFFFFFFC
FFFFFFFC
F800007C
F800007C
F800007C
F80000FC
FC0000FC
FC0000FC
FC0000FC
7C0000F8
7C0000F8
7E0001F8
7E0001F8
3F0003F0
3F0003F0
1F8007E0
1FC00FE0
0FF03FC0
07FFFF80
03FFFF00
01FFFE00
007FF800
00030000
ENDCHAR
STARTCHAR 01A0
ENCODING 416
SWIDTH 600 0
DWIDTH 36 0
BBX 34 51 3 -1
BITMAP
0000000380
0000000F80
0000000F80
00000007C0
00000007C0
00000007C0
00020007C0
007FF807C0
01FFFE0780
03FFFF0780
07FFFF8F80
0FF03FDF00
1FC00FFE00
1F8007FC00
3F0003F800
3E0001F000
7E0001F800
7E0001F800
7C0000F800
7C0000F800
FC0000FC00
FC0000FC00
FC0000FC00
F800007C00
F800007C00
F800007C00
F800007C00
F800007C00
F800007C00
F800007C00
F800007C00
F800007C00
F800007C00
F800007C00
FC0000FC00
FC0000FC00
FC0000FC00
7C0000F800
7C0000F800
7E0001F800
7E0001F800
3E0001F000
3F0003F000
1F8007E000
1FC00FE000
0FF03FC000
07FFFF8000
03FFFF0000
01FFFE0000
007FF80000
0003000000
ENDCHAR
STARTCHAR 01A1
ENCODING 417
SWIDTH 600 0
DWIDTH 36 0
BBX 33 43 3 -1
BITMAP
0000000700
0000001F00
0000001F00
0000001F00
0000000F80
0000000F80
0000000F80
0000000F00
0000000F00
0002001F00
007FF81E00
01FFFE3E00
03FFFFFC00
0FFFFFF800
0FE03FF000
1FC00FE000
3F0007F000
3F0003F000
7E0001F800
7E0001F800
7C0000F800
7C0000F800
FC0000F800
FC0000FC00
FC0000FC00
FC0000FC00
FC0000FC00
FC0000FC00
FC0000FC00
7C0000F800
7C0000F800
7C0001F800
7E0001F800
7E0001F800
3F0003F000
3F8007F000
1FC00FE000
0FF01FC000
07FFFF8000
03FFFF0000
01FFFE0000
007FF80000
0003000000
ENDCHAR
STARTCHAR 01A2
ENCODING 418
SWIDTH 1200 0
DWIDTH 72 0
BBX 59 45 5 -1
BITMAP
0000100000020000
000FFFC000FFF000
003FFFF003FFFC00
00FFFFFC0FFFFE00
01FFFFFE3FFFFF00
03FE01FFFF807F80
07F8003FFC003F80
0FE0001FF0000FC0
0FC0000FE0000FC0
1F800007E00007E0
1F800003F00007E0
3F000003F00007E0
3F000001F80003E0
7E000001F80003E0
7E000001F80003E0
7E000001F80003E0
7C000000F80003E0
7C000000FC0003E0
FC000000FC0003E0
FC000000FC0003E0
FC000000FC0003E0
FC000000FC0003E0
FC000000FC0003E0
FC000000FC0003E0
FC000000FC0003E0
FC000000FC0003E0
FC000000FC0003E0
7C000000FC0003E0
7C000000F80003E0
7E000001F80003E0
7E000001F80003E0
7E000001F80003E0
3F000001F00003E0
3F000003F00003E0
1F800003F00003E0
1F800007E00003E0
0FC0000FE00003E0
0FE0001FC00003E0
07F8003F800003E0
03FE01FF000003E0
01FFFFFE000003E0
00FFFFFC000003E0
003FFFF0000003E0
000FFFC0000003E0
0000300000000000
ENDCHAR
STARTCHAR 01A3
ENCODING 419
SWIDTH 600 0
DWIDTH 36 0
BBX 31 47 2 -14
BITMAP
00400080
03FC0FF0
0FFF1FF8
1FFFBFFC
1FFFFFFC
3F0FF87E
3E07F07E
7C07E03E
7C03E03E
7C03E03E
7C03E03E
FC03E03E
F801F03E
F801F03E
F801F03E
F801F03E
F801F03E
F801F03E
F801F03E
F801F03E
F801F03E
F801F03E
FC03F03E
7C03E03E
7C03E03E
7C03E03E
7E07E03E
3E07C03E
3F0FC03E
1FFF803E
1FFF803E
0FFF003E
03FC003E
0040003E
0000003E
0000003E
0000003E
0000003E
0000003E
0000003E
0000003E
0000003E
0000003E
0000003E
0000003E
0000003E
0000003E
ENDCHAR
STARTCHAR 01A4
ENCODING 420
SWIDTH 600 0
DWIDTH 36 0
BBX 32 43 1 0
BITMAP
0FFFFE00
3FFFFFC0
7FFFFFF0
FFFFFFF8
FEF81FFC
F8F801FC
F8F800FE
F0F8007E
F0F8007E
F0F8003E
F8F8003F
F8F8003F
00F8003F
00F8003F
00F8003F
00F8003E
00F8003E
00F8007E
00F8007E
00F800FC
00F801FC
00F807F8
00FFFFF0
00FFFFE0
00FFFFC0
00FFFF00
00F80000
00F80000
00F80000
00F80000
00F80000
00F80000
00F80000
00F80000
00F80000
00F80000
00F80000
00F80000
00F80000
00F80000
00F80000
00F80000
00F80000
ENDCHAR
STARTCHAR 01A5
ENCODING 421
SWIDTH 600 0
DWIDTH 36 0
BBX 28 60 5 -14
BITMAP
0FC00000
3FE00000
7FE00000
7FE00000
FE600000
FC000000
F8000000
F8000000
F8000000
F8000000
F8000000
F8000000
F8000000
F8020000
F83FF000
F8FFFC00
F9FFFE00
FBFFFF00
FFC07F80
FF001F80
FE000FC0
FE0007C0
FC0007E0
FC0007E0
FC0003E0
F80003E0
F80003F0
F80003F0
F80003F0
F80003F0
F80003F0
F80003F0
F80003F0
F80003F0
F80003E0
FC0003E0
FC0007E0
FC0007E0
FE000FC0
FE000FC0
FF001F80
FFC07F80
FBFFFF00
F9FFFE00
F8FFFC00
F83FF000
F8020000
F8000000
F8000000
F8000000
F8000000
F8000000
F8000000
F8000000
F8000000
F8000000
F8000000
F8000000
F8000000
F8000000
ENDCHAR
STARTCHAR 01A6
ENCODING 422
SWIDTH 600 0
DWIDTH 36 0
BBX 28 49 6 -6
BITMAP
F8000000
F8000000
F8000000
F8000000
F8000000
F8000000
FFFE0000
FFFFC000
FFFFF000
FFFFFC00
F83FFC00
F801FE00
F8007F00
F8003F00
F8003F00
F8001F80
F8001F80
F8001F80
F8001F80
F8001F80
F8001F80
F8001F00
F8003F00
F8003F00
F8007E00
F801FC00
F81FF800
FFFFF000
FFFFE000
FFFF0000
FFFF8000
F80F8000
F80FC000
F807E000
F807E000
F803F000
F803F000
F801F800
F800FC00
F800FC00
F8007E00
F8007E00
F8003F00
00003F80
00001F80
00000FC0
00000FC0
000007E0
000007F0
ENDCHAR
STARTCHAR 01A7
ENCODING 423
SWIDTH 600 0
DWIDTH 36 0
BBX 27 45 4 -1
BITMAP
00080000
07FFE000
3FFFF800
7FFFFC00
3FFFFE00
3F00FF00
18003F80
00001F80
00000FC0
00000FC0
00000FC0
00000FC0
00000FC0
00000FC0
00000FC0
00001F80
00003F80
00007F80
0001FF00
000FFE00
003FFC00
00FFF800
03FFE000
07FF8000
1FFE0000
3FF80000
3FE00000
7F800000
7E000000
FC000000
FC000000
FC000000
FC000000
FC000000
FC000000
7C000000
7E000000
7E000020
3F0000E0
3FE00FE0
1FFFFFE0
0FFFFFE0
03FFFFE0
00FFFF00
00030000
ENDCHAR
STARTCHAR 01A8
ENCODING 424
SWIDTH 600 0
DWIDTH 36 0
BBX 24 34 6 -1
BITMAP
002000
0FFFC0
7FFFF0
7FFFF8
7FFFFC
3C01FC
20007E
00003E
00003E
00003E
00003E
00007E
0001FC
0007FC
001FF8
00FFE0
03FFC0
0FFF00
1FF800
3FE000
7F8000
7E0000
FC0000
FC0000
FC0000
FC0000
7C0000
7E0007
7F803F
3FFFFF
1FFFFF
0FFFFF
03FFF8
000C00
ENDCHAR
STARTCHAR 01A9
ENCODING 425
SWIDTH 600 0
DWIDTH 36 0
BBX 24 42 6 1
BITMAP
FFFFFE
FFFFFE
FFFFFE
FFFFFE
FC0000
7E0000
3F0000
1F8000
1F8000
0FC000
07E000
07F000
03F000
01F800
00FC00
00FE00
007E00
003F00
001F80
001F80
000FC0
001F80
003F00
003F00
007E00
00FC00
00FC00
01F800
03F000
03F000
07E000
0FC000
0F8000
1F8000
3F0000
3E0000
7E0000
FC0000
FFFFFF
FFFFFF
FFFFFF
FFFFFF
ENDCHAR
STARTCHAR 01AA
ENCODING 426
SWIDTH 600 0
DWIDTH 36 0
BBX 28 60 4 -14
BITMAP
0FF00000
3FFC0000
7FFE0000
FFFF0000
FEFF0000
F81F0000
F81F8000
F80F8000
FC0F8000
FFFF8000
7FFF8000
3FFF8000
1FFF8000
000F8000
000F8000
000F8000
000F8000
000F8000
000F8000
000F8000
000F8000
000F8000
000F8000
000F8000
000F8000
000F8000
000F8000
000F8000
000F8000
000F8000
000F8000
000F8000
000F8000
000F8000
000F8000
000F8000
000F8000
000F8000
000F8000
000F8000
000F8000
000F8000
000F8000
000F8000
000F8000
000F8000
000F8000
000F8000
000F8000
000F8000
000F8000
000F8000
000F8000
000FC000
000FE010
0007FDF0
0007FFF0
0003FFF0
0001FFF0
00003FC0
ENDCHAR
STARTCHAR 01AB
ENCODING 427
SWIDTH 600 0
DWIDTH 36 0
BBX 28 56 3 -14
BITMAP
003E0000
003E0000
003E0000
003E0000
003E0000
003E0000
007E0000
007E0000
007E0000
007E0000
1FFFFFE0
FFFFFFE0
FFFFFFE0
FFFFFFE0
007E0000
007E0000
007E0000
007E0000
007E0000
007E0000
007E0000
007E0000
007E0000
007E0000
007E0000
007E0000
007E0000
007E0000
007E0000
007E0000
007E0000
007E0000
007E0000
007E0000
007E0000
007E0000
003F0000
003FC010
001FFFF0
000FFFF0
0007FFF0
0001FFF0
00000DF0
000001F0
000001F0
000001F0
000001F0
000001F0
000001F0
000001F0
000001F0
000067F0
00007FE0
00007FE0
00007FC0
00003F00
ENDCHAR
STARTCHAR 01AC
ENCODING 428
SWIDTH 600 0
DWIDTH 36 0
BBX 33 43 1 0
BITMAP
0FFFFFFF80
3FFFFFFF80
7FFFFFFF80
FFFFFFFF80
FF03F00000
F803F00000
F803F00000
F003F00000
F003F00000
F803F00000
F803F00000
0003F00000
0003F00000
0003F00000
0003F00000
0003F00000
0003F00000
0003F00000
0003F00000
0003F00000
0003F00000
0003F00000
0003F00000
0003F00000
0003F00000
0003F00000
0003F00000
0003F00000
0003F00000
0003F00000
0003F00000
0003F00000
0003F00000
0003F00000
0003F00000
0003F00000
0003F00000
0003F00000
0003F00000
0003F00000
0003F00000
0003F00000
0003F00000
ENDCHAR
STARTCHAR 01AD
ENCODING 429
SWIDTH 600 0
DWIDTH 36 0
BBX 28 47 3 -1
BITMAP
0001FC00
000FFE00
001FFE00
001FFE00
003FDE00
003E0000
007E0000
007E0000
007E0000
007E0000
007E0000
007E0000
007E0000
007E0000
1FFFFFE0
FFFFFFE0
FFFFFFE0
FFFFFFE0
007E0000
007E0000
007E0000
007E0000
007E0000
007E0000
007E0000
007E0000
007E0000
007E0000
007E0000
007E0000
007E0000
007E0000
007E0000
007E0000
007E0000
007E0000
007E0000
007E0000
007E0000
007E0000
003F0000
003FC010
001FFFF0
000FFFF0
0007FFF0
0001FFF0
00000C00
ENDCHAR
STARTCHAR 01AE
ENCODING 430
SWIDTH 600 0
DWIDTH 36 0
BBX 30 53 3 -10
BITMAP
FFFFFFFC
FFFFFFFC
FFFFFFFC
FFFFFFFC
000FC000
000FC000
000FC000
000FC000
000FC000
000FC000
000FC000
000FC000
000FC000
000FC000
000FC000
000FC000
000FC000
000FC000
000FC000
000FC000
000FC000
000FC000
000FC000
000FC000
000FC000
000FC000
000FC000
000FC000
000FC000
000FC000
000FC000
000FC000
000FC000
000FC000
000FC000
000FC000
000FC000
000FC000
000FC000
000FC000
000FC000
000FC000
000FC000
000FC000
000FC000
000FC000
000FC000
0007C000
0007E080
0007FF00
0003FF00
0001FF00
0000FF00
ENDCHAR
STARTCHAR 01AF
ENCODING 431
SWIDTH 600 0
DWIDTH 36 0
BBX 34 50 4 -1
BITMAP
0000000380
0000000F80
0000000F80
0000000780
00000007C0
00000007C0
FC0003F7C0
FC0003F780
FC0003F780
FC0003FF80
FC0003FF00
FC0003FF00
FC0003FE00
FC0003FC00
FC0003F000
FC0003F000
FC0003F000
FC0003F000
FC0003F000
FC0003F000
FC0003F000
FC0003F000
FC0003F000
FC0003F000
FC0003F000
FC0003F000
FC0003F000
FC0003F000
FC0003F000
FC0003F000
FC0003F000
FC0003F000
FC0003F000
FC0003F000
FC0003F000
FC0003F000
FC0003F000
FC0003F000
7C0003E000
7C0003E000
7E0007E000
7E0007E000
3F000FC000
3F801FC000
1FC03F8000
0FFFFF0000
07FFFE0000
03FFFC0000
00FFF00000
0006000000
ENDCHAR
STARTCHAR 01B0
ENCODING 432
SWIDTH 600 0
DWIDTH 36 0
BBX 33 45 4 -1
BITMAP
0000000300
0000001F00
0000000F80
0000000F80
0000000F80
0000000F80
0000000F80
0000000F80
0000000F80
0000000F00
0000001F00
0000003E00
FC0003FC00
FC0003F800
FC0003F000
FC0003E000
FC0003E000
FC0003E000
FC0003E000
FC0003E000
FC0003E000
FC0003E000
FC0003E000
FC0003E000
FC0003E000
FC0003E000
FC0003E000
FC0003E000
FC0003E000
FC0003E000
FC0003E000
FC0003E000
FC0007E000
FC0007E000
7C0007E000
7C0007E000
7E000FE000
7E000FE000
7F001FE000
3F807FE000
3FFFFBE000
1FFFF3E000
0FFFE1E000
03FF81E000
0010000000
ENDCHAR
STARTCHAR 01B1
ENCODING 433
SWIDTH 600 0
DWIDTH 36 0
BBX 34 44 1 -1
BITMAP
FFFC0FFFC0
FFFC0FFFC0
FFFC0FFFC0
FFFC0FFFC0
00F807C000
01F003E000
01F003E000
03E001F000
07C001F800
07C000F800
0F8000FC00
0F80007C00
0F80007C00
1F80007E00
1F00003E00
1F00003E00
1F00003E00
3F00003F00
3F00003F00
3F00003F00
3F00003F00
3E00001F00
3E00001F00
3E00001F00
3E00001F00
3F00003F00
3F00003F00
3F00003F00
3F00003F00
3F00003F00
1F00003F00
1F00003E00
1F80007E00
1F80007E00
0F8000FC00
0FC000FC00
07E001F800
07F003F800
03FC0FF000
01FFFFE000
00FFFFC000
007FFF8000
001FFE0000
0000800000
ENDCHAR
STARTCHAR 01B2
ENCODING 434
SWIDTH 600 0
DWIDTH 36 0
BBX 28 45 4 -1
BITMAP
00001000
FC01FF00
FC03FFC0
FC03FFC0
FC03FFE0
FC0307E0
FC0203F0
FC0003F0
FC0003F0
FC0003F0
FC0003F0
FC0003F0
FC0003F0
FC0003F0
FC0003F0
FC0003F0
FC0003F0
FC0003F0
FC0003F0
FC0003F0
FC0003F0
FC0003F0
FC0003F0
FC0003F0
FC0003F0
FC0003F0
FC0003F0
FC0003F0
FC0003F0
FC0003F0
FC0003F0
FC0003F0
FC0003F0
7C0003E0
7C0003E0
7E0007E0
7E0007E0
3F000FC0
3F801FC0
1FC03F80
0FFFFF00
07FFFE00
03FFFC00
00FFF000
00060000
ENDCHAR
STARTCHAR 01B3
ENCODING 435
SWIDTH 600 0
DWIDTH 36 0
BBX 33 44 2 0
BITMAP
0000000400
FC00003F80
7E00007F80
7E0000FF80
3F0000FF80
3F0001FC80
1F8001F800
1F8001F000
0F8003F000
0FC003E000
07C007E000
07E007C000
03E007C000
03F00F8000
01F00F8000
01F81F0000
00F81F0000
00FC3E0000
007C3E0000
007C3C0000
003E7C0000
003E780000
001FF80000
001FF80000
000FF00000
000FF00000
0007E00000
0007E00000
0007E00000
0007E00000
0007E00000
0007E00000
0007E00000
0007E00000
0007E00000
0007E00000
0007E00000
0007E00000
0007E00000
0007E00000
0007E00000
0007E00000
0007E00000
0007E00000
ENDCHAR
STARTCHAR 01B4
ENCODING 436
SWIDTH 600 0
DWIDTH 36 0
BBX 33 47 2 -14
BITMAP
0000000400
FC00003F80
7C00007F80
7E00007F80
3E0000FF80
3E0000FC80
1F0000F800
1F0001F000
1F8001F000
0F8001F000
0F8003E000
07C003E000
07C007E000
03E007C000
03E007C000
03E00F8000
01F00F8000
01F00F8000
00F81F0000
00F81F0000
00FC1E0000
007C3E0000
007C3E0000
003E3C0000
003E7C0000
001E7C0000
001F780000
001FF80000
000FF00000
000FF00000
0007F00000
0007E00000
0003E00000
0007E00000
0007C00000
0007C00000
000F800000
000F800000
001F800000
001F000000
003F000000
007E000000
63FE000000
7FFC000000
7FF8000000
7FF0000000
7F80000000
ENDCHAR
STARTCHAR 01B5
ENCODING 437
SWIDTH 600 0
DWIDTH 36 0
BBX 24 43 6 0
BITMAP
7FFFFF
7FFFFF
7FFFFF
7FFFFF
00001F
00003F
00003E
00007C
0000FC
0000F8
0001F8
0001F0
0003F0
0003E0
0007E0
0007C0
000FC0
000F80
001F00
7FFFFF
7FFFFF
7FFFFF
7FFFFF
00FC00
00F800
01F000
01F000
03E000
07E000
07C000
0FC000
0F8000
1F8000
1F0000
3F0000
3E0000
7E0000
7C0000
FC0000
FFFFFF
FFFFFF
FFFFFF
FFFFFF
ENDCHAR
STARTCHAR 01B6
ENCODING 438
SWIDTH 600 0
DWIDTH 36 0
BBX 26 32 5 0
BITMAP
7FFFFF80
7FFFFF80
7FFFFF80
7FFFFF80
00001F80
00003F00
00003E00
00007E00
0000FC00
0001F800
0003F000
0007E000
0007C000
1FFFFF00
1FFFFF00
1FFFFF00
1FFFFF00
007E0000
00FC0000
01F80000
03F00000
03F00000
07E00000
0FC00000
1F800000
1F000000
3F000000
7E000000
FFFFFFC0
FFFFFFC0
FFFFFFC0
FFFFFFC0
ENDCHAR
STARTCHAR 01B7
ENCODING 439
SWIDTH 600 0
DWIDTH 36 0
BBX 29 44 3 -1
BITMAP
7FFFFFE0
7FFFFFE0
7FFFFFE0
7FFFFFE0
00000FE0
00001FC0
00003F80
00007F00
0000FE00
0001FC00
0003F800
0007F000
000FE000
001FC000
003F8000
007F0000
00FE0000
01FC0000
03F80000
03FFF000
03FFFE00
03FFFF80
03FFFFC0
0000FFE0
00001FF0
000007F0
000003F8
000001F8
000001F8
000001F8
000000F8
000001F8
000001F8
000001F8
000001F8
000003F0
800007F0
E0000FE0
FC007FC0
FFFFFF80
FFFFFF00
FFFFFC00
1FFFF000
00180000
ENDCHAR
STARTCHAR 01B8
ENCODING 440
SWIDTH 600 0
DWIDTH 36 0
BBX 29 44 4 -1
BITMAP
3FFFFFF0
3FFFFFF0
3FFFFFF0
3FFFFFF0
3F800000
1FC00000
0FE00000
07F00000
03F80000
01FC0000
00FE0000
007F0000
003F8000
001FC000
000FE000
0007F000
0003F800
0001FC00
0000FE00
007FFE00
03FFFE00
0FFFFE00
1FFFFE00
3FF80000
7FC00000
7F000000
FE000000
FC000000
FC000000
FC000000
F8000000
FC000000
FC000000
FC000000
FC000000
7E000000
7F000008
3F800038
1FF001F8
0FFFFFF8
07FFFFF8
01FFFFF8
007FFFC0
0000C000
ENDCHAR
STARTCHAR 01B9
ENCODING 441
SWIDTH 600 0
DWIDTH 36 0
BBX 29 46 4 -14
BITMAP
3FFFFFF0
3FFFFFF0
3FFFFFF0
3FFFFFF0
1F000000
0F800000
07C00000
03E00000
01F00000
00F80000
007C0000
003F0000
001F8000
000FC000
0007E000
0003F000
0001F800
0000FC00
007FFC00
01FFFC00
07FFFC00
0FFFFC00
1FF80000
3FC00000
3F000000
7E000000
7E000000
7C000000
7C000000
FC000000
FC000000
FC000000
FC000000
7C000000
7C000000
7C000000
7E000000
3E000000
3F000000
1F800008
1FE00078
0FFE1FF8
07FFFFF8
01FFFFF8
007FFFE0
000FFE00
ENDCHAR
STARTCHAR 01BA
ENCODING 442
SWIDTH 600 0
DWIDTH 36 0
BBX 28 46 4 -14
BITMAP
7FFFFFC0
7FFFFFC0
7FFFFFC0
7FFFFFC0
00003F80
00007F00
0000FC00
0003F800
0007F000
000FC000
003F8000
007F0000
00FC0000
03FFE000
03FFFC00
03FFFF00
03FFFF80
001FFFC0
00003FC0
00000FE0
000007E0
000003E0
000003F0
000001F0
000001F0
000003F0
000003E0
000003E0
000007E0
00000FC0
0007FFC0
07FFFF80
1FFFFE00
3FFFF800
7FFFC000
7E000000
FC000000
F8000000
F8000000
F8000000
7E000600
7FE1FE00
3FFFFE00
3FFFFE00
0FFFFC00
01FFC000
ENDCHAR
STARTCHAR 01BB
ENCODING 443
SWIDTH 600 0
DWIDTH 36 0
BBX 29 44 4 0
BITMAP
00040000
01FFF000
07FFFC00
1FFFFE00
3FFFFF00
7FC07F80
3E001F80
3C000FC0
10000FC0
000007C0
000007C0
000007C0
000007C0
000007C0
000007C0
000007C0
00000FC0
00000F80
00001F80
00001F80
00003F00
3FFFFFF0
3FFFFFF0
3FFFFFF0
3FFFFFF0
0003F800
0007F000
000FE000
001FC000
003F8000
007F0000
00FE0000
01FC0000
03F80000
07F00000
07E00000
0FC00000
1F800000
3F800000
7F000000
FFFFFFF8
FFFFFFF8
FFFFFFF8
FFFFFFF8
ENDCHAR
STARTCHAR 01BC
ENCODING 444
SWIDTH 600 0
DWIDTH 36 0
BBX 28 44 3 -1
BITMAP
FFFFFFE0
FFFFFFE0
FFFFFFE0
FFFFFFE0
03E00000
03E00000
03E00000
03E00000
03E00000
03E00000
03E00000
03E00000
03E00000
03E00000
03E00000
03E00000
03E00000
03FFF000
03FFFC00
03FFFF00
03FFFF80
00007FC0
00001FC0
00000FE0
000007E0
000003F0
000003F0
000001F0
000001F0
000001F0
000001F0
000001F0
000003F0
000003F0
000003F0
000007E0
40000FE0
38001FC0
3F007FC0
3FFFFF80
3FFFFE00
3FFFFC00
07FFE000
00180000
ENDCHAR
STARTCHAR 01BD
ENCODING 445
SWIDTH 600 0
DWIDTH 36 0
BBX 28 33 4 -1
BITMAP
7FFFFFC0
7FFFFFC0
7FFFFFC0
7FFFFFC0
03E00000
03E00000
03E00000
03E00000
03E00000
03E00000
03E00000
03FFE000
03FFFC00
03FFFF00
03FFFF80
0007FFC0
00001FE0
000007E0
000003E0
000003F0
000003F0
000001F0
000003F0
000003E0
000003E0
000007E0
E0000FC0
FE007FC0
FFFFFF80
FFFFFF00
7FFFFC00
0FFFF000
001C0000
ENDCHAR
STARTCHAR 01BE
ENCODING 446
SWIDTH 600 0
DWIDTH 36 0
BBX 27 42 3 -1
BITMAP
003E0000
003E0000
003E0000
003E0000
003E0000
003E0000
007E0000
007E0000
007E0000
1FFFFFE0
FFFFFFE0
FFFFFFE0
FFFFFFE0
007E0000
007E0000
007E0000
007E0000
007E0000
007E0000
007E0000
007E0000
007E0000
003F0000
003FE000
003FFC00
001FFF00
0007FF80
0000FFC0
00001FE0
000007E0
000003E0
000003E0
000003E0
000003E0
200003E0
300007E0
3F001FC0
3FFFFFC0
3FFFFF80
1FFFFE00
07FFF800
000C0000
ENDCHAR
STARTCHAR 01BF
ENCODING 447
SWIDTH 600 0
DWIDTH 36 0
BBX 28 47 5 -14
BITMAP
00010000
F83FF000
F8FFFC00
F9FFFF00
FBFFFF80
FBC07F80
FF801FC0
FF000FC0
FE0007E0
FE0007E0
FC0003E0
FC0003E0
FC0003F0
FC0003F0
FC0003F0
FC0003F0
FC0003E0
FC0003E0
FC0007E0
FC0007E0
FC0007C0
FC000FC0
FC001FC0
FC001F80
FC003F00
FC00FF00
FC01FE00
FC07FC00
FC3FF800
FFFFE000
FFFFC000
FFFF0000
FFF80000
FC000000
FC000000
FC000000
FC000000
FC000000
FC000000
FC000000
FC000000
FC000000
FC000000
FC000000
FC000000
FC000000
FC000000
ENDCHAR
STARTCHAR 01C0
ENCODING 448
SWIDTH 600 0
DWIDTH 36 0
BBX 4 46 16 0
BITMAP
F0
F0
F0
F0
F0
F0
F0
F0
F0
F0
F0
F0
F0
F0
F0
F0
F0
F0
F0
F0
F0
F0
F0
F0
F0
F0
F0
F0
F0
F0
F0
F0
F0
F0
F0
F0
F0
F0
F0
F0
F0
F0
F0
F0
F0
F0
ENDCHAR
STARTCHAR 01C1
ENCODING 449
SWIDTH 600 0
DWIDTH 36 0
BBX 22 46 7 0
BITMAP
F8007C
F8007C
F8007C
F8007C
F8007C
F8007C
F8007C
F8007C
F8007C
F8007C
F8007C
F8007C
F8007C
F8007C
F8007C
F8007C
F8007C
F8007C
F8007C
F8007C
F8007C
F8007C
F8007C
F8007C
F8007C
F8007C
F8007C
F8007C
F8007C
F8007C
F8007C
F8007C
F8007C
F8007C
F8007C
F8007C
F8007C
F8007C
F8007C
F8007C
F8007C
F8007C
F8007C
F8007C
F8007C
F8007C
ENDCHAR
STARTCHAR 01C2
ENCODING 450
SWIDTH 600 0
DWIDTH 36 0
BBX 24 46 6 0
BITMAP
003C00
003C00
003C00
003C00
003C00
003C00
003C00
003C00
003C00
003C00
003C00
003C00
003C00
003C00
003C00
FFFFFF
FFFFFF
FFFFFF
FFFFFF
003C00
003C00
003C00
003C00
003C00
003C00
003C00
FFFFFF
FFFFFF
FFFFFF
FFFFFF
003C00
003C00
003C00
003C00
003C00
003C00
003C00
003C00
003C00
003C00
003C00
003C00
003C00
003C00
003C00
003C00
ENDCHAR
STARTCHAR 01C3
ENCODING 451
SWIDTH 600 0
DWIDTH 36 0
BBX 8 44 14 -1
BITMAP
7E
7E
7E
7E
7E
7E
7E
7E
7E
7E
7E
7E
7E
7E
7E
7E
7E
7E
7E
7E
7E
7E
7E
7E
3E
3E
3C
3C
3C
3C
3C
00
00
00
00
10
7E
7E
FF
FF
FF
7E
7E
10
ENDCHAR
STARTCHAR 01C4
ENCODING 452
SWIDTH 1200 0
DWIDTH 72 0
BBX 58 58 7 0
BITMAP
000000000E000F00
000000000F801F00
0000000007C03E00
0000000003E0FC00
0000000001F1F800
0000000000FBF000
0000000000FFE000
00000000007FC000
00000000003F8000
00000000001F8000
0000000000000000
0000000000000000
0000000000000000
0000000000000000
0000000000000000
FFFE00003FFFFFC0
FFFFC0003FFFFFC0
FFFFF0003FFFFFC0
FFFFFC003FFFFFC0
F81FFE0000000FC0
F801FF0000000F80
F8007F8000001F80
F8001F8000001F00
F8000FC000003E00
F80007E000007E00
F80007E000007C00
F80003E00000FC00
F80003F00000F800
F80003F00001F800
F80001F00001F000
F80001F00003F000
F80001F80003E000
F80001F80007E000
F80001F80007C000
F80001F8000F8000
F80001F8001F8000
F80001F8001F0000
F80001F8003F0000
F80001F8003E0000
F80001F8007E0000
F80001F8007C0000
F80001F800FC0000
F80001F000F80000
F80001F001F80000
F80003F001F00000
F80003F003E00000
F80007E007E00000
F80007E007C00000
F8000FC00FC00000
F8001FC00F800000
F8003F801F800000
F8007F801F000000
F801FF003F000000
F83FFE003E000000
FFFFF8007FFFFFC0
FFFFF0007FFFFFC0
FFFFC0007FFFFFC0
FFFC00007FFFFFC0
ENDCHAR
STARTCHAR 01C5
ENCODING 453
SWIDTH 1200 0
DWIDTH 72 0
BBX 63 47 4 0
BITMAP
0000000000F00078
0000000000F801F0
00000000007E03E0
00000000003F07C0
FFFE0000001F8F80
FFFFE000000FDF80
FFFFF8000007FF00
FFFFFC000003FE00
FC1FFE000001FC00
FC00FF000001F800
FC003F8000000000
FC001FC000000000
FC000FC000000000
FC0007E000000000
FC0003E000000000
FC0003F003FFFFFC
FC0003F003FFFFFC
FC0001F003FFFFFC
FC0001F803FFFFFC
FC0001F8000000FC
FC0001F8000001FC
FC0000F8000001F8
FC0000F8000003F0
FC0000F8000007E0
FC0000F800000FC0
FC0000F800000FC0
FC0000F800001F80
FC0000F800003F00
FC0000F800007E00
FC0001F80000FC00
FC0001F80000FC00
FC0001F80001F800
FC0001F80003F000
FC0001F00007E000
FC0003F0000FC000
FC0003F0000FC000
FC0007E0001F8000
FC0007E0003F0000
FC000FC0007E0000
FC001FC0007C0000
FC007F8000FC0000
FC01FF0001F80000
FC3FFE0003F00000
FFFFFC0007FFFFFE
FFFFF00007FFFFFE
FFFFC00007FFFFFE
FFFE000007FFFFFE
ENDCHAR
STARTCHAR 01C6
ENCODING 454
SWIDTH 1200 0
DWIDTH 72 0
BBX 64 48 3 -1
BITMAP
0000000000780038
000001F0007C00F8
000001F0003E01F0
000001F0001F83E0
000001F0000FC7C0
000001F00007EF80
000001F00003FF80
000001F00001FF00
000001F00000FE00
000001F00000FC00
000001F000000000
000001F000000000
000001F000000000
000001F000000000
000201F000000000
00FFE1F001FFFFFE
03FFF1F001FFFFFE
07FFFDF001FFFFFE
0FFFFDF001FFFFFE
1FE03FF00000007E
3FC01FF0000000FE
3F800FF0000000FC
3F0007F0000001F8
7E0003F0000003F0
7E0003F0000007E0
7E0003F0000007E0
7C0003F000000FC0
FC0001F000001F80
FC0001F000003F00
FC0001F000007E00
FC0001F000007E00
FC0001F00000FC00
FC0001F00001F800
FC0001F00003F000
FC0001F00007E000
7C0001F00007E000
7C0003F0000FC000
7E0003F0001F8000
7E0003F0003F0000
3F0007F0003E0000
3F0007F0007E0000
1F800FF000FC0000
1FE03FF001F80000
0FFFFDF003FFFFFF
07FFF9F003FFFFFF
03FFF0F003FFFFFF
00FFE0F003FFFFFF
0004000000000000
ENDCHAR
STARTCHAR 01C7
ENCODING 455
SWIDTH 1200 0
DWIDTH 72 0
BBX 57 44 7 -1
BITMAP
F800000000001F80
F800000000001F80
F800000000001F80
F800000000001F80
F800000000001F80
F800000000001F80
F800000000001F80
F800000000001F80
F800000000001F80
F800000000001F80
F800000000001F80
F800000000001F80
F800000000001F80
F800000000001F80
F800000000001F80
F800000000001F80
F800000000001F80
F800000000001F80
F800000000001F80
F800000000001F80
F800000000001F80
F800000000001F80
F800000000001F80
F800000000001F80
F800000000001F80
F800000000001F80
F800000000001F80
F800000000001F80
F800000000001F80
F800000000001F80
F800000000001F80
F800000000001F80
F800000000001F80
F800000000001F80
F800000000001F00
F800000000003F00
F800000000003F00
F800000010007E00
F80000001E01FE00
FFFFFF001FFFFC00
FFFFFF001FFFF800
FFFFFF001FFFF000
FFFFFF0007FFC000
0000000000180000
ENDCHAR
STARTCHAR 01C8
ENCODING 456
SWIDTH 1200 0
DWIDTH 72 0
BBX 53 60 7 -14
BITMAP
000000000000F0
000000000003F8
000000000003F8
F80000000003F8
F80000000003F8
F80000000003F8
F80000000003F8
F80000000000F0
F8000000000000
F8000000000000
F8000000000000
F8000000000000
F8000000000000
F8000000000000
F800000007FFF8
F800000007FFF8
F800000007FFF8
F800000007FFF8
F80000000007F8
F80000000001F8
F80000000001F8
F80000000001F8
F80000000001F8
F80000000001F8
F80000000001F8
F80000000001F8
F80000000001F8
F80000000001F8
F80000000001F8
F80000000001F8
F80000000001F8
F80000000001F8
F80000000001F8
F80000000001F8
F80000000001F8
F80000000001F8
F80000000001F8
F80000000001F8
F80000000001F8
F80000000001F8
F80000000001F8
F80000000001F8
FFFFFF000001F8
FFFFFF000001F8
FFFFFF000001F8
FFFFFF000001F8
000000000001F8
000000000001F8
000000000001F8
000000000001F8
000000000001F8
000000000001F8
000000000003F0
000000000003F0
000000008007F0
000000007E7FE0
000000007FFFC0
000000007FFF80
000000007FFF00
000000001FF800
ENDCHAR
STARTCHAR 01C9
ENCODING 457
SWIDTH 1200 0
DWIDTH 72 0
BBX 55 60 5 -14
BITMAP
FFFF800000003C
FFFF80000000FE
FFFF80000000FE
FFFF80000000FE
000F80000000FE
000F80000000FE
000F80000000FE
000F800000003C
000F8000000000
000F8000000000
000F8000000000
000F8000000000
000F8000000000
000F8000000000
000F800001FFFE
000F800001FFFE
000F800001FFFE
000F800001FFFE
000F80000001FE
000F800000007E
000F800000007E
000F800000007E
000F800000007E
000F800000007E
000F800000007E
000F800000007E
000F800000007E
000F800000007E
000F800000007E
000F800000007E
000F800000007E
000F800000007E
000F800000007E
000F800000007E
000F800000007E
000F800000007E
000F800000007E
000F800000007E
000F800000007E
000F800000007E
000F800000007E
000F800000007E
FFFFFFE000007E
FFFFFFE000007E
FFFFFFE000007E
FFFFFFE000007E
0000000000007E
0000000000007E
0000000000007E
0000000000007E
0000000000007E
0000000000007E
000000000000FC
000000000000FC
000000002001FC
000000001F9FF8
000000001FFFF0
000000001FFFE0
000000001FFFC0
0000000007FE00
ENDCHAR
STARTCHAR 01CA
ENCODING 458
SWIDTH 1200 0
DWIDTH 72 0
BBX 60 44 4 -1
BITMAP
FF0001F0000003F0
FF0001F0000003F0
FF0001F0000003F0
FF8001F0000003F0
FF8001F0000003F0
FFC001F0000003F0
FFC001F0000003F0
FBE001F0000003F0
FBE001F0000003F0
FBE001F0000003F0
F9F001F0000003F0
F9F001F0000003F0
F8F801F0000003F0
F8F801F0000003F0
F87C01F0000003F0
F87C01F0000003F0
F83E01F0000003F0
F83E01F0000003F0
F83E01F0000003F0
F81F01F0000003F0
F81F01F0000003F0
F80F81F0000003F0
F80F81F0000003F0
F807C1F0000003F0
F807C1F0000003F0
F803C1F0000003F0
F803E1F0000003F0
F803E1F0000003F0
F801F1F0000003F0
F801F1F0000003F0
F800F9F0000003F0
F800F9F0000003F0
F80079F0000003F0
F8007DF0000003F0
F8007DF0000003E0
F8003FF0000007E0
F8003FF0000007E0
F8001FF002000FC0
F8001FF003C03FC0
F8000FF003FFFF80
F8000FF003FFFF00
F80007F003FFFE00
F80007F000FFF800
0000000000030000
ENDCHAR
STARTCHAR 01CB
ENCODING 459
SWIDTH 1200 0
DWIDTH 72 0
BBX 56 60 4 -14
BITMAP
0000000000001E
0000000000007F
0000000000007F
FF0001F000007F
FF0001F000007F
FF0001F000007F
FF8001F000007F
FF8001F000001E
FFC001F0000000
FFC001F0000000
FBE001F0000000
FBE001F0000000
FBE001F0000000
F9F001F0000000
F9F001F000FFFF
F8F801F000FFFF
F8F801F000FFFF
F87C01F000FFFF
F87C01F00000FF
F83E01F000003F
F83E01F000003F
F83E01F000003F
F81F01F000003F
F81F01F000003F
F80F81F000003F
F80F81F000003F
F807C1F000003F
F807C1F000003F
F803C1F000003F
F803E1F000003F
F803E1F000003F
F801F1F000003F
F801F1F000003F
F800F9F000003F
F800F9F000003F
F80079F000003F
F8007DF000003F
F8007DF000003F
F8003FF000003F
F8003FF000003F
F8001FF000003F
F8001FF000003F
F8000FF000003F
F8000FF000003F
F80007F000003F
F80007F000003F
0000000000003F
0000000000003F
0000000000003F
0000000000003F
0000000000003F
0000000000003F
0000000000007E
0000000000007E
000000001000FE
000000000FCFFC
000000000FFFF8
000000000FFFF0
000000000FFFE0
0000000003FF00
ENDCHAR
STARTCHAR 01CC
ENCODING 460
SWIDTH 1200 0
DWIDTH 72 0
BBX 55 60 5 -14
BITMAP
0000000000003C
000000000000FE
000000000000FE
000000000000FE
000000000000FE
000000000000FE
000000000000FE
0000000000003C
00000000000000
00000000000000
00000000000000
00000000000000
00000000000000
00010000000000
F03FF80001FFFE
F0FFFE0001FFFE
F9FFFF0001FFFE
FBFFFF8001FFFE
FBC03F800001FE
FF801FC000007E
FF000FC000007E
FE000FC000007E
FC0007C000007E
FC0007C000007E
FC0007C000007E
FC0007E000007E
F80007E000007E
F80007E000007E
F80007E000007E
F80007E000007E
F80007E000007E
F80007E000007E
F80007E000007E
F80007E000007E
F80007E000007E
F80007E000007E
F80007E000007E
F80007E000007E
F80007E000007E
F80007E000007E
F80007E000007E
F80007E000007E
F80007E000007E
F80007E000007E
F80007E000007E
F80007E000007E
0000000000007E
0000000000007E
0000000000007E
0000000000007E
0000000000007E
0000000000007E
000000000000FC
000000000000FC
000000002001FC
000000001F9FF8
000000001FFFF0
000000001FFFE0
000000001FFFC0
0000000007FE00
ENDCHAR
STARTCHAR 01CD
ENCODING 461
SWIDTH 600 0
DWIDTH 36 0
BBX 34 58 1 0
BITMAP
01C001E000
01F003E000
00F807C000
007C0F8000
003E3F0000
001F7E0000
000FFC0000
000FF80000
0007F80000
0003F00000
0000000000
0000000000
0000000000
0000000000
0000000000
0003F00000
0003F00000
0007F80000
0007F80000
0007F80000
000FFC0000
000FFC0000
000FFC0000
001F3E0000
001F3E0000
001F3E0000
003E3F0000
003E1F0000
003E1F0000
007E1F8000
007C0F8000
007C0F8000
00FC0F8000
00F807C000
00F807C000
01F807C000
01F003E000
01F003E000
03F003E000
03E001F000
03FFFFF000
03FFFFF000
07FFFFF800
07FFFFF800
07C000F800
0F80007C00
0F80007C00
0F80007C00
1F80007E00
1F00003E00
1F00003E00
3F00003F00
3E00001F00
3E00001F00
7E00001F80
7C00000F80
7C00000F80
FC00000FC0
ENDCHAR
STARTCHAR 01CE
ENCODING 462
SWIDTH 600 0
DWIDTH 36 0
BBX 27 48 4 -1
BITMAP
0F000700
0F801F00
07C03E00
03F07C00
01F8F800
00FDF000
007FF000
003FE000
001FC000
001F8000
00000000
00000000
00000000
00000000
00040000
01FFF000
0FFFFC00
3FFFFF00
1FFFFF80
0F803F80
0C000FC0
000007C0
000007C0
000007C0
000003E0
000003E0
000003E0
007FFFE0
03FFFFE0
0FFFFFE0
1FFFFFE0
3FFE03E0
7F8003E0
7E0003E0
7C0003E0
FC0003E0
F80007E0
F80007E0
F80007E0
F8000FE0
FC001FE0
7E003FE0
7F00FBE0
3FFFFBE0
3FFFF3E0
0FFFC3E0
07FF03E0
00200000
ENDCHAR
STARTCHAR 01CF
ENCODING 463
SWIDTH 600 0
DWIDTH 36 0
BBX 22 58 7 0
BITMAP
700078
7C00F8
3E01F0
1F03E0
0F8FC0
07DF80
03FF00
03FE00
01FE00
00FC00
000000
000000
000000
000000
000000
FFFFFC
FFFFFC
FFFFFC
FFFFFC
3FFFE0
00FC00
00FC00
00FC00
00FC00
00FC00
00FC00
00FC00
00FC00
00FC00
00FC00
00FC00
00FC00
00FC00
00FC00
00FC00
00FC00
00FC00
00FC00
00FC00
00FC00
00FC00
00FC00
00FC00
00FC00
00FC00
00FC00
00FC00
00FC00
00FC00
00FC00
00FC00
00FC00
00FC00
00FC00
FFFFFC
FFFFFC
FFFFFC
FFFFFC
ENDCHAR
STARTCHAR 01D0
ENCODING 464
SWIDTH 600 0
DWIDTH 36 0
BBX 27 47 5 0
BITMAP
1C001E00
1F003E00
0F807C00
07C0F800
03E3F000
01F7E000
00FFC000
00FF8000
007F8000
003F0000
00000000
00000000
00000000
00000000
00000000
7FFF8000
7FFF8000
7FFF8000
7FFF8000
003F8000
001F8000
001F8000
001F8000
001F8000
001F8000
001F8000
001F8000
001F8000
001F8000
001F8000
001F8000
001F8000
001F8000
001F8000
001F8000
001F8000
001F8000
001F8000
001F8000
001F8000
001F8000
001F8000
001F8000
FFFFFFE0
FFFFFFE0
FFFFFFE0
FFFFFFE0
ENDCHAR
ENDFONT
